<svg width="48" height="48" viewBox="0 0 48 48" fill="none" xmlns="http://www.w3.org/2000/svg">
<g clip-path="url(#clip0_925_2)">
<path d="M45.6699 1.28004C45.4099 0.980037 42.1099 2.64004 42.1099 2.64004L42.2599 2.54004C42.9199 2.13004 43.9399 1.54004 43.5599 1.06004C43.3699 0.820037 42.9199 0.930037 41.6599 1.70004C41.0799 2.07004 37.9699 3.39004 34.7699 4.78004C32.1199 5.96004 27.3299 8.08004 26.8899 8.57004C26.8899 8.57004 26.8099 8.74004 26.7599 8.84004C26.5427 9.38632 26.3786 9.95227 26.2699 10.53V10.6C26.2646 10.6465 26.2646 10.6935 26.2699 10.74C26.0699 11.74 25.8999 12.9 25.7099 14.22C25.1299 18.22 24.5599 24.15 24.5599 24.15C24.4918 26.1578 24.3182 28.1605 24.0399 30.15C23.9861 30.4227 23.9092 30.6904 23.8099 30.95C23.8099 31.04 23.7599 31.15 23.7199 31.24C23.6144 31.6085 23.4301 31.9497 23.1799 32.24C22.4399 33.07 20.6299 32.8 20.1199 32.74C19.19 32.5872 18.3248 32.1667 17.6299 31.53C17.1743 30.8098 16.4576 30.2937 15.6299 30.09C15.3199 30.09 14.0499 30.29 13.6299 30.27C13.2099 30.25 12.6299 29.67 11.9799 29.59C11.3643 29.6375 10.7715 29.8443 10.2599 30.19C11.2833 30.5495 12.2602 31.0295 13.1699 31.62C13.6858 32.4392 14.3883 33.1246 15.2199 33.62C16.1699 34.06 19.4699 37.89 19.4699 37.89C20.0416 38.4644 20.6459 39.0053 21.2799 39.51C20.2805 39.8684 19.244 40.1132 18.1899 40.24C16.4629 40.4844 14.7043 40.3764 13.0202 39.9223C11.3361 39.4682 9.76154 38.6776 8.39145 37.5982C7.02137 36.5188 5.88423 35.1729 5.04867 33.6418C4.21312 32.1108 3.69648 30.4263 3.52994 28.69C3.34515 27.09 3.45702 25.4695 3.85994 23.91C4.25929 22.0233 5.07592 20.25 6.24994 18.72C7.31996 17.3214 8.65999 16.1519 10.1905 15.281C11.7211 14.4101 13.411 13.8555 15.1599 13.65C17.3553 13.4203 19.5735 13.7328 21.6199 14.56C21.6199 14.32 21.6199 14.09 21.6199 13.85C19.6444 13.0805 17.5185 12.7744 15.4061 12.9553C13.2936 13.1363 11.2509 13.7995 9.43494 14.8938C7.61902 15.9882 6.07839 17.4846 4.93158 19.2679C3.78477 21.0512 3.06236 23.0737 2.81994 25.18C2.76378 25.5344 2.72705 25.8916 2.70994 26.25C2.64243 27.3832 2.66249 28.5199 2.76994 29.65C3.01018 31.831 3.77114 33.9224 4.9887 35.7477C6.20626 37.5731 7.84475 39.0791 9.76609 40.1388C11.6874 41.1985 13.8354 41.7808 16.0288 41.8367C18.2223 41.8926 20.3971 41.4205 22.3699 40.46C23.5674 41.3484 24.8544 42.1092 26.2099 42.73C29.7399 44.27 34.0799 44.46 34.9999 44.57C36.9999 44.84 38.8299 47.42 39.3999 47.94C39.9699 48.46 43.7399 47.64 43.7399 47.64C43.5517 47.0591 43.4112 46.4638 43.3199 45.86C43.1499 44.86 42.0599 44.42 41.8599 44.17C41.6599 43.92 36.7599 41.68 35.9899 41.17C34.8246 40.3202 33.8728 39.211 33.2099 37.93C32.8767 37.4423 32.6648 36.8821 32.5917 36.2959C32.5187 35.7098 32.5866 35.1146 32.7899 34.56C32.9899 34.24 33.3699 34.17 33.5899 33.73C33.8099 33.29 33.6599 33.26 33.5899 33.05C33.5199 32.84 33.6599 32.66 33.8699 32.29C34.0799 31.92 33.9899 31.94 33.9899 31.94V31.48C34.0399 31.01 33.9899 31.48 34.0799 31.32L34.1699 31.15C34.1521 31.0159 34.1766 30.8796 34.2399 30.76C34.3199 30.6 34.1199 30.43 34.1699 30.24C34.2199 30.05 34.2599 30.07 34.3199 29.7C34.3449 29.5008 34.3449 29.2993 34.3199 29.1C34.3199 28.68 34.4299 28.87 34.6399 28.64C34.8499 28.41 34.4299 28.1 34.4299 28.1C34.5258 27.7862 34.6496 27.4817 34.7999 27.19C35.1199 26.45 34.7999 27.19 34.8799 26.89C34.9599 26.59 34.7699 26.33 34.7299 26.04C34.6899 25.75 34.7299 25.84 34.8199 25.46C34.9099 25.08 34.8199 25.46 34.9499 25.11C35.029 24.9453 35.0535 24.7597 35.0199 24.58L34.9999 23.84L35.1099 23.64C35.1736 23.428 35.1736 23.202 35.1099 22.99L34.8099 22.13C34.7934 21.9304 34.7934 21.7297 34.8099 21.53C34.7643 21.1656 34.6805 20.807 34.5599 20.46L34.7599 19.59L34.4699 18.31L34.2899 17.23C34.2899 17.23 34.2899 15.61 34.2899 14.97C34.2779 14.2184 34.3147 13.4669 34.3999 12.72C34.4999 11.87 36.9599 10.84 37.2199 10.33C37.4799 9.82004 35.7299 10.33 35.7299 10.33C35.7299 10.33 38.7599 9.46004 38.9999 9.10004C39.2399 8.74004 36.9999 9.24004 36.9999 9.24004C38.3411 9.00183 39.6305 8.53144 40.8099 7.85004C41.6799 7.09004 39.3199 7.67004 38.9399 7.77004C39.3199 7.66004 41.9399 6.96004 42.2699 6.18004C42.4799 5.74004 40.3299 6.06004 40.3299 6.06004C41.4023 5.82555 42.4503 5.49074 43.4599 5.06004C44.9999 4.24004 44.9999 3.67004 44.7299 3.46004C43.7588 3.57939 42.8053 3.81439 41.8899 4.16004H41.7599H41.8899C42.5854 3.90781 43.2551 3.5897 43.8899 3.21004C44.8699 2.60004 46.0799 1.79004 45.6699 1.28004ZM41.6699 2.85004C41.7758 2.78853 41.8861 2.73505 41.9999 2.69004C41.8971 2.7379 41.797 2.79131 41.6999 2.85004H41.6699Z" fill="#005187"/>
<path d="M39.1001 0.270014C38.8701 -0.00998588 37.3001 0.780014 37.3001 0.780014C37.3001 0.780014 27.7201 5.39001 23.5001 7.68001C22.942 7.90413 22.4583 8.28099 22.1046 8.76738C21.7508 9.25377 21.5413 9.83001 21.5001 10.43C21.663 15.6122 22.1238 20.7807 22.8801 25.91C23.3501 29.6 23.6701 31.14 23.6501 31.26C23.7854 30.8995 23.9022 30.5324 24.0001 30.16C24.2783 28.1705 24.4519 26.1677 24.5201 24.16C24.5201 24.16 25.0901 18.22 25.6701 14.23C26.0501 11.57 26.3801 9.43001 26.9101 8.56001C27.2501 8.02001 34.9801 4.70001 36.3301 4.07001C37.9901 3.30001 38.1601 3.07001 38.2001 2.55001C38.2401 2.03001 36.4701 2.61001 36.4701 2.61001C36.4701 2.61001 37.9401 1.82001 38.4801 1.46001C39.0201 1.10001 39.3501 0.540014 39.1001 0.270014ZM7.19007 17.62L9.67007 14.1L6.67007 17.1L5.27007 12.04L5.51007 17.2L3.00007 15.52L5.30007 17.92L2.07007 18.81L5.35007 18.65L2.63007 22.46L5.84007 19.26L7.17007 23.96L7.00007 19.23L9.42007 20.82L7.00007 18.39L10.2601 17.46L7.19007 17.62Z" fill="#005187" stroke="#005187" stroke-width="0.43"/>
</g>
<defs>
<clipPath id="clip0_925_2">
<rect width="48" height="48" fill="white"/>
</clipPath>
</defs>
</svg>
