<svg width="143" height="36" viewBox="0 0 143 36" fill="none" xmlns="http://www.w3.org/2000/svg">
<path fill-rule="evenodd" clip-rule="evenodd" d="M17.28 36C9.13 36 5.06 36 2.53 33.47C0 30.94 0 26.87 0 18.72V17.28C0 9.13 0 5.06 2.53 2.53C5.06 0 9.13 0 17.28 0H18.72C26.87 0 30.94 0 33.47 2.53C36 5.06 36 9.13 36 17.28V18.72C36 26.87 36 30.94 33.47 33.47C30.94 36 26.87 36 18.72 36H17.28Z" fill="#0077FF"/>
<path d="M20.8199 22.1898C20.3493 22.0719 19.9315 21.8003 19.6326 21.4181C19.3338 21.0359 19.1709 20.565 19.1699 20.0798V8.3598C19.1713 8.095 19.2327 7.83394 19.3496 7.59632C19.4664 7.35869 19.6357 7.15068 19.8446 6.98797C20.0535 6.82526 20.2967 6.71208 20.5557 6.65697C20.8147 6.60186 21.0829 6.60625 21.3399 6.66981L28.3399 8.41981C28.8116 8.53384 29.2314 8.80268 29.5323 9.18335C29.8332 9.56402 29.9979 10.0346 29.9999 10.5198V22.2398C29.9986 22.5046 29.9372 22.7657 29.8203 23.0033C29.7034 23.2409 29.5341 23.4489 29.3252 23.6116C29.1163 23.7744 28.8732 23.8875 28.6142 23.9426C28.3551 23.9978 28.087 23.9934 27.8299 23.9298L20.8199 22.1898Z" fill="white"/>
<path d="M7.69004 27.5802C7.21283 27.472 6.78621 27.2057 6.47943 26.8244C6.17264 26.4432 6.00371 25.9695 6.00004 25.4802V13.7602C5.9982 13.4915 6.05864 13.226 6.17661 12.9845C6.29458 12.743 6.46689 12.5322 6.68001 12.3684C6.89314 12.2047 7.14129 12.0926 7.40501 12.0409C7.66873 11.9891 7.94085 11.9992 8.20004 12.0702L15.2 13.8102C15.6706 13.9282 16.0885 14.1997 16.3873 14.5819C16.6862 14.9641 16.849 15.4351 16.85 15.9202V27.6402C16.8487 27.905 16.7873 28.1661 16.6704 28.4037C16.5535 28.6413 16.3843 28.8493 16.1753 29.0121C15.9664 29.1748 15.7233 29.2879 15.4643 29.3431C15.2053 29.3982 14.9371 29.3938 14.68 29.3302L7.69004 27.5802Z" fill="white"/>
<path d="M14.2496 24.89C13.779 24.772 13.3612 24.5005 13.0623 24.1183C12.7635 23.7361 12.6006 23.2652 12.5996 22.78V11.06C12.6009 10.7952 12.6624 10.5341 12.7792 10.2965C12.8961 10.0589 13.0654 9.85088 13.2743 9.68817C13.4832 9.52545 13.7264 9.41228 13.9854 9.35717C14.2444 9.30205 14.5125 9.30644 14.7696 9.37L21.7696 11.12C22.2394 11.236 22.657 11.5056 22.9559 11.8861C23.2549 12.2666 23.4181 12.7361 23.4196 13.22V24.94C23.4183 25.2048 23.3569 25.4659 23.24 25.7035C23.1231 25.9411 22.9538 26.1491 22.7449 26.3118C22.536 26.4745 22.2929 26.5877 22.0338 26.6428C21.7748 26.6979 21.5067 26.6936 21.2496 26.63L14.2496 24.89Z" fill="white"/>
<path d="M18.8202 26C18.6709 25.9633 18.5375 25.8791 18.4401 25.7601C18.3427 25.641 18.2866 25.4936 18.2802 25.34L17.9802 16.34C17.9228 15.8097 17.7142 15.3072 17.379 14.8923C17.0439 14.4774 16.5965 14.1676 16.0902 14C16.0663 13.9898 16.0394 13.9893 16.0151 13.9986C15.9908 14.0079 15.9711 14.0264 15.9602 14.05C15.9419 14.0687 15.9316 14.0938 15.9316 14.12C15.9316 14.1461 15.9419 14.1713 15.9602 14.19C16.2258 14.3954 16.4406 14.6592 16.588 14.9609C16.7354 15.2626 16.8114 15.5942 16.8102 15.93V25.52L18.8202 26Z" fill="#0077FF"/>
<path d="M25.3798 23.3298C25.2323 23.2912 25.1011 23.2063 25.0057 23.0874C24.9102 22.9685 24.8556 22.8221 24.8498 22.6698L24.5498 13.6698C24.5022 13.1293 24.2981 12.6144 23.9625 12.1881C23.6268 11.7619 23.1741 11.4427 22.6598 11.2698C22.6401 11.2535 22.6153 11.2446 22.5898 11.2446C22.5643 11.2446 22.5395 11.2535 22.5198 11.2698C22.5015 11.2885 22.4912 11.3136 22.4912 11.3398C22.4912 11.366 22.5015 11.3911 22.5198 11.4098C22.7826 11.6177 22.9954 11.882 23.1425 12.1832C23.2897 12.4843 23.3673 12.8146 23.3698 13.1498V22.7398L25.3798 23.3298Z" fill="#0077FF"/>
<path d="M56.72 20.6802C57.9951 20.4276 59.1429 19.7401 59.9673 18.7351C60.7918 17.7301 61.2416 16.47 61.24 15.1702C61.24 11.8002 58.54 9.43018 54.75 9.43018H48V27.5802H51.12V20.9102H53.32L58.15 27.5802H61.81L56.72 20.6802ZM54.72 12.2602C56.72 12.2602 58.02 13.4502 58.02 15.1702C58.02 16.8902 56.67 18.0802 54.72 18.0802H51.12V12.2602H54.72Z" fill="#222222"/>
<path d="M68.8202 27.8399C69.6268 27.8418 70.4198 27.6335 71.1213 27.2354C71.8227 26.8373 72.4083 26.2633 72.8202 25.5699L73.4202 27.5699H75.6502V14.1899H72.6502V21.9399C72.6849 22.3544 72.633 22.7716 72.4978 23.1649C72.3627 23.5582 72.1472 23.9192 71.8651 24.2248C71.583 24.5304 71.2404 24.774 70.8591 24.9402C70.4778 25.1063 70.0661 25.1914 69.6502 25.1899C69.2419 25.1791 68.8402 25.085 68.4695 24.9135C68.0989 24.7419 67.7672 24.4965 67.4947 24.1922C67.2223 23.8879 67.0148 23.5312 66.8851 23.1439C66.7553 22.7566 66.7061 22.3469 66.7402 21.9399V14.1899H63.7402V22.2799C63.7602 25.4999 65.9402 27.8399 68.8202 27.8399Z" fill="#222222"/>
<path d="M85.1799 27.8398C88.6399 27.8398 91.4899 25.8398 91.4899 22.6398C91.4899 19.0098 88.4899 17.9498 85.9299 17.0798C83.9299 16.4098 82.1999 15.7898 82.1999 14.1698C82.1999 12.7498 83.5199 12.0098 85.0799 12.0098C85.8204 11.9915 86.5487 12.2013 87.1659 12.611C87.783 13.0207 88.2593 13.6103 88.5299 14.2998L91.5299 13.8098C91.1083 12.4229 90.2386 11.2149 89.0569 10.3752C87.8752 9.53555 86.4483 9.11162 84.9999 9.16984C81.6799 9.16984 78.9999 11.0798 78.9999 14.3198C78.9999 17.9998 81.9999 18.9998 84.5599 19.8298C86.5599 20.4798 88.2999 21.0898 88.2999 22.7398C88.2999 24.1798 86.9999 24.9998 85.2099 24.9998C83.2099 24.9998 82.0899 23.9998 81.1299 22.3198L78.1299 22.8298C78.5832 24.3284 79.5217 25.6338 80.7979 26.5408C82.0741 27.4477 83.6156 27.9047 85.1799 27.8398Z" fill="#222222"/>
<path d="M99.6099 25.0001C99.4059 25.0305 99.1977 25.0126 99.0018 24.948C98.806 24.8833 98.628 24.7737 98.4821 24.6279C98.3363 24.482 98.2267 24.304 98.162 24.1082C98.0974 23.9123 98.0796 23.7041 98.1099 23.5001V16.7701H102.11V14.1901H98.1099V10.3301H95.8799L95.1199 14.1901H92.9199V16.7701H95.1199V23.5101C95.1199 26.1401 96.6499 27.5801 99.6099 27.5801H102.13L102.39 25.0101L99.6099 25.0001Z" fill="#222222"/>
<path d="M110.92 27.8399C115.16 27.8399 118.14 24.9499 118.14 20.8899C118.14 16.8299 115.14 13.8899 110.92 13.8899C106.7 13.8899 103.71 16.7699 103.71 20.8899C103.71 25.0099 106.69 27.8399 110.92 27.8399ZM110.92 25.1299C110.365 25.1448 109.814 25.0442 109.301 24.8345C108.787 24.6248 108.323 24.3106 107.937 23.9119C107.552 23.5132 107.253 23.0386 107.061 22.5183C106.869 21.9981 106.786 21.4435 106.82 20.8899C106.793 20.3338 106.878 19.7779 107.072 19.2559C107.266 18.734 107.564 18.2569 107.948 17.8536C108.332 17.4503 108.794 17.1292 109.305 16.9098C109.817 16.6904 110.368 16.5772 110.925 16.5772C111.482 16.5772 112.033 16.6904 112.545 16.9098C113.056 17.1292 113.518 17.4503 113.902 17.8536C114.286 18.2569 114.584 18.734 114.778 19.2559C114.972 19.7779 115.057 20.3338 115.03 20.8899C115.064 21.4444 114.981 21.9998 114.788 22.5208C114.595 23.0417 114.296 23.5168 113.909 23.9157C113.523 24.3146 113.057 24.6285 112.543 24.8376C112.028 25.0466 111.475 25.1462 110.92 25.1299Z" fill="#222222"/>
<path d="M123.72 27.5801V19.6801C123.665 19.3182 123.695 18.9484 123.808 18.6003C123.921 18.2521 124.114 17.9353 124.372 17.675C124.629 17.4146 124.944 17.2181 125.291 17.1009C125.638 16.9837 126.007 16.9492 126.37 17.0001H128.09L127.83 14.1601H127.25C126.51 14.0936 125.767 14.2411 125.11 14.5851C124.452 14.9291 123.907 15.455 123.54 16.1001L123 14.1901H120.77V27.5801H123.72Z" fill="#222222"/>
<path d="M142.78 20.73C142.758 18.8735 142 17.1015 140.673 15.8037C139.345 14.506 137.556 13.7888 135.7 13.81C133.843 13.8312 132.071 14.5891 130.773 15.9168C129.475 17.2446 128.758 19.0335 128.78 20.89C128.74 21.8199 128.894 22.7478 129.232 23.615C129.569 24.4822 130.084 25.2698 130.742 25.9279C131.4 26.586 132.187 27.1002 133.055 27.4379C133.922 27.7757 134.85 27.9296 135.78 27.89C138.58 27.89 141.23 26.57 142.24 24.03L139.44 23.56C139.034 24.0786 138.51 24.492 137.911 24.7653C137.313 25.0386 136.657 25.1637 136 25.13C135.007 25.1924 134.029 24.8695 133.269 24.2287C132.509 23.5879 132.026 22.6785 131.92 21.69H142.78C142.75 21.4 142.78 21.09 142.78 20.73ZM135.78 16.51C136.635 16.4995 137.47 16.7753 138.151 17.2934C138.833 17.8116 139.321 18.5425 139.54 19.37H132.06C132.266 18.5456 132.745 17.815 133.418 17.2961C134.091 16.7771 134.92 16.5002 135.77 16.51H135.78Z" fill="#222222"/>
</svg>
