<svg width="30" height="30" viewBox="0 0 30 30" fill="none" xmlns="http://www.w3.org/2000/svg">
<path fill-rule="evenodd" clip-rule="evenodd" d="M14.4 30C7.60833 30 4.21667 30 2.10833 27.8917C0 25.7833 0 22.3917 0 15.6V14.4C0 7.60833 0 4.21667 2.10833 2.10833C4.21667 0 7.60833 0 14.4 0H15.6C22.3917 0 25.7833 0 27.8917 2.10833C30 4.21667 30 7.60833 30 14.4V15.6C30 22.3917 30 25.7833 27.8917 27.8917C25.7833 30 22.3917 30 15.6 30H14.4Z" fill="#0077FF"/>
<path d="M17.3501 18.4917C16.9579 18.3934 16.6097 18.1671 16.3607 17.8486C16.1116 17.5301 15.9759 17.1377 15.9751 16.7334V6.96671C15.9762 6.74603 16.0274 6.52849 16.1248 6.33047C16.2222 6.13244 16.3632 5.95911 16.5373 5.82351C16.7115 5.68792 16.9141 5.59361 17.1299 5.54768C17.3458 5.50175 17.5692 5.50541 17.7834 5.55837L23.6168 7.01671C24.0098 7.11174 24.3597 7.33577 24.6104 7.65299C24.8612 7.97022 24.9984 8.36234 25.0001 8.76671V18.5334C24.999 18.754 24.9478 18.9716 24.8504 19.1696C24.753 19.3676 24.612 19.541 24.4378 19.6766C24.2637 19.8122 24.0611 19.9065 23.8453 19.9524C23.6294 19.9983 23.406 19.9947 23.1918 19.9417L17.3501 18.4917Z" fill="white"/>
<path d="M6.40837 22.9833C6.0107 22.8931 5.65518 22.6712 5.39952 22.3535C5.14387 22.0358 5.00309 21.6411 5.00003 21.2333V11.4666C4.9985 11.2427 5.04886 11.0214 5.14717 10.8202C5.24549 10.619 5.38907 10.4433 5.56668 10.3068C5.74428 10.1704 5.95107 10.077 6.17084 10.0338C6.39061 9.99072 6.61738 9.9991 6.83337 10.0583L12.6667 11.5083C13.0589 11.6066 13.4071 11.8329 13.6561 12.1514C13.9052 12.4699 14.0408 12.8623 14.0417 13.2666V23.0333C14.0406 23.254 13.9894 23.4715 13.892 23.6696C13.7946 23.8676 13.6536 24.0409 13.4795 24.1765C13.3053 24.3121 13.1027 24.4064 12.8869 24.4523C12.671 24.4983 12.4476 24.4946 12.2334 24.4416L6.40837 22.9833Z" fill="white"/>
<path d="M11.8745 20.7416C11.4823 20.6434 11.1342 20.417 10.8851 20.0986C10.6361 19.7801 10.5004 19.3876 10.4995 18.9833V9.21665C10.5006 8.99597 10.5518 8.77843 10.6492 8.58041C10.7466 8.38238 10.8877 8.20905 11.0618 8.07345C11.2359 7.93786 11.4385 7.84355 11.6543 7.79762C11.8702 7.75169 12.0936 7.75535 12.3078 7.80831L18.1412 9.26665C18.5327 9.36328 18.8806 9.58799 19.1298 9.90507C19.3789 10.2221 19.5149 10.6134 19.5162 11.0166V20.7833C19.5151 21.004 19.4639 21.2215 19.3665 21.4196C19.2691 21.6176 19.128 21.7909 18.9539 21.9265C18.7798 22.0621 18.5772 22.1564 18.3614 22.2023C18.1455 22.2483 17.9221 22.2446 17.7078 22.1916L11.8745 20.7416Z" fill="white"/>
<path d="M15.6835 21.6667C15.5591 21.6361 15.4479 21.5659 15.3668 21.4667C15.2856 21.3676 15.2388 21.2447 15.2335 21.1167L14.9835 13.6167C14.9357 13.1748 14.7618 12.756 14.4825 12.4102C14.2033 12.0645 13.8304 11.8064 13.4085 11.6667C13.3886 11.6582 13.3661 11.6577 13.3459 11.6655C13.3257 11.6733 13.3093 11.6887 13.3002 11.7083C13.2849 11.7239 13.2764 11.7448 13.2764 11.7667C13.2764 11.7885 13.2849 11.8094 13.3002 11.825C13.5215 11.9962 13.7005 12.216 13.8233 12.4674C13.9462 12.7189 14.0095 12.9952 14.0085 13.275V21.2667L15.6835 21.6667Z" fill="#0077FF"/>
<path d="M21.1498 19.4417C21.0269 19.4096 20.9176 19.3387 20.8381 19.2397C20.7585 19.1406 20.713 19.0186 20.7082 18.8917L20.4582 11.3917C20.4185 10.9413 20.2484 10.5122 19.9687 10.157C19.689 9.80175 19.3117 9.5358 18.8832 9.39168C18.8667 9.37814 18.8461 9.37073 18.8248 9.37073C18.8035 9.37073 18.7829 9.37814 18.7665 9.39168C18.7512 9.40726 18.7427 9.4282 18.7427 9.45002C18.7427 9.47183 18.7512 9.49277 18.7665 9.50835C18.9855 9.68165 19.1629 9.9019 19.2855 10.1528C19.408 10.4038 19.4728 10.6791 19.4748 10.9583V18.95L21.1498 19.4417Z" fill="#0077FF"/>
</svg>
