<svg width="160" height="160" viewBox="0 0 160 160" fill="none" xmlns="http://www.w3.org/2000/svg">
<mask id="mask0_1385_3854" style="mask-type:alpha" maskUnits="userSpaceOnUse" x="0" y="0" width="160" height="160">
<rect width="160" height="160" fill="#D9D9D9"/>
</mask>
<g mask="url(#mask0_1385_3854)">
<path d="M58.666 131.333L28.666 101.333V58.6665L58.666 28.6665H101.333L131.333 58.6665V101.333L101.333 131.333H58.666ZM60.9994 102.333L79.9994 83.3332L98.9994 102.333L102.333 98.9998L83.3327 79.9998L102.333 60.9998L98.9994 57.6665L79.9994 76.6665L60.9994 57.6665L57.666 60.9998L76.666 79.9998L57.666 98.9998L60.9994 102.333ZM60.666 126.667H99.3327L126.666 99.3332V60.6665L99.3327 33.3332H60.666L33.3327 60.6665V99.3332L60.666 126.667Z" fill="#BC3F46"/>
</g>
</svg>
