<svg xmlns="http://www.w3.org/2000/svg" width="16" height="17" viewBox="0 0 268.8 289.41"><path fill="#03a9f4" d="M248.8,35h-22V20a20,20,0,0,0-20-20H206a20,20,0,0,0-20,20V35H82.8V20a20,20,0,0,0-20-20H62A20,20,0,0,0,42,20V35H20A20,20,0,0,0,0,55v214.4a20,20,0,0,0,20,20H248.8a20,20,0,0,0,20-20V55a20,20,0,0,0-20-20Zm-13.6,222.8H33.6V95.41H235.2Zm0,0"/><path fill="#03a9f4" d="M61,168.91H95.8a3.2,3.2,0,0,0,3.2-3.2v-34.8a3.2,3.2,0,0,0-3.2-3.2H61a3.2,3.2,0,0,0-3.2,3.2v34.8a3.2,3.2,0,0,0,3.2,3.2Zm0,0"/><path fill="#03a9f4" d="M117,168.91h34.8a3.2,3.2,0,0,0,3.2-3.2v-34.8a3.2,3.2,0,0,0-3.2-3.2H117a3.2,3.2,0,0,0-3.2,3.2v34.8a3.2,3.2,0,0,0,3.2,3.2Zm0,0"/><path fill="#03a9f4" d="M173,168.91h34.8a3.2,3.2,0,0,0,3.2-3.2v-34.8a3.2,3.2,0,0,0-3.2-3.2H173a3.2,3.2,0,0,0-3.2,3.2v34.8a3.2,3.2,0,0,0,3.2,3.2Zm0,0"/><path fill="#03a9f4" d="M61,224.91H95.8a3.2,3.2,0,0,0,3.2-3.2v-34.8a3.2,3.2,0,0,0-3.2-3.2H61a3.2,3.2,0,0,0-3.2,3.2v34.8a3.2,3.2,0,0,0,3.2,3.2Zm0,0"/><path fill="#03a9f4" d="M117,224.91h34.8a3.2,3.2,0,0,0,3.2-3.2v-34.8a3.2,3.2,0,0,0-3.2-3.2H117a3.2,3.2,0,0,0-3.2,3.2v34.8a3.2,3.2,0,0,0,3.2,3.2Zm0,0"/><path fill="#03a9f4" d="M173,224.91h34.8a3.2,3.2,0,0,0,3.2-3.2v-34.8a3.2,3.2,0,0,0-3.2-3.2H173a3.2,3.2,0,0,0-3.2,3.2v34.8a3.2,3.2,0,0,0,3.2,3.2Zm0,0"/></svg>