<svg width="25" height="30" viewBox="0 0 25 30" fill="none" xmlns="http://www.w3.org/2000/svg">
<path d="M23.6113 10.228C23.4375 10.363 20.3696 12.0942 20.3696 15.9436C20.3696 20.396 24.2734 21.9712 24.3902 22.0102C24.3723 22.1062 23.7701 24.1674 22.332 26.2676C21.0497 28.1158 19.7105 29.961 17.6733 29.961C15.636 29.961 15.1117 28.7759 12.7599 28.7759C10.4679 28.7759 9.65304 30 7.78954 30C5.92604 30 4.62579 28.2898 3.1308 26.1896C1.39912 23.7234 0 19.892 0 16.2556C0 10.423 3.78691 7.32973 7.51391 7.32973C9.49425 7.32973 11.145 8.63186 12.3884 8.63186C13.5718 8.63186 15.4173 7.25173 17.6703 7.25173C18.5241 7.25173 21.592 7.32973 23.6113 10.228ZM16.6007 4.78248C17.5325 3.67537 18.1916 2.13921 18.1916 0.60306C18.1938 0.400595 18.1747 0.198458 18.1346 0C16.6187 0.0570057 14.8151 1.0111 13.7276 2.27423C12.8737 3.24632 12.0768 4.78248 12.0768 6.33963C12.0778 6.52209 12.0968 6.704 12.1337 6.88269C12.2681 6.90756 12.4045 6.92061 12.5412 6.92169C13.9013 6.92169 15.612 6.0096 16.6007 4.78248Z" fill="white"/>
</svg>
