<svg id="Layer_1" data-name="Layer 1" xmlns="http://www.w3.org/2000/svg" viewBox="0 0 115.92 62.56"><defs><style>.cls-1,.cls-2{fill:#fff;}.cls-2{stroke:#fff;stroke-width:0.43px;}</style></defs><title>logo</title><path class="cls-1" d="M16.32,62.64a8.75,8.75,0,0,1-2.77.46C10.88,63.1,8,61.58,8,57.68c0-3.69,2.6-5.55,6-5.55a7.35,7.35,0,0,1,2.37.37l-.09,1.84a5.77,5.77,0,0,0-2.13-.4,3.52,3.52,0,0,0-3.83,3.71,3.38,3.38,0,0,0,3.68,3.65,5.38,5.38,0,0,0,2.24-.47Z" transform="translate(0 -0.54)"/><path class="cls-1" d="M25.14,52.26v1.9H22V63H19.87V54.15H16.77v-1.9Z" transform="translate(0 -0.54)"/><path class="cls-1" d="M29.61,52.26c3.89,0,4.12,2.68,4.12,3.35A3.38,3.38,0,0,1,30,58.95H28.62v4H26.44V52.26Zm0,5a1.67,1.67,0,0,0,1.83-1.72c0-.89-.57-1.61-1.83-1.61h-1v3.33Z" transform="translate(0 -0.54)"/><path class="cls-1" d="M40,52.26,44.27,63H41.82l-.9-2.42H36.49L35.58,63H33.25l4.27-10.72Zm.26,6.54-1.58-4.38h0l-1.49,4.38Z" transform="translate(0 -0.54)"/><path class="cls-1" d="M47.17,52.26l1.72,3,.49.9h0l.49-.9,1.76-3h2.37l-3.26,5.12L54.37,63H51.8l-2.05-3.4-.46-.83h0l-.46.83L46.65,63H44.28l3.58-5.61L44.6,52.26Z" transform="translate(0 -0.54)"/><path class="cls-1" d="M65,57.62c0,3.89-2.61,5.48-5.25,5.48s-5.25-1.59-5.25-5.48,2.6-5.48,5.25-5.48S65,53.72,65,57.62Zm-8.21,0c0,3.63,2.14,4,3,4s3-.32,3-4-2.15-4-3-4S56.76,54,56.76,57.62Z" transform="translate(0 -0.54)"/><path class="cls-1" d="M70.25,52.26c2.08,0,3.57.84,3.57,2.65a2.36,2.36,0,0,1-1.75,2.47v0A2.51,2.51,0,0,1,74.33,60c0,1.33-.78,3-4.21,3H66.73V52.26ZM68.9,56.61H70c1.41,0,1.67-.86,1.67-1.33,0-.31-.08-1.34-1.76-1.34h-1Zm0,4.69h1.21c1.36,0,1.92-.73,1.92-1.5s-.42-1.5-1.92-1.5H68.9Z" transform="translate(0 -0.54)"/><path class="cls-1" d="M81.68,52.26,85.94,63H83.48l-.9-2.42H78.15L77.25,63H74.92L79.2,52.26Zm.26,6.54-1.58-4.38h0l-1.49,4.38Z" transform="translate(0 -0.54)"/><path class="cls-1" d="M89.41,52.26v4.32h4.35V52.26h2.18V63H93.76V58.33H89.41V63H87.24V52.26Z" transform="translate(0 -0.54)"/><path class="cls-1" d="M100.25,52.26v5.51l0,2.6h0l.76-1.56,3.75-6.55h2.6V63H105.2V57.44l0-2.58h0l-.74,1.62L100.68,63h-2.6V52.26Z" transform="translate(0 -0.54)"/><path class="cls-1" d="M115.92,52.26v1.9h-4.23v2.42h3.85v1.76h-3.85v2.75h4.23V63h-6.4V52.26Z" transform="translate(0 -0.54)"/><path class="cls-1" d="M61.84,47.65a19,19,0,0,1-6,1c-5.74,0-12-3.26-12-11.69C43.84,29,49.45,25,56.72,25a16.33,16.33,0,0,1,5.13.79l-.21,4a12.14,12.14,0,0,0-4.58-.86c-5.18,0-8.25,3.27-8.25,8,0,5.58,3.76,7.86,7.92,7.86a11.6,11.6,0,0,0,4.82-1Z" transform="translate(0 -0.54)"/><path class="cls-1" d="M115.92,25.27V48.38h-4.68V29.07h-9.16V48.38H97.39V25.27Z" transform="translate(0 -0.54)"/><polygon class="cls-1" points="84.13 24.73 78.42 41.32 72.73 24.73 64.8 24.73 64.8 47.84 69.49 47.84 69.49 28.03 69.53 28.03 76.21 47.84 80.66 47.84 87.33 28.03 87.36 28.03 87.36 47.84 92.04 47.84 92.04 24.73 84.13 24.73"/><path class="cls-1" d="M43.67,1.82c-.26-.3-3.56,1.36-3.56,1.36l.15-.1c.66-.41,1.68-1,1.3-1.48-.19-.24-.64-.13-1.9.64-.58.37-3.69,1.69-6.89,3.08-2.65,1.18-7.44,3.3-7.88,3.79,0,0,0,0,0,0s-.08.17-.13.27a9.15,9.15,0,0,0-.49,1.69l0,.07a.61.61,0,0,0,0,.14c-.2,1-.37,2.16-.56,3.48-.58,4-1.15,9.93-1.15,9.93a57.38,57.38,0,0,1-.52,6,4.9,4.9,0,0,1-.23.8c0,.09-.05.2-.09.29h0a2.65,2.65,0,0,1-.54,1c-.74.83-2.55.56-3.06.5a4.85,4.85,0,0,1-2.49-1.21,3.3,3.3,0,0,0-2-1.44c-.31,0-1.58.2-2,.18s-1-.6-1.65-.68a3.56,3.56,0,0,0-1.72.6,13.66,13.66,0,0,1,2.91,1.43,6.13,6.13,0,0,0,2.05,2c.95.44,4.25,4.27,4.25,4.27a21.05,21.05,0,0,0,1.81,1.62,14.17,14.17,0,0,1-3.09.73A12.91,12.91,0,0,1,1.53,29.23a13.1,13.1,0,0,1,.33-4.78,12.92,12.92,0,0,1,2.39-5.19,13.15,13.15,0,0,1,8.91-5.07,13.49,13.49,0,0,1,6.46.91c0-.24,0-.47,0-.71A13.86,13.86,0,0,0,.82,25.72a9.83,9.83,0,0,0-.11,1.07,22.06,22.06,0,0,0,.06,3.4A13.69,13.69,0,0,0,20.37,41a21.4,21.4,0,0,0,3.84,2.27C27.74,44.81,32.08,45,33,45.11c2,.27,3.83,2.85,4.4,3.37s4.34-.3,4.34-.3a11.21,11.21,0,0,1-.42-1.78c-.17-1-1.26-1.44-1.46-1.69s-5.1-2.49-5.87-3a9.3,9.3,0,0,1-2.78-3.24,3.71,3.71,0,0,1-.42-3.37c.2-.32.58-.39.8-.83s.07-.47,0-.68.07-.39.28-.76.12-.35.12-.35l0-.46c.05-.47,0,0,.09-.16l.09-.17a.65.65,0,0,1,.07-.39c.08-.16-.12-.33-.07-.52s.09-.17.15-.54a2.41,2.41,0,0,0,0-.6c0-.42.11-.23.32-.46s-.21-.54-.21-.54a5.48,5.48,0,0,1,.37-.91c.32-.74,0,0,.08-.3s-.11-.56-.15-.85,0-.2.09-.58,0,0,.13-.35a.86.86,0,0,0,.07-.53L33,24.38l.11-.2a1.13,1.13,0,0,0,0-.65l-.3-.86a3.64,3.64,0,0,1,0-.6A5.25,5.25,0,0,0,32.56,21l.2-.87-.29-1.28-.18-1.08s0-1.62,0-2.26a17.39,17.39,0,0,1,.11-2.25c.1-.85,2.56-1.88,2.82-2.39s-1.49,0-1.49,0S36.76,10,37,9.64s-2,.14-2,.14h0a11.71,11.71,0,0,0,3.81-1.39c.87-.76-1.49-.18-1.87-.08.38-.11,3-.81,3.33-1.59.21-.44-1.94-.12-1.94-.12a17.51,17.51,0,0,0,3.13-1C43,4.78,43,4.21,42.73,4a12.28,12.28,0,0,0-2.84.7l-.13,0,.13,0a11.61,11.61,0,0,0,2-.95C42.87,3.14,44.08,2.33,43.67,1.82Zm-4,1.57A2.45,2.45,0,0,1,40,3.23,3.13,3.13,0,0,0,39.7,3.39Z" transform="translate(0 -0.54)"/><path class="cls-2" d="M37.1.81c-.23-.28-1.8.51-1.8.51s-9.58,4.61-13.8,6.9a3.2,3.2,0,0,0-2,2.75,135.27,135.27,0,0,0,1.38,15.48c.47,3.69.79,5.23.77,5.35A11.3,11.3,0,0,0,22,30.7a57.38,57.38,0,0,0,.52-6s.57-5.94,1.15-9.93c.38-2.66.71-4.8,1.24-5.67.34-.54,8.07-3.86,9.42-4.49,1.66-.77,1.83-1,1.87-1.52s-1.73.06-1.73.06S35.94,2.36,36.48,2,37.35,1.08,37.1.81ZM5.19,18.16l2.48-3.52-3,3L3.27,12.58l.24,5.16L1,16.06l2.3,2.4-3.23.89,3.28-.16L.63,23l3.21-3.2,1.33,4.7L5,19.77l2.42,1.59L5,18.93,8.26,18Z" transform="translate(0 -0.54)"/></svg>