<svg width="120" height="42" viewBox="0 0 120 42" fill="none" xmlns="http://www.w3.org/2000/svg">
<path d="M109.886 10.2725H104.119V6.43849H111.158L116.93 0.666421L116.977 0.718042V0.652344H97.3613V26.3779H110.205C115.367 26.3779 119.215 23.7969 119.215 18.3346C119.215 12.8722 115.358 10.2725 109.886 10.2725ZM109.243 20.8921H104.119V15.7301H109.243C110.834 15.7301 112.448 16.3589 112.448 18.2923C112.448 20.2257 110.834 20.9109 109.243 20.9109V20.8921Z" fill="white"/>
<path d="M68.082 0.652344H53.0136L44.2852 9.38083V26.3779H51.038V6.43849H61.3292V26.3779H61.3433L68.082 19.6392V0.652344Z" fill="white"/>
<path d="M84.6094 20.8968C80.1044 20.8968 77.5703 17.6119 77.5703 13.5057C77.5703 10.2208 79.4146 6.10997 84.4827 6.10997C85.6163 6.11799 86.7344 6.37424 87.7584 6.86067C88.7823 7.34711 89.6873 8.05194 90.4097 8.92561L94.5205 4.81946C93.2522 3.30697 91.6673 2.09141 89.8777 1.25864C88.0881 0.425875 86.1375 -0.00378012 84.1636 2.50557e-05C76.7022 2.50557e-05 70.8363 5.52338 70.8363 13.5057C70.8168 16.3417 71.6978 19.1107 73.3524 21.414C75.007 23.7174 77.3498 25.4363 80.0436 26.3232C82.7373 27.2102 85.6431 27.2195 88.3424 26.3497C91.0418 25.48 93.3956 23.7761 95.0649 21.4834L90.9306 17.3538C90.2764 18.4433 89.3491 19.3433 88.2405 19.9647C87.1319 20.5861 85.8803 20.9074 84.6094 20.8968Z" fill="white"/>
<path d="M44.2848 35.646C44.2758 35.1604 44.3652 34.678 44.5477 34.228C44.7303 33.778 45.0021 33.3696 45.3468 33.0275C45.6915 32.6854 46.102 32.4167 46.5534 32.2377C47.0048 32.0586 47.4878 31.9729 47.9733 31.9856C48.5855 31.9754 49.1895 32.1277 49.7237 32.4269C50.2579 32.7262 50.7032 33.1617 51.0142 33.6891L50.5449 33.9613C50.2874 33.5101 49.9131 33.1365 49.4615 32.8797C49.0098 32.6229 48.4974 32.4924 47.978 32.5018C47.5552 32.4855 47.1334 32.5546 46.738 32.7052C46.3426 32.8557 45.9816 33.0845 45.6767 33.3778C45.3718 33.6712 45.1292 34.0231 44.9635 34.4124C44.7978 34.8017 44.7124 35.2205 44.7124 35.6436C44.7124 36.0667 44.7978 36.4855 44.9635 36.8748C45.1292 37.2641 45.3718 37.616 45.6767 37.9094C45.9816 38.2027 46.3426 38.4315 46.738 38.582C47.1334 38.7326 47.5552 38.8017 47.978 38.7854C48.5034 38.7954 49.0217 38.6623 49.4772 38.4002C49.9327 38.1382 50.3083 37.7571 50.5637 37.2978L51.033 37.57C50.7239 38.1054 50.2772 38.5484 49.7392 38.8529C49.2012 39.1574 48.5914 39.3123 47.9733 39.3016C47.4882 39.3143 47.0056 39.2287 46.5545 39.05C46.1034 38.8712 45.6932 38.6029 45.3485 38.2613C45.0039 37.9198 44.732 37.5119 44.5491 37.0624C44.3663 36.613 44.2764 36.1311 44.2848 35.646Z" fill="white"/>
<path d="M47.9737 39.6535C47.4356 39.6719 46.8992 39.5818 46.3967 39.3886C45.8941 39.1954 45.4355 38.903 45.0483 38.5288C44.6611 38.1546 44.3532 37.7063 44.1429 37.2106C43.9326 36.715 43.8242 36.182 43.8242 35.6436C43.8242 35.1051 43.9326 34.5722 44.1429 34.0765C44.3532 33.5808 44.6611 33.1325 45.0483 32.7584C45.4355 32.3842 45.8941 32.0918 46.3967 31.8985C46.8992 31.7053 47.4356 31.6152 47.9737 31.6336C48.6473 31.6246 49.3113 31.7934 49.8987 32.1229C50.4862 32.4525 50.9763 32.9312 51.3196 33.5107L51.4933 33.8158L50.3999 34.4399L50.2309 34.1208C50.0013 33.7277 49.6712 33.4027 49.2745 33.1793C48.8779 32.9558 48.4289 32.8418 47.9737 32.8491C47.5977 32.8336 47.2225 32.8944 46.8706 33.0276C46.5186 33.1609 46.1973 33.3639 45.9258 33.6245C45.6543 33.885 45.4383 34.1978 45.2907 34.544C45.1432 34.8902 45.0671 35.2626 45.0671 35.6389C45.0671 36.0152 45.1432 36.3876 45.2907 36.7338C45.4383 37.08 45.6543 37.3927 45.9258 37.6533C46.1973 37.9139 46.5186 38.1169 46.8706 38.2502C47.2225 38.3834 47.5977 38.4441 47.9737 38.4287C48.4349 38.4365 48.8896 38.3199 49.2901 38.0912C49.6906 37.8624 50.0221 37.53 50.2497 37.1288L50.4186 36.805L51.5073 37.4339L51.3431 37.7342C51.0047 38.3264 50.5135 38.8169 49.9208 39.1545C49.3281 39.4921 48.6557 39.6644 47.9737 39.6535Z" fill="white"/>
<path d="M57.0642 32.6051H54.8351V39.1749H54.2908V32.6051H52.0664V32.0983H57.0689L57.0642 32.6051Z" fill="white"/>
<path d="M55.1824 39.541H53.9341V32.9571H51.7051V31.7463H57.4161V32.9571H55.1824V39.541Z" fill="white"/>
<path d="M63.3296 34.2946C63.3367 34.5856 63.2845 34.8749 63.176 35.145C63.0675 35.415 62.9051 35.6601 62.6986 35.8653C62.4922 36.0704 62.246 36.2313 61.9753 36.338C61.7045 36.4448 61.4149 36.4952 61.124 36.4862H59.2469V39.1892H58.7119V32.0984H61.124C61.4153 32.0894 61.7054 32.1399 61.9764 32.247C62.2475 32.354 62.4939 32.5153 62.7004 32.721C62.9069 32.9266 63.0692 33.1722 63.1774 33.4429C63.2856 33.7135 63.3374 34.0033 63.3296 34.2946ZM62.7946 34.2946C62.8037 34.072 62.7669 33.8498 62.6864 33.6419C62.6059 33.4341 62.4835 33.245 62.3268 33.0865C62.1701 32.9281 61.9824 32.8035 61.7755 32.7207C61.5686 32.6379 61.3468 32.5986 61.124 32.6053H59.2469V35.9793H61.124C61.3446 35.9834 61.5637 35.9422 61.7679 35.8585C61.972 35.7748 62.1569 35.6502 62.3111 35.4924C62.4654 35.3347 62.5857 35.147 62.6649 34.9411C62.744 34.7351 62.7801 34.5151 62.7711 34.2946H62.7946Z" fill="white"/>
<path d="M59.5748 39.5409H58.3359V31.7463H61.1C61.4435 31.7316 61.7864 31.7865 62.1082 31.9078C62.4299 32.0291 62.7238 32.2142 62.972 32.452C63.2203 32.6899 63.4179 32.9755 63.5529 33.2918C63.6879 33.608 63.7574 33.9483 63.7574 34.2921C63.7574 34.6359 63.6879 34.9762 63.5529 35.2925C63.4179 35.6087 63.2203 35.8943 62.972 36.1322C62.7238 36.37 62.4299 36.5552 62.1082 36.6765C61.7864 36.7978 61.4435 36.8527 61.1 36.8379H59.5748V39.5409ZM59.5748 35.6272H61.1C61.4404 35.607 61.7602 35.4576 61.9941 35.2094C62.228 34.9612 62.3582 34.6331 62.3582 34.2921C62.3582 33.9511 62.228 33.623 61.9941 33.3748C61.7602 33.1267 61.4404 32.9772 61.1 32.957H59.5748V35.6272Z" fill="white"/>
<path d="M68.5132 37.387H64.9561L64.2663 39.189H63.7031L66.4578 32.0983H67.0256L69.7708 39.189H69.203L68.5132 37.387ZM68.3208 36.8802L66.744 32.7553L65.1626 36.8802H68.3208Z" fill="white"/>
<path d="M70.2819 39.541H68.9586L68.2688 37.739H65.2044L64.5146 39.541H63.1865L66.218 31.7463H67.2645L70.2819 39.541ZM65.6737 36.5517H67.8183L66.7389 33.7361L65.6737 36.5517Z" fill="white"/>
<path d="M75.3883 39.189L73.3376 36.0308L71.3056 39.189H70.6768L73.0231 35.5427L70.7941 32.0983H71.4135L73.3376 35.0688L75.2522 32.0983H75.8716L73.652 35.5427L75.9983 39.189H75.3883Z" fill="white"/>
<path d="M76.6465 39.541H75.1917L73.3381 36.6737L71.4798 39.541H70.0156L72.606 35.5428L70.147 31.7463H71.6018L73.3381 34.4212L75.0603 31.7463H76.5151L74.0608 35.5428L76.6465 39.541Z" fill="white"/>
<path d="M76.9375 35.646C76.9366 34.9216 77.1506 34.2133 77.5525 33.6106C77.9543 33.008 78.5259 32.5381 79.195 32.2605C79.864 31.9829 80.6004 31.91 81.3108 32.0511C82.0213 32.1921 82.6739 32.5409 83.1861 33.053C83.6983 33.5652 84.047 34.2179 84.1881 34.9283C84.3292 35.6388 84.2563 36.3752 83.9787 37.0442C83.7011 37.7132 83.2312 38.2849 82.6285 38.6867C82.0259 39.0886 81.3175 39.3026 80.5932 39.3016C80.1124 39.3041 79.6359 39.2113 79.1913 39.0284C78.7466 38.8456 78.3427 38.5764 78.0027 38.2365C77.6628 37.8965 77.3936 37.4925 77.2107 37.0479C77.0279 36.6032 76.9351 36.1267 76.9375 35.646ZM83.7139 35.646C83.7102 35.0296 83.524 34.4281 83.1788 33.9174C82.8337 33.4067 82.345 33.0096 81.7745 32.7763C81.2039 32.543 80.5771 32.4838 79.973 32.6064C79.3689 32.7289 78.8146 33.0276 78.38 33.4647C77.9454 33.9019 77.6501 34.458 77.5312 35.0628C77.4123 35.6676 77.4752 36.2941 77.7119 36.8633C77.9487 37.4324 78.3486 37.9187 78.8614 38.2608C79.3742 38.6029 79.9768 38.7854 80.5932 38.7854C81.0035 38.7848 81.4097 38.7029 81.7882 38.5445C82.1667 38.386 82.5101 38.1542 82.7985 37.8623C83.087 37.5704 83.3147 37.2242 83.4685 36.8438C83.6224 36.4634 83.6994 36.0563 83.6951 35.646H83.7139Z" fill="white"/>
<path d="M80.5738 39.6536C79.7801 39.6536 79.0041 39.4181 78.3442 38.977C77.6843 38.5359 77.17 37.909 76.8665 37.1756C76.5629 36.4422 76.4838 35.6352 76.639 34.8568C76.7942 34.0783 77.1767 33.3634 77.7383 32.8025C78.2999 32.2415 79.0153 31.8598 79.7939 31.7055C80.5726 31.5512 81.3794 31.6313 82.1125 31.9357C82.8456 32.2401 83.4719 32.7551 83.9122 33.4156C84.3525 34.076 84.587 34.8522 84.5861 35.646C84.5918 36.1742 84.4918 36.6983 84.2921 37.1874C84.0924 37.6764 83.797 38.1207 83.4232 38.494C83.0495 38.8674 82.6049 39.1623 82.1156 39.3614C81.6262 39.5605 81.1021 39.6598 80.5738 39.6536ZM80.5738 32.8538C80.0208 32.8501 79.4791 33.0107 79.0175 33.3152C78.5558 33.6197 78.195 34.0545 77.9808 34.5644C77.7666 35.0742 77.7086 35.6362 77.8142 36.1791C77.9199 36.7219 78.1843 37.2212 78.574 37.6136C78.9637 38.006 79.4612 38.2738 80.0034 38.383C80.5455 38.4923 81.1079 38.4381 81.6192 38.2273C82.1305 38.0166 82.5677 37.6587 82.8753 37.1991C83.183 36.7396 83.3472 36.199 83.3472 35.646C83.3528 35.2793 83.2851 34.9152 83.148 34.5751C83.0108 34.2351 82.8071 33.9258 82.5487 33.6657C82.2902 33.4055 81.9824 33.1997 81.6432 33.0602C81.3041 32.9208 80.9405 32.8506 80.5738 32.8538Z" fill="white"/>
<path d="M91.0954 37.2556C91.096 37.5101 91.0463 37.7621 90.9491 37.9973C90.8518 38.2325 90.709 38.446 90.5289 38.6258C90.3487 38.8055 90.1348 38.9478 89.8994 39.0444C89.664 39.1411 89.4118 39.1902 89.1573 39.189H86.0977V32.0983H88.9133C89.4111 32.0983 89.8886 32.296 90.2406 32.6481C90.5926 33.0001 90.7904 33.4775 90.7904 33.9754C90.7953 34.2922 90.713 34.6042 90.5524 34.8774C90.3918 35.1505 90.1592 35.3742 89.88 35.524C90.2332 35.657 90.5381 35.8933 90.7549 36.2022C90.9717 36.5111 91.0904 36.8782 91.0954 37.2556ZM86.6373 32.6051V35.3175H88.9274C89.287 35.3175 89.632 35.1746 89.8864 34.9203C90.1407 34.6659 90.2836 34.321 90.2836 33.9613C90.2836 33.6016 90.1407 33.2566 89.8864 33.0023C89.632 32.748 89.287 32.6051 88.9274 32.6051H86.6373ZM90.5464 37.2556C90.5495 37.0687 90.5154 36.8832 90.446 36.7096C90.3766 36.5361 90.2735 36.3781 90.1424 36.2449C90.0114 36.1117 89.8551 36.0059 89.6828 35.9337C89.5104 35.8615 89.3254 35.8243 89.1385 35.8243H86.6185V38.6822H89.1385C89.325 38.6822 89.5096 38.6452 89.6817 38.5732C89.8537 38.5013 90.0097 38.3959 90.1407 38.2632C90.2717 38.1305 90.375 37.9731 90.4446 37.8001C90.5143 37.6271 90.5488 37.442 90.5464 37.2556Z" fill="white"/>
<path d="M89.1392 39.541H85.7275V31.7463H88.9092C89.4963 31.7476 90.0589 31.9813 90.4741 32.3965C90.8892 32.8116 91.1229 33.3742 91.1242 33.9613C91.1267 34.2406 91.0736 34.5176 90.9681 34.7762C90.8625 35.0348 90.7066 35.2699 90.5094 35.4677C90.7978 35.6686 91.0336 35.9359 91.1969 36.2471C91.3603 36.5583 91.4464 36.9042 91.448 37.2556C91.4474 37.5575 91.3871 37.8564 91.2705 38.1349C91.154 38.4134 90.9835 38.6662 90.769 38.8786C90.5544 39.091 90.2999 39.2588 90.0202 39.3725C89.7405 39.4862 89.4411 39.5434 89.1392 39.541ZM86.9664 38.3349H89.1392C89.4254 38.3349 89.7 38.2212 89.9024 38.0188C90.1048 37.8164 90.2185 37.5419 90.2185 37.2556C90.2185 36.9694 90.1048 36.6948 89.9024 36.4924C89.7 36.29 89.4254 36.1763 89.1392 36.1763H86.9664V38.3349ZM86.9664 34.9703H88.9092C89.1643 34.9528 89.4033 34.8392 89.5778 34.6523C89.7523 34.4655 89.8494 34.2193 89.8494 33.9637C89.8494 33.708 89.7523 33.4618 89.5778 33.275C89.4033 33.0881 89.1643 32.9745 88.9092 32.9571H86.9664V34.9703Z" fill="white"/>
<path d="M97.0032 37.387H93.4461L92.7563 39.189H92.1885L94.9431 32.0983H95.5109L98.2562 39.189H97.6884L97.0032 37.387ZM96.8108 36.8802L95.2388 32.7553L93.6573 36.8802H96.8108Z" fill="white"/>
<path d="M98.7722 39.541H97.4488L96.759 37.739H93.6853L92.9954 39.541H91.6768L94.7036 31.7463H95.7501L98.7722 39.541ZM94.1592 36.5517H96.2991L95.2386 33.7361L94.1592 36.5517Z" fill="white"/>
<path d="M105 32.0983V39.189H104.461V35.7961H100.336V39.189H99.8008V32.0983H100.336V35.2893H104.461V32.0983H105Z" fill="white"/>
<path d="M105.348 39.541H104.109V36.1481H100.688V39.541H99.4443V31.7463H100.688V34.9374H104.109V31.7463H105.348V39.541Z" fill="white"/>
<path d="M111.93 33.0884L107.735 39.189H107.266V32.0983H107.805V38.1988L111.991 32.0983H112.46V39.189H111.926L111.93 33.0884Z" fill="white"/>
<path d="M112.813 39.541H111.574V34.2194L107.914 39.541H106.914V31.7463H108.153V37.0679L111.804 31.7463H112.813V39.541Z" fill="white"/>
<path d="M118.821 38.6822V39.189H114.738V32.0983H118.769V32.6051H115.273V35.3597H118.516V35.8665H115.273V38.6822H118.821Z" fill="white"/>
<path d="M119.168 39.541H114.386V31.7463H119.121V32.9571H115.62V35.0078H118.863V36.2185H115.62V38.3349H119.168V39.541Z" fill="white"/>
<path d="M35.4442 0.638184H26.2699H9.14145L0 9.77963V9.81248H26.2699V22.8348L19.2965 28.7383L19.3294 41.9812L35.4302 27.49L35.2753 27.3258H35.4442V9.81248V0.638184Z" fill="#E9561A"/>
<path d="M21.2299 22.3233H21.2956L22.5157 21.2816V13.149H8.33899H0V22.3233V27.3258H0.34257L0.173631 27.5041L16.3401 42L16.373 28.7524L8.7191 22.3233H17.3068H21.2299Z" fill="white"/>
</svg>
