<svg width="240" height="26" viewBox="0 0 240 26" fill="none" xmlns="http://www.w3.org/2000/svg">
<mask id="mask0_890_20241" style="mask-type:luminance" maskUnits="userSpaceOnUse" x="0" y="0" width="240" height="26">
<path d="M240 0H0V25.4617H240V0Z" fill="white"/>
</mask>
<g mask="url(#mask0_890_20241)">
<path d="M68.8693 10.6228C70.5196 10.6228 71.8704 11.1164 72.9219 12.1034C73.9734 13.0904 74.4999 14.3525 74.5015 15.8896C74.5015 17.4613 73.975 18.7399 72.9219 19.7254C71.8689 20.7109 70.518 21.1957 68.8693 21.18H62.3647V4.19141H73.0445V7.39533H65.7148V10.6228H68.8693ZM68.8693 18.0492C69.4687 18.0706 70.0554 17.8728 70.5196 17.4928C70.7402 17.2903 70.9133 17.0417 71.0266 16.7645C71.1399 16.4874 71.1906 16.1886 71.175 15.8896C71.1922 15.5943 71.1422 15.2989 71.0287 15.0256C70.9151 14.7524 70.7411 14.5086 70.5196 14.3124C70.0563 13.9306 69.4692 13.7318 68.8693 13.7537H65.7148V18.0492H68.8693Z" fill="white"/>
<path d="M52.7576 21.5241C50.202 21.5241 48.0904 20.6746 46.4228 18.9756C44.7553 17.2766 43.9223 15.1807 43.9238 12.688C43.9238 10.1732 44.7568 8.07737 46.4228 6.40035C48.0889 4.72334 50.2005 3.87383 52.7576 3.85183C54.2434 3.84011 55.7063 4.21723 57.0012 4.94574C58.2711 5.616 59.3316 6.62345 60.0661 7.85733L57.1781 9.53355C56.766 8.77922 56.1413 8.16268 55.3816 7.76067C54.5798 7.31751 53.676 7.09158 52.76 7.10526C51.1097 7.10526 49.7737 7.62314 48.7521 8.6589C47.7305 9.69466 47.2291 11.0377 47.248 12.688C47.248 14.321 47.7494 15.6569 48.7521 16.6958C49.7549 17.7347 51.0908 18.2526 52.76 18.2495C53.6731 18.263 54.5749 18.0457 55.3816 17.6176C56.1403 17.2143 56.7647 16.5981 57.1781 15.8448L60.0661 17.521C59.3345 18.7531 58.287 19.7672 57.0319 20.4585C55.7218 21.1735 54.2501 21.5404 52.7576 21.5241Z" fill="white"/>
<path d="M41.2927 4.19141V21.18H37.9568V7.39533H31.9497V21.18H28.5996V4.19141H41.2927Z" fill="white"/>
<path d="M91.8246 21.5241C89.2658 21.5241 87.1543 20.6746 85.4898 18.9756C83.8254 17.2766 82.9908 15.1807 82.9861 12.688C82.9861 10.1732 83.8199 8.07737 85.4875 6.40035C87.155 4.72334 89.2666 3.87383 91.8222 3.85183C93.308 3.84011 94.7709 4.21723 96.0659 4.94574C97.3357 5.616 98.3962 6.62345 99.1307 7.85733L96.2427 9.53355C95.8293 8.78023 95.2049 8.16403 94.4462 7.76067C93.6442 7.31782 92.7406 7.0919 91.8246 7.10526C90.1743 7.10526 88.8383 7.62314 87.8167 8.6589C86.7951 9.69466 86.2937 11.0377 86.3126 12.688C86.3126 14.321 86.814 15.6569 87.8167 16.6958C88.8195 17.7347 90.1554 18.2526 91.8246 18.2495C92.7377 18.263 93.6395 18.0457 94.4462 17.6176C95.2049 17.2143 95.8293 16.5981 96.2427 15.8448L99.1307 17.521C98.3991 18.7531 97.3516 19.7672 96.0965 20.4585C94.7871 21.1731 93.3162 21.54 91.8246 21.5241ZM111.041 9.0479V12.0561H107.252V21.1823H104.119V12.0561H100.286V9.0479H111.041ZM120.019 8.70841C120.808 8.70017 121.59 8.86277 122.311 9.18506C123.031 9.50735 123.674 9.98171 124.194 10.5756C125.355 11.7981 125.983 13.4311 125.941 15.1163C125.981 16.8074 125.353 18.4463 124.194 19.6782C123.671 20.2667 123.027 20.7361 122.307 21.0546C121.586 21.373 120.806 21.5331 120.019 21.5241C118.32 21.5241 117.009 20.9332 116.086 19.7512V26.0389H112.953V9.0479H116.084V10.4789C117.007 9.29701 118.317 8.70684 120.016 8.70841H120.019ZM117.032 17.5917C117.347 17.9043 117.722 18.1493 118.135 18.3114C118.549 18.4736 118.99 18.5496 119.434 18.5347C119.878 18.5493 120.319 18.4732 120.732 18.311C121.146 18.1489 121.521 17.9041 121.836 17.5917C122.159 17.2672 122.411 16.8801 122.578 16.4544C122.745 16.0287 122.823 15.5733 122.808 15.1163C122.825 14.6625 122.748 14.2101 122.581 13.7879C122.413 13.3657 122.16 12.9831 121.836 12.6644C121.525 12.3444 121.151 12.0927 120.738 11.9254C120.324 11.7582 119.88 11.6791 119.434 11.6931C118.988 11.6788 118.544 11.7578 118.13 11.925C117.717 12.0923 117.342 12.3441 117.032 12.6644C116.715 12.9868 116.468 13.3707 116.306 13.7925C116.143 14.2142 116.07 14.6648 116.089 15.1163C116.072 15.571 116.147 16.0244 116.309 16.4496C116.471 16.8748 116.717 17.2632 117.032 17.5917ZM137.613 9.0479H140.746V21.1823H137.613V19.7512C136.67 20.9332 135.352 21.5241 133.657 21.5241C132.87 21.5301 132.091 21.3686 131.371 21.0503C130.651 20.7321 130.007 20.2643 129.482 19.6782C128.336 18.4395 127.718 16.8031 127.759 15.1163C127.715 13.4352 128.334 11.8044 129.482 10.5756C130.004 9.98413 130.647 9.51144 131.367 9.18935C132.087 8.86726 132.868 8.70327 133.657 8.70841C135.358 8.70841 136.676 9.29858 137.613 10.4789V9.0479ZM131.837 17.5917C132.152 17.9043 132.528 18.1493 132.941 18.3114C133.354 18.4736 133.796 18.5496 134.24 18.5347C134.683 18.5493 135.125 18.4732 135.538 18.311C135.951 18.1489 136.327 17.9041 136.642 17.5917C136.964 17.2672 137.216 16.8801 137.383 16.4544C137.551 16.0287 137.629 15.5733 137.613 15.1163C137.631 14.6625 137.553 14.2101 137.386 13.7879C137.219 13.3657 136.965 12.9831 136.642 12.6644C136.331 12.3444 135.957 12.0927 135.543 11.9254C135.129 11.7582 134.685 11.6791 134.24 11.6931C133.794 11.6788 133.349 11.7578 132.936 11.925C132.522 12.0923 132.148 12.3441 131.837 12.6644C131.521 12.9868 131.273 13.3707 131.111 13.7925C130.949 14.2142 130.875 14.6648 130.894 15.1163C130.878 15.571 130.953 16.0244 131.115 16.4496C131.277 16.8748 131.522 17.2632 131.837 17.5917ZM155.017 21.1823H151.4L148.779 17.495L146.131 21.1823H142.515L146.956 14.9937L142.713 9.0479H146.329L148.781 12.4687L151.233 9.0479H154.821L150.577 14.9701L155.017 21.1823ZM166.307 19.6782C165.711 20.2789 165 20.7523 164.216 21.0696C163.432 21.3869 162.591 21.5416 161.745 21.5241C160.899 21.5414 160.058 21.3866 159.274 21.0693C158.489 20.752 157.777 20.2787 157.181 19.6782C156.581 19.082 156.108 18.3703 155.792 17.5862C155.475 16.8021 155.32 15.9618 155.337 15.1163C155.319 14.2737 155.473 13.4362 155.79 12.6553C156.107 11.8745 156.58 11.1667 157.181 10.5756C157.774 9.9694 158.485 9.49101 159.27 9.1699C160.055 8.84878 160.897 8.69173 161.745 8.70841C162.593 8.69149 163.435 8.84845 164.22 9.16959C165.004 9.49073 165.715 9.96924 166.307 10.5756C166.915 11.1627 167.395 11.8691 167.716 12.6505C168.038 13.4319 168.195 14.2714 168.177 15.1163C168.193 15.9641 168.036 16.8063 167.715 17.5909C167.393 18.3756 166.914 19.0859 166.307 19.6782ZM159.39 17.5186C159.698 17.8286 160.066 18.0722 160.471 18.2344C160.877 18.3966 161.311 18.474 161.748 18.4616C162.184 18.474 162.619 18.3966 163.024 18.2344C163.43 18.0722 163.798 17.8286 164.105 17.5186C164.417 17.2034 164.662 16.8277 164.824 16.4146C164.986 16.0016 165.063 15.5598 165.048 15.1163C165.063 14.6724 164.987 14.2302 164.825 13.8167C164.662 13.4032 164.418 13.0272 164.105 12.7115C163.797 12.402 163.429 12.1587 163.024 11.9965C162.618 11.8344 162.184 11.7568 161.748 11.7685C161.311 11.7568 160.877 11.8344 160.471 11.9965C160.066 12.1587 159.698 12.402 159.39 12.7115C159.083 13.0301 158.843 13.4072 158.685 13.8203C158.527 14.2334 158.453 14.6741 158.468 15.1163C158.453 15.558 158.527 15.9983 158.685 16.411C158.844 16.8236 159.083 17.2003 159.39 17.5186ZM179.361 14.9701C180.494 15.5233 181.061 16.4451 181.061 17.7355C181.075 18.2051 180.988 18.6722 180.803 19.1042C180.619 19.5362 180.342 19.9228 179.993 20.2369C179.296 20.8656 178.301 21.1799 177.006 21.1799H170.621V9.04554H176.515C177.795 9.04554 178.782 9.35988 179.476 9.98857C179.826 10.2965 180.104 10.6783 180.288 11.1063C180.473 11.5344 180.561 11.9981 180.544 12.464C180.567 12.9466 180.471 13.4273 180.264 13.8642C180.058 14.301 179.748 14.6807 179.361 14.9701ZM176.23 11.62H173.559V13.8055H176.23C177.118 13.8055 177.563 13.4408 177.564 12.7115C177.566 11.9823 177.121 11.6184 176.23 11.62ZM176.643 18.5371C177.548 18.5371 178.001 18.1504 178.001 17.3725C178.007 17.2197 177.978 17.0675 177.915 16.9282C177.852 16.7889 177.757 16.6665 177.638 16.5709C177.349 16.3634 176.998 16.261 176.643 16.2809H173.559V18.5371H176.643ZM192.485 9.0479H195.616V21.1823H192.485V19.7512C191.542 20.9332 190.224 21.5241 188.53 21.5241C187.744 21.5289 186.966 21.3669 186.247 21.0487C185.529 20.7304 184.886 20.2633 184.361 19.6782C183.216 18.4395 182.597 16.8031 182.638 15.1163C182.594 13.4352 183.213 11.8044 184.361 10.5756C184.884 9.98425 185.526 9.51164 186.247 9.18956C186.967 8.86748 187.748 8.70342 188.537 8.70841C190.237 8.70841 191.556 9.29858 192.493 10.4789L192.485 9.0479ZM186.719 17.5917C187.034 17.9041 187.41 18.1489 187.823 18.311C188.236 18.4732 188.678 18.5493 189.121 18.5347C189.565 18.5496 190.007 18.4736 190.42 18.3114C190.833 18.1493 191.209 17.9043 191.524 17.5917C191.846 17.2672 192.098 16.8801 192.265 16.4544C192.432 16.0287 192.51 15.5733 192.495 15.1163C192.512 14.6625 192.435 14.2101 192.268 13.7879C192.101 13.3657 191.847 12.9831 191.524 12.6644C191.213 12.3441 190.839 12.0923 190.425 11.925C190.011 11.7578 189.567 11.6788 189.121 11.6931C188.675 11.6791 188.231 11.7582 187.818 11.9254C187.404 12.0927 187.03 12.3444 186.719 12.6644C186.402 12.9868 186.155 13.3707 185.993 13.7925C185.831 14.2142 185.757 14.6648 185.776 15.1163C185.759 15.571 185.834 16.0244 185.996 16.4496C186.158 16.8748 186.404 17.2632 186.719 17.5917ZM206.671 9.0479H209.802V21.1823H206.662V16.5709H201.831V21.1823H198.7V9.0479H201.831V13.6357H206.662L206.671 9.0479ZM221.674 9.0479H224.004V21.1823H220.939V14.2911L215.245 21.1823H212.916V9.0479H215.981V15.9414L221.674 9.0479ZM229.763 16.4011C230.183 17.921 231.323 18.6817 233.184 18.6833C234.382 18.6833 235.288 18.2785 235.902 17.4691L238.427 18.9261C237.23 20.655 235.466 21.5194 233.137 21.5194C231.131 21.5194 229.521 20.9119 228.306 19.697C227.091 18.4821 226.485 16.9536 226.486 15.1116C226.486 13.2821 227.085 11.7607 228.283 10.5473C229.48 9.33395 231.018 8.71941 232.894 8.70369C234.673 8.70369 236.137 9.31823 237.286 10.5473C237.863 11.1561 238.314 11.8725 238.614 12.6557C238.914 13.4388 239.056 14.2733 239.033 15.1116C239.031 15.5425 238.99 15.9725 238.913 16.3964L229.763 16.4011ZM229.714 13.9752H235.902C235.78 13.2399 235.381 12.5793 234.787 12.1292C234.241 11.728 233.579 11.5153 232.901 11.5233C232.15 11.4936 231.412 11.7252 230.812 12.1787C230.239 12.6249 229.846 13.2627 229.704 13.9752H229.714Z" fill="#EA5614"/>
<path d="M13.1458 8.08789H0V15.5991L9.57642 24.9893V17.4781L5.25737 13.3476H12.3937L13.1458 12.5956V8.08789Z" fill="white"/>
<path d="M15.3974 5.84371H0.188721L5.44609 0.583984H20.6571V15.9836L11.6418 24.9966V17.4854L15.3974 13.7298V5.84371Z" fill="#EA5614"/>
</g>
</svg>
