<svg width="240" height="26" viewBox="0 0 240 26" fill="none" xmlns="http://www.w3.org/2000/svg">
<mask id="mask0_886_47754" style="mask-type:luminance" maskUnits="userSpaceOnUse" x="0" y="0" width="240" height="26">
<path d="M240 0.269531H0V25.7312H240V0.269531Z" fill="white"/>
</mask>
<g mask="url(#mask0_886_47754)">
<path d="M68.8693 10.8933C70.5196 10.8933 71.8704 11.3869 72.9219 12.3739C73.9734 13.3609 74.4999 14.623 74.5015 16.1601C74.5015 17.7319 73.975 19.0104 72.9219 19.9959C71.8689 20.9814 70.518 21.4662 68.8693 21.4505H62.3647V4.46191H73.0445V7.66584H65.7148V10.8933H68.8693ZM68.8693 18.3197C69.4687 18.3411 70.0554 18.1433 70.5196 17.7633C70.7402 17.5609 70.9133 17.3122 71.0266 17.035C71.1399 16.7579 71.1906 16.4591 71.175 16.1601C71.1922 15.8648 71.1422 15.5694 71.0287 15.2962C70.9151 15.0229 70.7411 14.7791 70.5196 14.5829C70.0563 14.2011 69.4692 14.0023 68.8693 14.0242H65.7148V18.3197H68.8693Z" fill="#2B2C84"/>
<path d="M52.7576 21.7946C50.202 21.7946 48.0904 20.9451 46.4228 19.2461C44.7553 17.5471 43.9223 15.4512 43.9238 12.9585C43.9238 10.4437 44.7568 8.34788 46.4228 6.67086C48.0889 4.99385 50.2005 4.14434 52.7576 4.12234C54.2434 4.11062 55.7063 4.48774 57.0012 5.21624C58.2711 5.8865 59.3316 6.89396 60.0661 8.12783L57.1781 9.80406C56.766 9.04973 56.1413 8.43319 55.3816 8.03117C54.5798 7.58802 53.676 7.36209 52.76 7.37577C51.1097 7.37577 49.7737 7.89365 48.7521 8.92941C47.7305 9.96516 47.2291 11.3082 47.248 12.9585C47.248 14.5915 47.7494 15.9274 48.7521 16.9663C49.7549 18.0052 51.0908 18.5231 52.76 18.52C53.6731 18.5335 54.5749 18.3162 55.3816 17.8882C56.1403 17.4848 56.7647 16.8686 57.1781 16.1153L60.0661 17.7915C59.3345 19.0236 58.287 20.0377 57.0319 20.729C55.7218 21.444 54.2501 21.811 52.7576 21.7946Z" fill="#2B2C84"/>
<path d="M41.2927 4.46191V21.4505H37.9568V7.66584H31.9497V21.4505H28.5996V4.46191H41.2927Z" fill="#2B2C84"/>
<path d="M91.8246 21.7946C89.2658 21.7946 87.1543 20.9451 85.4898 19.2461C83.8254 17.5471 82.9908 15.4512 82.9861 12.9585C82.9861 10.4437 83.8199 8.34788 85.4875 6.67086C87.155 4.99385 89.2666 4.14434 91.8222 4.12234C93.308 4.11062 94.7709 4.48774 96.0659 5.21624C97.3357 5.8865 98.3962 6.89396 99.1307 8.12783L96.2427 9.80406C95.8293 9.05073 95.2049 8.43454 94.4462 8.03117C93.6442 7.58832 92.7406 7.36241 91.8246 7.37577C90.1743 7.37577 88.8383 7.89365 87.8167 8.92941C86.7951 9.96516 86.2937 11.3082 86.3126 12.9585C86.3126 14.5915 86.814 15.9274 87.8167 16.9663C88.8195 18.0052 90.1554 18.5231 91.8246 18.52C92.7377 18.5335 93.6395 18.3162 94.4462 17.8882C95.2049 17.4848 95.8293 16.8686 96.2427 16.1153L99.1307 17.7915C98.3991 19.0236 97.3516 20.0377 96.0965 20.729C94.7871 21.4437 93.3162 21.8105 91.8246 21.7946ZM111.041 9.3184V12.3267H107.252V21.4528H104.119V12.3267H100.286V9.3184H111.041ZM120.019 8.97891C120.808 8.97067 121.59 9.13328 122.311 9.45557C123.031 9.77786 123.674 10.2522 124.194 10.8461C125.355 12.0686 125.983 13.7016 125.941 15.3868C125.981 17.0779 125.353 18.7168 124.194 19.9487C123.671 20.5372 123.027 21.0066 122.307 21.3251C121.586 21.6435 120.806 21.8037 120.019 21.7946C118.32 21.7946 117.009 21.2037 116.086 20.0217V26.3094H112.953V9.3184H116.084V10.7494C117.007 9.56752 118.317 8.97734 120.016 8.97891H120.019ZM117.032 17.8622C117.347 18.1748 117.722 18.4198 118.135 18.5819C118.549 18.7441 118.99 18.8201 119.434 18.8052C119.878 18.8198 120.319 18.7437 120.732 18.5815C121.146 18.4194 121.521 18.1746 121.836 17.8622C122.159 17.5377 122.411 17.1506 122.578 16.7249C122.745 16.2992 122.823 15.8438 122.808 15.3868C122.825 14.933 122.748 14.4806 122.581 14.0584C122.413 13.6362 122.16 13.2536 121.836 12.9349C121.525 12.6149 121.151 12.3632 120.738 12.1959C120.324 12.0287 119.88 11.9496 119.434 11.9636C118.988 11.9493 118.544 12.0283 118.13 12.1955C117.717 12.3628 117.342 12.6146 117.032 12.9349C116.715 13.2573 116.468 13.6412 116.306 14.063C116.143 14.4847 116.07 14.9353 116.089 15.3868C116.072 15.8415 116.147 16.2949 116.309 16.7201C116.471 17.1453 116.717 17.5337 117.032 17.8622ZM137.613 9.3184H140.746V21.4528H137.613V20.0217C136.67 21.2037 135.352 21.7946 133.657 21.7946C132.87 21.8006 132.091 21.6391 131.371 21.3208C130.651 21.0026 130.007 20.5348 129.482 19.9487C128.336 18.71 127.718 17.0737 127.759 15.3868C127.715 13.7057 128.334 12.0749 129.482 10.8461C130.004 10.2546 130.647 9.78194 131.367 9.45986C132.087 9.13777 132.868 8.97377 133.657 8.97891C135.358 8.97891 136.676 9.56909 137.613 10.7494V9.3184ZM131.837 17.8622C132.152 18.1748 132.528 18.4198 132.941 18.5819C133.354 18.7441 133.796 18.8201 134.24 18.8052C134.683 18.8198 135.125 18.7437 135.538 18.5815C135.951 18.4194 136.327 18.1746 136.642 17.8622C136.964 17.5377 137.216 17.1506 137.383 16.7249C137.551 16.2992 137.629 15.8438 137.613 15.3868C137.631 14.933 137.553 14.4806 137.386 14.0584C137.219 13.6362 136.965 13.2536 136.642 12.9349C136.331 12.6149 135.957 12.3632 135.543 12.1959C135.129 12.0287 134.685 11.9496 134.24 11.9636C133.794 11.9493 133.349 12.0283 132.936 12.1955C132.522 12.3628 132.148 12.6146 131.837 12.9349C131.521 13.2573 131.273 13.6412 131.111 14.063C130.949 14.4847 130.875 14.9353 130.894 15.3868C130.878 15.8415 130.953 16.2949 131.115 16.7201C131.277 17.1453 131.522 17.5337 131.837 17.8622ZM155.017 21.4528H151.4L148.779 17.7656L146.131 21.4528H142.515L146.956 15.2642L142.713 9.3184H146.329L148.781 12.7392L151.233 9.3184H154.821L150.577 15.2406L155.017 21.4528ZM166.307 19.9487C165.711 20.5494 165 21.0228 164.216 21.3401C163.432 21.6575 162.591 21.8121 161.745 21.7946C160.899 21.8119 160.058 21.6571 159.274 21.3398C158.489 21.0225 157.777 20.5492 157.181 19.9487C156.581 19.3525 156.108 18.6408 155.792 17.8567C155.475 17.0726 155.32 16.2323 155.337 15.3868C155.319 14.5442 155.473 13.7067 155.79 12.9259C156.107 12.145 156.58 11.4372 157.181 10.8461C157.774 10.2399 158.485 9.76152 159.27 9.44041C160.055 9.11929 160.897 8.96223 161.745 8.97891C162.593 8.962 163.435 9.11896 164.22 9.4401C165.004 9.76124 165.715 10.2397 166.307 10.8461C166.915 11.4332 167.395 12.1397 167.716 12.921C168.038 13.7024 168.195 14.5419 168.177 15.3868C168.193 16.2346 168.036 17.0768 167.715 17.8614C167.393 18.6461 166.914 19.3564 166.307 19.9487ZM159.39 17.7891C159.698 18.0991 160.066 18.3427 160.471 18.5049C160.877 18.6671 161.311 18.7445 161.748 18.7322C162.184 18.7445 162.619 18.6671 163.024 18.5049C163.43 18.3427 163.798 18.0991 164.105 17.7891C164.417 17.4739 164.662 17.0982 164.824 16.6852C164.986 16.2721 165.063 15.8303 165.048 15.3868C165.063 14.9429 164.987 14.5007 164.825 14.0872C164.662 13.6737 164.418 13.2977 164.105 12.9821C163.797 12.6725 163.429 12.4292 163.024 12.267C162.618 12.1049 162.184 12.0273 161.748 12.039C161.311 12.0273 160.877 12.1049 160.471 12.267C160.066 12.4292 159.698 12.6725 159.39 12.9821C159.083 13.3006 158.843 13.6777 158.685 14.0908C158.527 14.5039 158.453 14.9446 158.468 15.3868C158.453 15.8285 158.527 16.2688 158.685 16.6815C158.844 17.0942 159.083 17.4708 159.39 17.7891ZM179.361 15.2406C180.494 15.7938 181.061 16.7157 181.061 18.006C181.075 18.4756 180.988 18.9427 180.803 19.3747C180.619 19.8067 180.342 20.1933 179.993 20.5074C179.296 21.1361 178.301 21.4504 177.006 21.4504H170.621V9.31605H176.515C177.795 9.31605 178.782 9.63039 179.476 10.2591C179.826 10.567 180.104 10.9488 180.288 11.3769C180.473 11.8049 180.561 12.2686 180.544 12.7345C180.567 13.2171 180.471 13.6978 180.264 14.1347C180.058 14.5716 179.748 14.9512 179.361 15.2406ZM176.23 11.8905H173.559V14.076H176.23C177.118 14.076 177.563 13.7113 177.564 12.9821C177.566 12.2528 177.121 11.8889 176.23 11.8905ZM176.643 18.8076C177.548 18.8076 178.001 18.421 178.001 17.643C178.007 17.4902 177.978 17.338 177.915 17.1987C177.852 17.0594 177.757 16.937 177.638 16.8414C177.349 16.6339 176.998 16.5316 176.643 16.5514H173.559V18.8076H176.643ZM192.485 9.3184H195.616V21.4528H192.485V20.0217C191.542 21.2037 190.224 21.7946 188.53 21.7946C187.744 21.7994 186.966 21.6374 186.247 21.3192C185.529 21.0009 184.886 20.5338 184.361 19.9487C183.216 18.71 182.597 17.0737 182.638 15.3868C182.594 13.7057 183.213 12.0749 184.361 10.8461C184.884 10.2548 185.526 9.78215 186.247 9.46007C186.967 9.13799 187.748 8.97393 188.537 8.97891C190.237 8.97891 191.556 9.56909 192.493 10.7494L192.485 9.3184ZM186.719 17.8622C187.034 18.1746 187.41 18.4194 187.823 18.5815C188.236 18.7437 188.678 18.8198 189.121 18.8052C189.565 18.8201 190.007 18.7441 190.42 18.5819C190.833 18.4198 191.209 18.1748 191.524 17.8622C191.846 17.5377 192.098 17.1506 192.265 16.7249C192.432 16.2992 192.51 15.8438 192.495 15.3868C192.512 14.933 192.435 14.4806 192.268 14.0584C192.101 13.6362 191.847 13.2536 191.524 12.9349C191.213 12.6146 190.839 12.3628 190.425 12.1955C190.011 12.0283 189.567 11.9493 189.121 11.9636C188.675 11.9496 188.231 12.0287 187.818 12.1959C187.404 12.3632 187.03 12.6149 186.719 12.9349C186.402 13.2573 186.155 13.6412 185.993 14.063C185.831 14.4847 185.757 14.9353 185.776 15.3868C185.759 15.8415 185.834 16.2949 185.996 16.7201C186.158 17.1453 186.404 17.5337 186.719 17.8622ZM206.671 9.3184H209.802V21.4528H206.662V16.8414H201.831V21.4528H198.7V9.3184H201.831V13.9062H206.662L206.671 9.3184ZM221.674 9.3184H224.004V21.4528H220.939V14.5616L215.245 21.4528H212.916V9.3184H215.981V16.2119L221.674 9.3184ZM229.763 16.6716C230.183 18.1915 231.323 18.9522 233.184 18.9538C234.382 18.9538 235.288 18.5491 235.902 17.7396L238.427 19.1966C237.23 20.9255 235.466 21.7899 233.137 21.7899C231.131 21.7899 229.521 21.1825 228.306 19.9675C227.091 18.7526 226.485 17.2241 226.486 15.3821C226.486 13.5526 227.085 12.0312 228.283 10.8178C229.48 9.60446 231.018 8.98992 232.894 8.9742C234.673 8.9742 236.137 9.58874 237.286 10.8178C237.863 11.4266 238.314 12.143 238.614 12.9262C238.914 13.7093 239.056 14.5438 239.033 15.3821C239.031 15.813 238.99 16.243 238.913 16.6669L229.763 16.6716ZM229.714 14.2457H235.902C235.78 13.5104 235.381 12.8498 234.787 12.3997C234.241 11.9985 233.579 11.7858 232.901 11.7938C232.15 11.7641 231.412 11.9957 230.812 12.4492C230.239 12.8955 229.846 13.5332 229.704 14.2457H229.714Z" fill="#EA5614"/>
<path d="M13.1458 8.35938H0V15.8706L9.57642 25.2608V17.7496L5.25737 13.6191H12.3937L13.1458 12.867V8.35938Z" fill="#2B2C84"/>
<path d="M15.3974 6.11422H0.188721L5.44609 0.854492H20.6571V16.2541L11.6418 25.2671V17.7559L15.3974 14.0003V6.11422Z" fill="#EA5614"/>
</g>
</svg>
