<svg xmlns="http://www.w3.org/2000/svg" width="92" height="92" viewBox="0 0 35.22 35.27"><defs><style>.cls-1{fill:none;stroke:#03a9f4;stroke-linecap:round;stroke-linejoin:round;stroke-width:1.44px;}</style></defs><title>main-pref-4</title><path class="cls-1" d="M23.27,13c-.9,3.12-3.35,5.4-5.68,5.51-2.34-.11-4.79-2.4-5.69-5.54l-.44.07a.92.92,0,0,1-1-.76L10,9.55a.92.92,0,0,1,.76-1l.31,0a4.51,4.51,0,0,1-.22-1.38V6A4.56,4.56,0,0,1,15.39,1.5h.54a.57.57,0,0,1,0-.24c.28-.74,2.14-.71,4.17.05a10.29,10.29,0,0,1,1.2.54A4.56,4.56,0,0,1,24.13,6v1a4.51,4.51,0,0,1-.21,1.38l.31,0a.92.92,0,0,1,.76,1l-.43,2.78a.92.92,0,0,1-1,.76l-.25,0Z"/><line class="cls-1" x1="28.3" y1="31.8" x2="23.38" y2="31.8"/><path class="cls-1" d="M1.54,34.52.72,27.1v-.78c0-1.73,1.76-2.74,3.22-3s6.34-1.36,8-2.48l.1,0,2.93,13.75,1.76-9.07L15.2,21.63H20l-1.49,3.84,1.71,9.07,3-13.75.1,0c1.62,1.12,6.63,2.21,8,2.48s3.22,1.3,3.22,3v.78l-.82,7.42"/></svg>