<svg width="520" height="522" viewBox="0 0 520 522" fill="none" xmlns="http://www.w3.org/2000/svg">
<g opacity="0.1">
<path d="M562.975 375.122L565.076 375.122L503.407 309.671L501.307 309.671L562.975 375.122Z" fill="#585892"/>
<path d="M544.046 375.122L546.147 375.122L484.48 309.67L482.379 309.671L544.046 375.122Z" fill="#585892"/>
<path d="M526.167 375.122L464.5 309.671L464.5 311.9L524.066 375.122L526.167 375.122Z" fill="#585892"/>
<path d="M562.975 119.583L565.076 119.583L503.407 54.1318L501.307 54.1318L562.975 119.583Z" fill="#585892"/>
<path d="M544.046 119.583L546.147 119.583L484.48 54.1318L482.379 54.1318L544.046 119.583Z" fill="#585892"/>
<path d="M526.167 119.583L464.5 54.1318L464.5 56.3605L524.066 119.583L526.167 119.583Z" fill="#585892"/>
<path d="M573.19 462.523L573.19 460.293L511.524 394.844L511.524 397.074L573.19 462.523Z" fill="#585892"/>
<path d="M573.191 482.244L573.191 480.015L511.525 414.564L511.525 416.794L573.191 482.244Z" fill="#585892"/>
<path d="M573.191 501.967L573.191 499.738L511.525 434.287L511.525 436.517L573.191 501.967Z" fill="#585892"/>
<path d="M558.089 506.024L560.19 506.024L498.521 440.573L496.422 440.573L558.089 506.024Z" fill="#585892"/>
<path d="M539.161 506.024L541.262 506.024L479.594 440.573L477.493 440.573L539.161 506.024Z" fill="#585892"/>
<path d="M520.231 506.024L522.332 506.024L460.665 440.573L458.564 440.573L520.231 506.024Z" fill="#585892"/>
<path d="M501.303 506.024L503.404 506.024L441.735 440.573L439.635 440.573L501.303 506.024Z" fill="#585892"/>
<path d="M482.375 506.024L484.476 506.024L422.808 440.571L420.707 440.571L482.375 506.024Z" fill="#585892"/>
<path d="M573.19 442.8L573.19 440.572L511.524 375.121L511.524 377.351L573.19 442.8Z" fill="#585892"/>
<path d="M464.497 506.024L402.83 440.571L402.83 442.801L462.397 506.024L464.497 506.024Z" fill="#585892"/>
<path d="M573.19 206.984L573.19 204.755L511.524 139.304L511.524 141.534L573.19 206.984Z" fill="#585892"/>
<path d="M573.19 226.706L573.19 224.476L511.524 159.027L511.524 161.257L573.19 226.706Z" fill="#585892"/>
<path d="M573.19 246.427L573.19 244.199L511.524 178.748L511.524 180.978L573.19 246.427Z" fill="#585892"/>
<path d="M558.089 250.484L560.19 250.484L498.521 185.034L496.422 185.034L558.089 250.484Z" fill="#585892"/>
<path d="M539.16 250.484L541.261 250.484L479.593 185.034L477.492 185.034L539.16 250.484Z" fill="#585892"/>
<path d="M520.231 250.484L522.332 250.484L460.665 185.034L458.564 185.034L520.231 250.484Z" fill="#585892"/>
<path d="M501.303 250.484L503.404 250.484L441.735 185.034L439.635 185.034L501.303 250.484Z" fill="#585892"/>
<path d="M482.375 250.484L484.476 250.484L422.808 185.034L420.707 185.034L482.375 250.484Z" fill="#585892"/>
<path d="M573.19 187.262L573.19 185.033L511.524 119.582L511.524 121.813L573.19 187.262Z" fill="#585892"/>
<path d="M464.496 250.484L402.829 185.034L402.829 187.262L462.396 250.484L464.496 250.484Z" fill="#585892"/>
<path d="M464.503 587.16L464.503 584.93L402.837 519.481L402.837 521.711L464.503 587.16Z" fill="#585892"/>
<path d="M464.503 567.439L464.503 565.208L402.837 499.759L402.837 501.989L464.503 567.439Z" fill="#585892"/>
<path d="M464.502 331.621L464.502 329.391L402.836 263.941L402.836 266.171L464.502 331.621Z" fill="#585892"/>
<path d="M464.502 351.343L464.502 349.115L402.836 283.664L402.836 285.894L464.502 351.343Z" fill="#585892"/>
<path d="M464.502 371.065L464.502 368.836L402.836 303.386L402.836 305.616L464.502 371.065Z" fill="#585892"/>
<path d="M449.4 375.122L451.501 375.122L389.833 309.671L387.733 309.671L449.4 375.122Z" fill="#585892"/>
<path d="M430.472 375.122L432.573 375.122L370.906 309.671L368.805 309.671L430.472 375.122Z" fill="#585892"/>
<path d="M411.544 375.122L413.645 375.122L351.977 309.671L349.876 309.671L411.544 375.122Z" fill="#585892"/>
<path d="M392.615 375.122L394.716 375.122L333.048 309.671L330.948 309.671L392.615 375.122Z" fill="#585892"/>
<path d="M373.686 375.122L375.787 375.122L314.12 309.67L312.019 309.67L373.686 375.122Z" fill="#585892"/>
<path d="M464.502 311.899L464.502 309.67L402.836 244.22L402.836 246.45L464.502 311.899Z" fill="#585892"/>
<path d="M355.808 375.122L294.141 309.67L294.141 311.9L353.709 375.122L355.808 375.122Z" fill="#585892"/>
<path d="M464.502 76.0819L464.502 73.8532L402.836 8.4024L402.836 10.6325L464.502 76.0819Z" fill="#585892"/>
<path d="M464.502 95.8037L464.502 93.5735L402.836 28.1242L402.836 30.3543L464.502 95.8037Z" fill="#585892"/>
<path d="M464.502 115.525L464.502 113.297L402.836 47.846L402.836 50.0761L464.502 115.525Z" fill="#585892"/>
<path d="M449.4 119.583L451.501 119.583L389.833 54.1324L387.733 54.1324L449.4 119.583Z" fill="#585892"/>
<path d="M430.472 119.583L432.573 119.583L370.906 54.1324L368.805 54.1324L430.472 119.583Z" fill="#585892"/>
<path d="M411.545 119.583L413.646 119.583L351.978 54.1324L349.877 54.1324L411.545 119.583Z" fill="#585892"/>
<path d="M392.615 119.583L394.716 119.583L333.048 54.1324L330.948 54.1324L392.615 119.583Z" fill="#585892"/>
<path d="M373.686 119.583L375.787 119.583L314.12 54.1324L312.019 54.1324L373.686 119.583Z" fill="#585892"/>
<path d="M464.502 54.1307L413.501 1.07854e-07L411.401 0L464.502 56.3594L464.502 54.1307Z" fill="#585892"/>
<path d="M355.808 119.583L294.141 54.1324L294.141 56.3611L353.709 119.583L355.808 119.583Z" fill="#585892"/>
<path d="M402.831 462.523L402.831 460.293L341.165 394.844L341.165 397.074L402.831 462.523Z" fill="#585892"/>
<path d="M402.831 482.245L402.831 480.016L341.165 414.566L341.165 416.796L402.831 482.245Z" fill="#585892"/>
<path d="M402.831 501.967L402.831 499.738L341.165 434.287L341.165 436.517L402.831 501.967Z" fill="#585892"/>
<path d="M387.73 506.024L389.831 506.024L328.162 440.571L326.062 440.571L387.73 506.024Z" fill="#585892"/>
<path d="M368.8 506.024L370.901 506.024L309.234 440.571L307.133 440.571L368.8 506.024Z" fill="#585892"/>
<path d="M349.872 506.024L351.973 506.024L290.306 440.571L288.205 440.571L349.872 506.024Z" fill="#585892"/>
<path d="M330.944 506.024L333.045 506.024L271.376 440.571L269.276 440.571L330.944 506.024Z" fill="#585892"/>
<path d="M312.014 506.024L314.115 506.024L252.448 440.571L250.347 440.571L312.014 506.024Z" fill="#585892"/>
<path d="M402.831 442.8L402.831 440.572L341.165 375.121L341.165 377.351L402.831 442.8Z" fill="#585892"/>
<path d="M294.136 506.024L232.468 440.573L232.468 442.802L292.036 506.024L294.136 506.024Z" fill="#585892"/>
<path d="M402.831 206.984L402.831 204.756L341.165 139.305L341.165 141.535L402.831 206.984Z" fill="#585892"/>
<path d="M402.831 226.706L402.831 224.477L341.165 159.027L341.165 161.257L402.831 226.706Z" fill="#585892"/>
<path d="M402.831 246.427L402.831 244.199L341.165 178.748L341.165 180.978L402.831 246.427Z" fill="#585892"/>
<path d="M387.73 250.484L389.831 250.484L328.162 185.034L326.062 185.034L387.73 250.484Z" fill="#585892"/>
<path d="M368.799 250.484L370.9 250.484L309.233 185.034L307.132 185.034L368.799 250.484Z" fill="#585892"/>
<path d="M349.872 250.484L351.973 250.484L290.306 185.034L288.205 185.034L349.872 250.484Z" fill="#585892"/>
<path d="M330.943 250.484L333.044 250.484L271.375 185.034L269.275 185.034L330.943 250.484Z" fill="#585892"/>
<path d="M312.014 250.484L314.115 250.484L252.448 185.034L250.347 185.034L312.014 250.484Z" fill="#585892"/>
<path d="M402.831 187.262L402.831 185.033L341.165 119.582L341.165 121.813L402.831 187.262Z" fill="#585892"/>
<path d="M294.136 250.484L232.468 185.034L232.468 187.262L292.036 250.484L294.136 250.484Z" fill="#585892"/>
<path d="M294.143 587.16L294.143 584.93L232.477 519.481L232.477 521.711L294.143 587.16Z" fill="#585892"/>
<path d="M294.144 567.439L294.144 565.208L232.478 499.759L232.478 501.989L294.144 567.439Z" fill="#585892"/>
<path d="M294.143 331.621L294.143 329.391L232.477 263.941L232.477 266.171L294.143 331.621Z" fill="#585892"/>
<path d="M294.143 351.343L294.143 349.113L232.477 283.664L232.477 285.894L294.143 351.343Z" fill="#585892"/>
<path d="M294.144 371.065L294.144 368.835L232.478 303.386L232.478 305.616L294.144 371.065Z" fill="#585892"/>
<path d="M279.042 375.122L281.143 375.122L219.474 309.67L217.375 309.67L279.042 375.122Z" fill="#585892"/>
<path d="M260.113 375.122L262.214 375.122L200.546 309.67L198.445 309.67L260.113 375.122Z" fill="#585892"/>
<path d="M241.184 375.122L243.286 375.122L181.618 309.67L179.517 309.67L241.184 375.122Z" fill="#585892"/>
<path d="M222.256 375.122L224.357 375.122L162.689 309.67L160.589 309.67L222.256 375.122Z" fill="#585892"/>
<path d="M203.328 375.122L205.429 375.122L143.761 309.669L141.66 309.669L203.328 375.122Z" fill="#585892"/>
<path d="M294.143 311.899L294.143 309.67L232.477 244.22L232.477 246.45L294.143 311.899Z" fill="#585892"/>
<path d="M185.449 375.122L123.782 309.671L123.782 311.9L183.348 375.122L185.449 375.122Z" fill="#585892"/>
<path d="M294.143 76.0819L294.143 73.8532L232.477 8.4024L232.477 10.6325L294.143 76.0819Z" fill="#585892"/>
<path d="M294.143 95.8037L294.143 93.575L232.477 28.1242L232.477 30.3543L294.143 95.8037Z" fill="#585892"/>
<path d="M294.143 115.526L294.143 113.297L232.477 47.8466L232.477 50.0768L294.143 115.526Z" fill="#585892"/>
<path d="M279.042 119.583L281.143 119.583L219.474 54.1324L217.375 54.1324L279.042 119.583Z" fill="#585892"/>
<path d="M260.113 119.583L262.214 119.583L200.546 54.1324L198.445 54.1324L260.113 119.583Z" fill="#585892"/>
<path d="M241.184 119.583L243.286 119.583L181.618 54.1324L179.517 54.1324L241.184 119.583Z" fill="#585892"/>
<path d="M222.256 119.583L224.357 119.583L162.689 54.1324L160.589 54.1324L222.256 119.583Z" fill="#585892"/>
<path d="M203.328 119.583L205.429 119.583L143.761 54.1324L141.66 54.1324L203.328 119.583Z" fill="#585892"/>
<path d="M294.143 54.1307L243.142 1.07854e-07L241.042 0L294.143 56.3594L294.143 54.1307Z" fill="#585892"/>
<path d="M185.449 119.583L123.782 54.1324L123.782 56.3611L183.348 119.583L185.449 119.583Z" fill="#585892"/>
<path d="M232.472 462.523L232.472 460.293L170.806 394.844L170.806 397.074L232.472 462.523Z" fill="#585892"/>
<path d="M232.473 482.245L232.473 480.015L170.807 414.566L170.807 416.796L232.473 482.245Z" fill="#585892"/>
<path d="M232.473 501.967L232.473 499.738L170.807 434.287L170.807 436.517L232.473 501.967Z" fill="#585892"/>
<path d="M217.371 506.024L219.472 506.024L157.803 440.573L155.703 440.573L217.371 506.024Z" fill="#585892"/>
<path d="M198.441 506.024L200.542 506.024L138.875 440.573L136.774 440.573L198.441 506.024Z" fill="#585892"/>
<path d="M179.513 506.024L181.614 506.024L119.947 440.573L117.846 440.573L179.513 506.024Z" fill="#585892"/>
<path d="M160.585 506.024L162.686 506.024L101.017 440.573L98.9172 440.573L160.585 506.024Z" fill="#585892"/>
<path d="M141.656 506.024L143.757 506.024L82.0901 440.573L79.989 440.573L141.656 506.024Z" fill="#585892"/>
<path d="M232.472 442.801L232.472 440.573L170.806 375.122L170.806 377.352L232.472 442.801Z" fill="#585892"/>
<path d="M123.777 506.024L62.1091 440.573L62.1091 442.802L121.675 506.024L123.777 506.024Z" fill="#585892"/>
<path d="M232.471 206.984L232.471 204.756L170.805 139.305L170.805 141.535L232.471 206.984Z" fill="#585892"/>
<path d="M232.471 226.706L232.471 224.476L170.805 159.027L170.805 161.257L232.471 226.706Z" fill="#585892"/>
<path d="M232.473 246.427L232.473 244.199L170.807 178.748L170.807 180.978L232.473 246.427Z" fill="#585892"/>
<path d="M217.371 250.484L219.472 250.484L157.803 185.034L155.703 185.034L217.371 250.484Z" fill="#585892"/>
<path d="M198.441 250.484L200.542 250.484L138.875 185.034L136.774 185.034L198.441 250.484Z" fill="#585892"/>
<path d="M179.513 250.484L181.614 250.484L119.947 185.034L117.846 185.034L179.513 250.484Z" fill="#585892"/>
<path d="M160.585 250.484L162.686 250.484L101.017 185.034L98.9172 185.034L160.585 250.484Z" fill="#585892"/>
<path d="M141.655 250.484L143.756 250.484L82.0888 185.034L79.9878 185.034L141.655 250.484Z" fill="#585892"/>
<path d="M232.471 187.262L232.471 185.033L170.805 119.582L170.805 121.813L232.471 187.262Z" fill="#585892"/>
<path d="M123.777 250.484L62.1091 185.034L62.1091 187.262L121.675 250.484L123.777 250.484Z" fill="#585892"/>
<path d="M123.783 587.16L123.783 584.93L62.1169 519.481L62.1169 521.711L123.783 587.16Z" fill="#585892"/>
<path d="M123.784 567.439L123.784 565.208L62.1179 499.759L62.1179 501.989L123.784 567.439Z" fill="#585892"/>
<path d="M123.783 331.621L123.783 329.391L62.1169 263.941L62.1169 266.171L123.783 331.621Z" fill="#585892"/>
<path d="M123.784 351.344L123.784 349.114L62.1179 283.664L62.1179 285.895L123.784 351.344Z" fill="#585892"/>
<path d="M123.783 371.065L123.783 368.836L62.1169 303.386L62.1169 305.616L123.783 371.065Z" fill="#585892"/>
<path d="M108.683 375.122L110.784 375.122L49.1153 309.671L47.0156 309.671L108.683 375.122Z" fill="#585892"/>
<path d="M89.7536 375.122L91.8546 375.122L30.1872 309.671L28.0862 309.671L89.7536 375.122Z" fill="#585892"/>
<path d="M70.8253 375.122L72.9264 375.122L11.259 309.671L9.15796 309.671L70.8253 375.122Z" fill="#585892"/>
<path d="M-0.000244141 317.811L-0.000244227 320.041L51.8966 375.123L53.9963 375.123L-0.000244141 317.811Z" fill="#585892"/>
<path d="M-0.000244141 337.901L-0.000244227 340.131L32.967 375.122L35.0693 375.122L-0.000244141 337.901Z" fill="#585892"/>
<path d="M123.783 311.899L123.783 309.67L62.1169 244.22L62.1169 246.45L123.783 311.899Z" fill="#585892"/>
<path d="M-0.000244141 359.107L-0.000244227 361.335L12.9888 375.122L15.0899 375.122L-0.000244141 359.107Z" fill="#585892"/>
<path d="M123.783 76.0819L123.783 73.8532L62.1169 8.4024L62.1169 10.6325L123.783 76.0819Z" fill="#585892"/>
<path d="M123.784 95.8037L123.784 93.5735L62.1179 28.1242L62.1179 30.3543L123.784 95.8037Z" fill="#585892"/>
<path d="M123.783 115.526L123.783 113.297L62.1169 47.8466L62.1169 50.0768L123.783 115.526Z" fill="#585892"/>
<path d="M108.683 119.583L110.784 119.583L49.1153 54.1324L47.0156 54.1324L108.683 119.583Z" fill="#585892"/>
<path d="M89.7548 119.583L91.8558 119.583L30.1884 54.1324L28.0874 54.1324L89.7548 119.583Z" fill="#585892"/>
<path d="M70.8253 119.583L72.9264 119.583L11.259 54.1324L9.15796 54.1324L70.8253 119.583Z" fill="#585892"/>
<path d="M-0.000244141 62.2717L-0.000244227 64.5019L51.8966 119.583L53.9963 119.583L-0.000244141 62.2717Z" fill="#585892"/>
<path d="M-0.000244141 82.3619L-0.000244227 84.592L32.967 119.583L35.0693 119.583L-0.000244141 82.3619Z" fill="#585892"/>
<path d="M123.784 54.1307L72.7828 1.07854e-07L70.6831 0L123.784 56.3594L123.784 54.1307Z" fill="#585892"/>
<path d="M-0.000244141 103.568L-0.000244227 105.796L12.9888 119.583L15.0899 119.583L-0.000244141 103.568Z" fill="#585892"/>
<path d="M62.1122 460.293L0.44751 394.843L0.44751 397.073L62.1122 462.523L62.1122 460.293Z" fill="#585892"/>
<path d="M62.1122 480.015L0.44751 414.566L0.44751 416.796L62.1122 482.245L62.1122 480.015Z" fill="#585892"/>
<path d="M62.1122 499.737L0.44751 434.288L0.44751 436.518L62.1122 501.967L62.1122 499.737Z" fill="#585892"/>
<path d="M-0.000244141 453.899L-0.000244227 456.128L47.0113 506.024L49.111 506.024L-0.000244141 453.899Z" fill="#585892"/>
<path d="M-0.000244141 473.989L-0.000244227 476.217L28.083 506.023L30.1827 506.023L-0.000244141 473.989Z" fill="#585892"/>
<path d="M-0.000244141 494.08L-0.000244227 496.309L9.1534 506.025L11.2544 506.025L-0.000244141 494.08Z" fill="#585892"/>
<path d="M62.1122 440.571L0.44751 375.122L0.44751 377.352L62.1122 442.8L62.1122 440.571Z" fill="#585892"/>
<path d="M62.1122 204.756L0.44751 139.305L0.44751 141.535L62.1122 206.986L62.1122 204.756Z" fill="#585892"/>
<path d="M62.1122 224.476L0.44751 159.027L0.44751 161.257L62.1122 226.706L62.1122 224.476Z" fill="#585892"/>
<path d="M62.1122 244.199L0.44751 178.75L0.44751 180.98L62.1122 246.429L62.1122 244.199Z" fill="#585892"/>
<path d="M-0.000244141 198.359L-0.000244227 200.588L47.0113 250.485L49.111 250.485L-0.000244141 198.359Z" fill="#585892"/>
<path d="M-0.000244141 218.449L-0.000244227 220.678L28.083 250.484L30.1827 250.484L-0.000244141 218.449Z" fill="#585892"/>
<path d="M-0.000244141 238.541L-0.000244227 240.769L9.1534 250.485L11.2544 250.485L-0.000244141 238.541Z" fill="#585892"/>
<path d="M62.1122 185.032L0.44751 119.583L0.44751 121.813L62.1122 187.261L62.1122 185.032Z" fill="#585892"/>
</g>
</svg>
