<svg xmlns="http://www.w3.org/2000/svg" width="21" height="18" viewBox="0 0 389.39 330.72"><path fill="#ff6200" d="M26.4,260.8v63.12a7.05,7.05,0,0,0,7,7h48.8a7.05,7.05,0,0,0,7-7v-111L53.84,248.32A43,43,0,0,1,26.4,260.8Zm0,0" transform="translate(0 -0.24)"/><path fill="#ff6200" d="M113.6,212.08V323.92a7,7,0,0,0,7,7h48.8a7,7,0,0,0,7-7V258.08a42.53,42.53,0,0,1-29.36-12.48Zm0,0" transform="translate(0 -0.24)"/><path fill="#ff6200" d="M200.8,251.12v72.8a7,7,0,0,0,7,7h48.8a7,7,0,0,0,7-7V189.6l-55.92,55.92a41.77,41.77,0,0,1-7,5.6Zm0,0" transform="translate(0 -0.24)"/><g class="cls-2"><path fill="#ff6200" d="M346.16,107,288,165.2V323.92a7,7,0,0,0,7,7h48.8a7,7,0,0,0,7-7V111.44c-1.6-1.36-2.8-2.56-3.68-3.36Zm0,0" transform="translate(0 -0.24)"/><path fill="#ff6200" d="M386.08,4C383.76,1.52,380.24.24,375.76.24h-1.28c-22.72,1-45.36,2.16-68.08,3.2-3,.16-7.2.32-10.48,3.6a11.79,11.79,0,0,0-2.48,3.68C290.08,18,294.8,22.72,297,25l5.68,5.76c3.92,4,7.92,8,11.92,11.92L177.36,180l-61.68-61.68a19.61,19.61,0,0,0-27.76,0L5.76,200.4a19.6,19.6,0,0,0,0,27.76l3.68,3.68a19.61,19.61,0,0,0,27.76,0l64.56-64.56L163.44,229a19.7,19.7,0,0,0,27.84,0L346.16,74.08l17.52,17.44c2.08,2.08,5,5,9.36,5a11.56,11.56,0,0,0,5.6-1.52A15.17,15.17,0,0,0,382,92.48c3.44-3.44,4.08-7.84,4.24-11.28.64-14.72,1.36-29.44,2.08-44.24l1-22.16c.24-4.64-.8-8.24-3.28-10.8Zm0,0" transform="translate(0 -0.24)"/></g></svg>