<svg width="1440" height="647" viewBox="0 0 1440 647" fill="none" xmlns="http://www.w3.org/2000/svg">
<g opacity="0.5">
<path d="M1440 500.446L1439.89 500.346L1439.89 503.942L1440 504.044L1440 500.446Z" fill="#585892"/>
<path d="M1440 87.9158L1439.89 87.8162L1439.89 91.4141L1440 91.5161L1440 87.9158Z" fill="#585892"/>
<path d="M1440 305.808L1433.04 299.136L1429.28 299.136L1440 309.406L1440 305.808Z" fill="#585892"/>
<path d="M1440 338.242L1399.19 299.138L1395.43 299.138L1440 341.84L1440 338.242Z" fill="#585892"/>
<path d="M1440 370.674L1365.34 299.138L1361.58 299.138L1440 374.274L1440 370.674Z" fill="#585892"/>
<path d="M1329.61 299.136L1329.61 302.734L1436.13 404.799L1439.89 404.799L1329.61 299.136Z" fill="#585892"/>
<path d="M1439.9 532.182L1329.63 426.521L1329.63 430.122L1439.9 535.782L1439.9 532.182Z" fill="#585892"/>
<path d="M1439.9 564.021L1329.63 458.361L1329.63 461.961L1439.9 567.622L1439.9 564.021Z" fill="#585892"/>
<path d="M1439.9 595.857L1329.63 490.199L1329.63 493.799L1439.9 599.455L1439.9 595.857Z" fill="#585892"/>
<path d="M1412.89 606.005L1416.65 606.005L1306.38 500.345L1302.62 500.345L1412.89 606.005Z" fill="#585892"/>
<path d="M1379.05 606.005L1382.8 606.005L1272.53 500.345L1268.77 500.345L1379.05 606.005Z" fill="#585892"/>
<path d="M1345.2 606.005L1348.96 606.005L1238.68 500.345L1234.92 500.345L1345.2 606.005Z" fill="#585892"/>
<path d="M1311.35 606.005L1315.11 606.005L1204.83 500.345L1201.08 500.345L1311.35 606.005Z" fill="#585892"/>
<path d="M1277.5 606.007L1281.26 606.007L1170.99 500.346L1167.23 500.346L1277.5 606.007Z" fill="#585892"/>
<path d="M1439.9 500.343L1329.63 394.685L1329.63 398.285L1439.9 503.943L1439.9 500.343Z" fill="#585892"/>
<path d="M1245.53 606.007L1135.26 500.346L1135.26 503.944L1241.78 606.007L1245.53 606.007Z" fill="#585892"/>
<path d="M1439.9 119.653L1329.63 13.9927L1329.63 17.5929L1439.9 123.253L1439.9 119.653Z" fill="#585892"/>
<path d="M1439.9 151.489L1329.63 45.8308L1329.63 49.431L1439.9 155.089L1439.9 151.489Z" fill="#585892"/>
<path d="M1439.9 183.328L1329.63 77.6702L1329.63 81.2704L1439.9 186.929L1439.9 183.328Z" fill="#585892"/>
<path d="M1412.89 193.476L1416.65 193.476L1306.38 87.8135L1302.62 87.8135L1412.89 193.476Z" fill="#585892"/>
<path d="M1379.05 193.476L1382.8 193.476L1272.53 87.8135L1268.77 87.8135L1379.05 193.476Z" fill="#585892"/>
<path d="M1345.2 193.476L1348.96 193.476L1238.68 87.8135L1234.92 87.8135L1345.2 193.476Z" fill="#585892"/>
<path d="M1311.35 193.476L1315.11 193.476L1204.83 87.8135L1201.08 87.8135L1311.35 193.476Z" fill="#585892"/>
<path d="M1277.5 193.476L1281.26 193.476L1170.99 87.8135L1167.23 87.8135L1277.5 193.476Z" fill="#585892"/>
<path d="M1439.9 87.8145L1348.7 0.428707L1344.94 0.428707L1439.9 91.4124L1439.9 87.8145Z" fill="#585892"/>
<path d="M1245.53 193.476L1135.26 87.8135L1135.26 91.4137L1241.78 193.476L1245.53 193.476Z" fill="#585892"/>
<path d="M1329.62 747.101L1329.62 743.501L1219.35 637.843L1219.35 641.443L1329.62 747.101Z" fill="#585892"/>
<path d="M1329.62 715.263L1329.62 711.665L1219.35 606.005L1219.35 609.605L1329.62 715.263Z" fill="#585892"/>
<path d="M1329.62 334.573L1329.62 330.975L1219.35 225.314L1219.35 228.915L1329.62 334.573Z" fill="#585892"/>
<path d="M1329.62 366.412L1329.62 362.812L1219.35 257.154L1219.35 260.754L1329.62 366.412Z" fill="#585892"/>
<path d="M1329.62 398.247L1329.62 394.649L1219.35 288.989L1219.35 292.589L1329.62 398.247Z" fill="#585892"/>
<path d="M1302.61 404.798L1306.37 404.798L1196.09 299.138L1192.34 299.138L1302.61 404.798Z" fill="#585892"/>
<path d="M1268.77 404.798L1272.52 404.798L1162.25 299.138L1158.49 299.138L1268.77 404.798Z" fill="#585892"/>
<path d="M1234.92 404.798L1238.67 404.798L1128.4 299.138L1124.64 299.138L1234.92 404.798Z" fill="#585892"/>
<path d="M1201.07 404.798L1204.83 404.798L1094.55 299.138L1090.8 299.138L1201.07 404.798Z" fill="#585892"/>
<path d="M1167.22 404.798L1170.98 404.798L1060.7 299.138L1056.95 299.138L1167.22 404.798Z" fill="#585892"/>
<path d="M1329.62 302.735L1329.62 299.137L1219.35 193.476L1219.35 197.077L1329.62 302.735Z" fill="#585892"/>
<path d="M1135.25 404.798L1024.98 299.138L1024.98 302.736L1131.49 404.798L1135.25 404.798Z" fill="#585892"/>
<path d="M1135.26 535.781L1135.26 532.181L1024.99 426.523L1024.99 430.123L1135.26 535.781Z" fill="#585892"/>
<path d="M1135.26 567.619L1135.26 564.021L1024.99 458.361L1024.99 461.961L1135.26 567.619Z" fill="#585892"/>
<path d="M1135.26 599.457L1135.26 595.859L1024.99 490.199L1024.99 493.799L1135.26 599.457Z" fill="#585892"/>
<path d="M1108.26 606.007L1112.02 606.007L1001.74 500.346L997.984 500.346L1108.26 606.007Z" fill="#585892"/>
<path d="M1074.41 606.007L1078.17 606.007L967.894 500.346L964.137 500.346L1074.41 606.007Z" fill="#585892"/>
<path d="M1040.56 606.007L1044.32 606.007L934.044 500.346L930.287 500.346L1040.56 606.007Z" fill="#585892"/>
<path d="M1006.71 606.007L1010.47 606.007L900.195 500.346L896.44 500.346L1006.71 606.007Z" fill="#585892"/>
<path d="M972.866 606.006L976.623 606.006L866.349 500.344L862.592 500.346L972.866 606.006Z" fill="#585892"/>
<path d="M1135.26 503.943L1135.26 500.345L1024.99 394.685L1024.99 398.285L1135.26 503.943Z" fill="#585892"/>
<path d="M940.895 606.007L830.621 500.346L830.621 503.944L937.138 606.007L940.895 606.007Z" fill="#585892"/>
<path d="M1135.26 123.251L1135.26 119.651L1024.99 13.9927L1024.99 17.5929L1135.26 123.251Z" fill="#585892"/>
<path d="M1135.26 155.089L1135.26 151.489L1024.99 45.8308L1024.99 49.431L1135.26 155.089Z" fill="#585892"/>
<path d="M1135.26 186.927L1135.26 183.329L1024.99 77.6689L1024.99 81.2692L1135.26 186.927Z" fill="#585892"/>
<path d="M1108.26 193.477L1112.02 193.477L1001.74 87.8162L997.984 87.8162L1108.26 193.477Z" fill="#585892"/>
<path d="M1074.41 193.477L1078.17 193.477L967.894 87.8162L964.137 87.8162L1074.41 193.477Z" fill="#585892"/>
<path d="M1040.56 193.477L1044.32 193.477L934.044 87.8162L930.287 87.8162L1040.56 193.477Z" fill="#585892"/>
<path d="M1006.71 193.477L1010.47 193.477L900.195 87.8162L896.44 87.8162L1006.71 193.477Z" fill="#585892"/>
<path d="M972.866 193.477L976.623 193.477L866.349 87.8162L862.592 87.8162L972.866 193.477Z" fill="#585892"/>
<path d="M1135.26 87.8145L1044.06 0.428708L1040.31 0.428708L1135.26 91.4124L1135.26 87.8145Z" fill="#585892"/>
<path d="M940.895 193.477L830.621 87.8162L830.621 91.4141L937.138 193.477L940.895 193.477Z" fill="#585892"/>
<path d="M1024.98 747.103L1024.98 743.503L914.71 637.844L914.71 641.445L1024.98 747.103Z" fill="#585892"/>
<path d="M1024.98 715.263L1024.98 711.666L914.71 606.005L914.71 609.605L1024.98 715.263Z" fill="#585892"/>
<path d="M1024.98 334.573L1024.98 330.975L914.71 225.314L914.71 228.915L1024.98 334.573Z" fill="#585892"/>
<path d="M1024.98 366.412L1024.98 362.812L914.71 257.154L914.71 260.754L1024.98 366.412Z" fill="#585892"/>
<path d="M1024.98 398.249L1024.98 394.651L914.71 288.99L914.71 292.591L1024.98 398.249Z" fill="#585892"/>
<path d="M997.977 404.798L1001.73 404.798L891.458 299.138L887.703 299.138L997.977 404.798Z" fill="#585892"/>
<path d="M964.128 404.798L967.885 404.798L857.612 299.138L853.854 299.138L964.128 404.798Z" fill="#585892"/>
<path d="M930.28 404.798L934.037 404.798L823.763 299.138L820.006 299.138L930.28 404.798Z" fill="#585892"/>
<path d="M896.432 404.798L900.189 404.798L789.913 299.138L786.158 299.138L896.432 404.798Z" fill="#585892"/>
<path d="M862.584 404.798L866.341 404.798L756.068 299.138L752.311 299.138L862.584 404.798Z" fill="#585892"/>
<path d="M1024.98 302.735L1024.98 299.137L914.71 193.476L914.71 197.077L1024.98 302.735Z" fill="#585892"/>
<path d="M830.615 404.798L720.341 299.138L720.341 302.736L826.86 404.798L830.615 404.798Z" fill="#585892"/>
<path d="M830.626 535.781L830.626 532.181L720.354 426.523L720.354 430.123L830.626 535.781Z" fill="#585892"/>
<path d="M830.626 567.619L830.626 564.021L720.354 458.361L720.354 461.961L830.626 567.619Z" fill="#585892"/>
<path d="M830.626 599.457L830.626 595.859L720.354 490.199L720.354 493.799L830.626 599.457Z" fill="#585892"/>
<path d="M803.62 606.007L807.378 606.007L697.101 500.346L693.347 500.346L803.62 606.007Z" fill="#585892"/>
<path d="M769.772 606.007L773.529 606.007L663.255 500.346L659.498 500.346L769.772 606.007Z" fill="#585892"/>
<path d="M735.925 606.007L739.682 606.007L629.408 500.346L625.651 500.346L735.925 606.007Z" fill="#585892"/>
<path d="M702.077 606.007L705.834 606.007L595.557 500.346L591.803 500.346L702.077 606.007Z" fill="#585892"/>
<path d="M668.227 606.006L671.984 606.006L561.71 500.344L557.953 500.344L668.227 606.006Z" fill="#585892"/>
<path d="M830.626 503.943L830.626 500.345L720.354 394.685L720.354 398.285L830.626 503.943Z" fill="#585892"/>
<path d="M636.259 606.006L525.985 500.344L525.985 503.944L632.504 606.006L636.259 606.006Z" fill="#585892"/>
<path d="M830.626 123.251L830.626 119.653L720.354 13.9927L720.354 17.5929L830.626 123.251Z" fill="#585892"/>
<path d="M830.626 155.089L830.626 151.489L720.354 45.8308L720.354 49.431L830.626 155.089Z" fill="#585892"/>
<path d="M830.626 186.927L830.626 183.329L720.354 77.6689L720.354 81.2692L830.626 186.927Z" fill="#585892"/>
<path d="M803.62 193.478L807.378 193.478L697.101 87.8176L693.347 87.8176L803.62 193.478Z" fill="#585892"/>
<path d="M769.772 193.478L773.529 193.478L663.255 87.8176L659.498 87.8176L769.772 193.478Z" fill="#585892"/>
<path d="M735.925 193.478L739.682 193.478L629.408 87.8176L625.651 87.8176L735.925 193.478Z" fill="#585892"/>
<path d="M702.077 193.478L705.834 193.478L595.557 87.8176L591.803 87.8176L702.077 193.478Z" fill="#585892"/>
<path d="M668.227 193.478L671.984 193.478L561.71 87.8176L557.953 87.8176L668.227 193.478Z" fill="#585892"/>
<path d="M830.625 87.8145L739.425 0.428711L735.67 0.428711L830.625 91.4124L830.625 87.8145Z" fill="#585892"/>
<path d="M636.259 193.478L525.985 87.8176L525.985 91.4155L632.504 193.478L636.259 193.478Z" fill="#585892"/>
<path d="M720.344 747.103L720.344 743.503L610.072 637.844L610.072 641.445L720.344 747.103Z" fill="#585892"/>
<path d="M720.344 715.263L720.344 711.666L610.072 606.005L610.072 609.605L720.344 715.263Z" fill="#585892"/>
<path d="M720.344 334.574L720.344 330.976L610.072 225.316L610.072 228.916L720.344 334.574Z" fill="#585892"/>
<path d="M720.344 366.412L720.344 362.814L610.072 257.154L610.072 260.754L720.344 366.412Z" fill="#585892"/>
<path d="M720.344 398.249L720.344 394.651L610.072 288.99L610.072 292.591L720.344 398.249Z" fill="#585892"/>
<path d="M693.34 404.798L697.097 404.798L586.821 299.138L583.066 299.138L693.34 404.798Z" fill="#585892"/>
<path d="M659.49 404.798L663.247 404.798L552.973 299.138L549.216 299.138L659.49 404.798Z" fill="#585892"/>
<path d="M625.643 404.798L629.4 404.798L519.126 299.138L515.369 299.138L625.643 404.798Z" fill="#585892"/>
<path d="M591.794 404.798L595.551 404.798L485.275 299.138L481.521 299.138L591.794 404.798Z" fill="#585892"/>
<path d="M557.946 404.798L561.703 404.798L451.429 299.138L447.672 299.138L557.946 404.798Z" fill="#585892"/>
<path d="M720.344 302.735L720.344 299.137L610.072 193.476L610.072 197.077L720.344 302.735Z" fill="#585892"/>
<path d="M525.976 404.798L415.702 299.138L415.702 302.736L522.221 404.798L525.976 404.798Z" fill="#585892"/>
<path d="M525.989 535.781L525.989 532.181L415.718 426.523L415.718 430.123L525.989 535.781Z" fill="#585892"/>
<path d="M525.989 567.619L525.989 564.019L415.718 458.361L415.718 461.961L525.989 567.619Z" fill="#585892"/>
<path d="M525.989 599.457L525.989 595.857L415.718 490.199L415.718 493.799L525.989 599.457Z" fill="#585892"/>
<path d="M498.985 606.006L502.742 606.006L392.466 500.344L388.711 500.344L498.985 606.006Z" fill="#585892"/>
<path d="M465.135 606.006L468.892 606.006L358.618 500.344L354.861 500.344L465.135 606.006Z" fill="#585892"/>
<path d="M431.287 606.006L435.044 606.006L324.77 500.344L321.013 500.344L431.287 606.006Z" fill="#585892"/>
<path d="M397.44 606.006L401.197 606.006L290.921 500.344L287.166 500.344L397.44 606.006Z" fill="#585892"/>
<path d="M363.591 606.006L367.348 606.006L257.074 500.344L253.317 500.344L363.591 606.006Z" fill="#585892"/>
<path d="M525.989 503.943L525.989 500.345L415.718 394.685L415.718 398.285L525.989 503.943Z" fill="#585892"/>
<path d="M331.621 606.007L221.348 500.346L221.348 503.944L327.864 606.007L331.621 606.007Z" fill="#585892"/>
<path d="M525.989 123.251L525.989 119.653L415.718 13.9927L415.718 17.5929L525.989 123.251Z" fill="#585892"/>
<path d="M525.989 155.089L525.989 151.491L415.718 45.8308L415.718 49.431L525.989 155.089Z" fill="#585892"/>
<path d="M525.989 186.929L525.989 183.331L415.718 77.6702L415.718 81.2704L525.989 186.929Z" fill="#585892"/>
<path d="M498.985 193.478L502.742 193.478L392.466 87.8176L388.711 87.8176L498.985 193.478Z" fill="#585892"/>
<path d="M465.135 193.478L468.892 193.478L358.618 87.8176L354.861 87.8176L465.135 193.478Z" fill="#585892"/>
<path d="M431.287 193.478L435.044 193.478L324.77 87.8176L321.013 87.8176L431.287 193.478Z" fill="#585892"/>
<path d="M397.44 193.478L401.197 193.478L290.921 87.8176L287.166 87.8176L397.44 193.478Z" fill="#585892"/>
<path d="M363.591 193.478L367.348 193.478L257.074 87.8176L253.317 87.8176L363.591 193.478Z" fill="#585892"/>
<path d="M525.988 87.8145L434.788 0.428709L431.033 0.428709L525.988 91.4124L525.988 87.8145Z" fill="#585892"/>
<path d="M331.621 193.478L221.348 87.8176L221.348 91.4155L327.864 193.478L331.621 193.478Z" fill="#585892"/>
<path d="M415.708 747.103L415.708 743.503L305.437 637.844L305.437 641.445L415.708 747.103Z" fill="#585892"/>
<path d="M415.708 715.265L415.708 711.667L305.437 606.006L305.437 609.607L415.708 715.265Z" fill="#585892"/>
<path d="M415.708 334.574L415.708 330.976L305.437 225.316L305.437 228.916L415.708 334.574Z" fill="#585892"/>
<path d="M415.708 366.412L415.708 362.812L305.437 257.154L305.437 260.754L415.708 366.412Z" fill="#585892"/>
<path d="M415.708 398.249L415.708 394.651L305.437 288.99L305.437 292.591L415.708 398.249Z" fill="#585892"/>
<path d="M388.703 404.798L392.46 404.798L282.183 299.138L278.429 299.138L388.703 404.798Z" fill="#585892"/>
<path d="M354.854 404.798L358.611 404.798L248.337 299.138L244.58 299.138L354.854 404.798Z" fill="#585892"/>
<path d="M321.006 404.798L324.763 404.798L214.49 299.138L210.732 299.138L321.006 404.798Z" fill="#585892"/>
<path d="M287.159 404.798L290.916 404.798L180.639 299.138L176.885 299.138L287.159 404.798Z" fill="#585892"/>
<path d="M253.31 404.798L257.067 404.798L146.793 299.138L143.036 299.138L253.31 404.798Z" fill="#585892"/>
<path d="M415.708 302.735L415.708 299.137L305.437 193.476L305.437 197.077L415.708 302.735Z" fill="#585892"/>
<path d="M221.338 404.798L111.064 299.138L111.064 302.736L217.581 404.798L221.338 404.798Z" fill="#585892"/>
<path d="M221.35 535.781L221.35 532.181L111.079 426.523L111.079 430.123L221.35 535.781Z" fill="#585892"/>
<path d="M221.35 567.621L221.35 564.02L111.079 458.362L111.079 461.963L221.35 567.621Z" fill="#585892"/>
<path d="M221.35 599.457L221.35 595.859L111.079 490.199L111.079 493.799L221.35 599.457Z" fill="#585892"/>
<path d="M194.348 606.007L198.105 606.007L87.8289 500.346L84.0742 500.346L194.348 606.007Z" fill="#585892"/>
<path d="M160.499 606.007L164.256 606.007L53.9827 500.346L50.2256 500.346L160.499 606.007Z" fill="#585892"/>
<path d="M126.651 606.007L130.408 606.007L20.134 500.346L16.377 500.346L126.651 606.007Z" fill="#585892"/>
<path d="M0 513.488L-1.71383e-07 517.088L92.8021 606.008L96.5567 606.008L0 513.488Z" fill="#585892"/>
<path d="M0 545.919L-1.71383e-07 549.519L58.952 606.007L62.7115 606.007L0 545.919Z" fill="#585892"/>
<path d="M221.35 503.943L221.35 500.345L111.079 394.685L111.079 398.285L221.35 503.943Z" fill="#585892"/>
<path d="M0 580.152L-1.71272e-07 583.75L23.2271 606.007L26.9842 606.007L0 580.152Z" fill="#585892"/>
<path d="M221.35 123.251L221.35 119.653L111.079 13.9927L111.079 17.5929L221.35 123.251Z" fill="#585892"/>
<path d="M221.35 155.089L221.35 151.489L111.079 45.8308L111.079 49.431L221.35 155.089Z" fill="#585892"/>
<path d="M221.35 186.929L221.35 183.331L111.079 77.6702L111.079 81.2704L221.35 186.929Z" fill="#585892"/>
<path d="M194.348 193.478L198.105 193.478L87.8289 87.8176L84.0742 87.8176L194.348 193.478Z" fill="#585892"/>
<path d="M160.499 193.478L164.256 193.478L53.9827 87.8176L50.2256 87.8176L160.499 193.478Z" fill="#585892"/>
<path d="M126.651 193.478L130.408 193.478L20.134 87.8176L16.377 87.8176L126.651 193.478Z" fill="#585892"/>
<path d="M0 100.958L-1.71383e-07 104.558L92.8021 193.478L96.5567 193.478L0 100.958Z" fill="#585892"/>
<path d="M0 133.39L-1.71383e-07 136.99L58.952 193.479L62.7115 193.479L0 133.39Z" fill="#585892"/>
<path d="M221.351 87.8145L130.151 0.428709L126.396 0.428709L221.351 91.4124L221.351 87.8145Z" fill="#585892"/>
<path d="M0 167.624L-1.71272e-07 171.221L23.2271 193.479L26.9842 193.479L0 167.624Z" fill="#585892"/>
<path d="M111.07 743.503L0.800781 637.843L0.800781 641.443L111.07 747.104L111.07 743.503Z" fill="#585892"/>
<path d="M111.07 711.664L0.800781 606.006L0.800781 609.607L111.07 715.262L111.07 711.664Z" fill="#585892"/>
<path d="M111.07 330.976L0.800781 225.316L0.800781 228.916L111.07 334.576L111.07 330.976Z" fill="#585892"/>
<path d="M111.07 362.812L0.800781 257.154L0.800781 260.754L111.07 366.412L111.07 362.812Z" fill="#585892"/>
<path d="M111.07 394.651L0.800781 288.993L0.800781 292.593L111.07 398.252L111.07 394.651Z" fill="#585892"/>
<path d="M0 320.65L-1.71272e-07 324.248L84.0662 404.8L87.8208 404.8L0 320.65Z" fill="#585892"/>
<path d="M0 353.083L-1.71272e-07 356.68L50.2186 404.798L53.9732 404.798L0 353.083Z" fill="#585892"/>
<path d="M0 385.516L-1.71272e-07 389.114L16.3686 404.799L20.1257 404.799L0 385.516Z" fill="#585892"/>
<path d="M111.07 299.136L0.800781 193.478L0.800781 197.078L111.07 302.734L111.07 299.136Z" fill="#585892"/>
</g>
</svg>
