<svg width="520" height="251" viewBox="0 0 520 251" fill="none" xmlns="http://www.w3.org/2000/svg">
<g opacity="0.1">
<path d="M571.454 100.484L573.556 100.484L511.887 35.0336L509.787 35.0336L571.454 100.484Z" fill="#585892"/>
<path d="M552.524 100.484L554.625 100.484L492.958 35.0336L490.857 35.0336L552.524 100.484Z" fill="#585892"/>
<path d="M534.646 100.484L472.979 35.0336L472.979 37.2623L532.545 100.484L534.646 100.484Z" fill="#585892"/>
<path d="M534.653 181.621L534.653 179.391L472.987 113.941L472.987 116.171L534.653 181.621Z" fill="#585892"/>
<path d="M534.653 201.343L534.653 199.115L472.987 133.664L472.987 135.894L534.653 201.343Z" fill="#585892"/>
<path d="M534.653 221.065L534.653 218.836L472.987 153.386L472.987 155.616L534.653 221.065Z" fill="#585892"/>
<path d="M519.552 225.122L521.653 225.122L459.984 159.671L457.885 159.671L519.552 225.122Z" fill="#585892"/>
<path d="M500.623 225.122L502.724 225.122L441.057 159.671L438.956 159.671L500.623 225.122Z" fill="#585892"/>
<path d="M481.694 225.122L483.795 225.122L422.128 159.671L420.027 159.671L481.694 225.122Z" fill="#585892"/>
<path d="M462.766 225.122L464.867 225.122L403.198 159.671L401.099 159.671L462.766 225.122Z" fill="#585892"/>
<path d="M443.838 225.122L445.939 225.122L384.271 159.67L382.17 159.671L443.838 225.122Z" fill="#585892"/>
<path d="M534.653 161.899L534.653 159.67L472.987 94.2195L472.987 96.4497L534.653 161.899Z" fill="#585892"/>
<path d="M425.959 225.122L364.292 159.671L364.292 161.9L423.858 225.122L425.959 225.122Z" fill="#585892"/>
<path d="M472.981 312.523L472.981 310.293L411.315 244.844L411.315 247.074L472.981 312.523Z" fill="#585892"/>
<path d="M472.981 292.8L472.981 290.572L411.315 225.121L411.315 227.351L472.981 292.8Z" fill="#585892"/>
<path d="M472.981 56.9837L472.981 54.755L411.315 -10.6958L411.315 -8.46566L472.981 56.9837Z" fill="#585892"/>
<path d="M472.981 76.7061L472.981 74.4759L411.315 9.02661L411.315 11.2567L472.981 76.7061Z" fill="#585892"/>
<path d="M472.981 96.4273L472.981 94.1986L411.315 28.7478L411.315 30.9779L472.981 96.4273Z" fill="#585892"/>
<path d="M457.88 100.484L459.981 100.484L398.313 35.0336L396.213 35.0336L457.88 100.484Z" fill="#585892"/>
<path d="M438.951 100.484L441.052 100.484L379.385 35.0336L377.284 35.0336L438.951 100.484Z" fill="#585892"/>
<path d="M420.023 100.484L422.124 100.484L360.456 35.0336L358.355 35.0336L420.023 100.484Z" fill="#585892"/>
<path d="M401.094 100.484L403.195 100.484L341.527 35.0336L339.427 35.0336L401.094 100.484Z" fill="#585892"/>
<path d="M382.166 100.484L384.267 100.484L322.6 35.0336L320.499 35.0336L382.166 100.484Z" fill="#585892"/>
<path d="M472.981 37.2619L472.981 35.0332L411.315 -30.4176L411.315 -28.1875L472.981 37.2619Z" fill="#585892"/>
<path d="M364.288 100.484L302.62 35.0336L302.62 37.2623L362.188 100.484L364.288 100.484Z" fill="#585892"/>
<path d="M364.294 181.621L364.294 179.391L302.628 113.941L302.628 116.171L364.294 181.621Z" fill="#585892"/>
<path d="M364.294 201.343L364.294 199.115L302.628 133.664L302.628 135.894L364.294 201.343Z" fill="#585892"/>
<path d="M364.294 221.065L364.294 218.836L302.628 153.386L302.628 155.616L364.294 221.065Z" fill="#585892"/>
<path d="M349.192 225.122L351.293 225.122L289.624 159.671L287.524 159.671L349.192 225.122Z" fill="#585892"/>
<path d="M330.263 225.122L332.364 225.122L270.697 159.671L268.596 159.671L330.263 225.122Z" fill="#585892"/>
<path d="M311.335 225.122L313.436 225.122L251.769 159.671L249.668 159.671L311.335 225.122Z" fill="#585892"/>
<path d="M292.407 225.122L294.508 225.122L232.839 159.671L230.74 159.671L292.407 225.122Z" fill="#585892"/>
<path d="M273.477 225.122L275.578 225.122L213.911 159.67L211.81 159.67L273.477 225.122Z" fill="#585892"/>
<path d="M364.294 161.899L364.294 159.67L302.628 94.2195L302.628 96.4497L364.294 161.899Z" fill="#585892"/>
<path d="M255.6 225.122L193.932 159.67L193.932 161.9L253.5 225.122L255.6 225.122Z" fill="#585892"/>
<path d="M302.622 312.523L302.622 310.293L240.956 244.844L240.956 247.074L302.622 312.523Z" fill="#585892"/>
<path d="M302.622 292.8L302.622 290.572L240.956 225.121L240.956 227.351L302.622 292.8Z" fill="#585892"/>
<path d="M302.622 56.9843L302.622 54.7556L240.956 -10.6952L240.956 -8.46505L302.622 56.9843Z" fill="#585892"/>
<path d="M302.622 76.7061L302.622 74.4774L240.956 9.02661L240.956 11.2567L302.622 76.7061Z" fill="#585892"/>
<path d="M302.622 96.4273L302.622 94.1986L240.956 28.7478L240.956 30.9779L302.622 96.4273Z" fill="#585892"/>
<path d="M287.521 100.484L289.622 100.484L227.953 35.0336L225.854 35.0336L287.521 100.484Z" fill="#585892"/>
<path d="M268.591 100.484L270.692 100.484L209.024 35.0336L206.923 35.0336L268.591 100.484Z" fill="#585892"/>
<path d="M249.663 100.484L251.765 100.484L190.097 35.0336L187.996 35.0336L249.663 100.484Z" fill="#585892"/>
<path d="M230.734 100.484L232.835 100.484L171.167 35.0336L169.067 35.0336L230.734 100.484Z" fill="#585892"/>
<path d="M211.806 100.484L213.907 100.484L152.239 35.0336L150.138 35.0336L211.806 100.484Z" fill="#585892"/>
<path d="M302.622 37.2619L302.622 35.0332L240.956 -30.4176L240.956 -28.1875L302.622 37.2619Z" fill="#585892"/>
<path d="M193.927 100.484L132.26 35.0336L132.26 37.2623L191.827 100.484L193.927 100.484Z" fill="#585892"/>
<path d="M193.935 181.621L193.935 179.391L132.269 113.941L132.269 116.171L193.935 181.621Z" fill="#585892"/>
<path d="M193.935 201.343L193.935 199.113L132.269 133.664L132.269 135.894L193.935 201.343Z" fill="#585892"/>
<path d="M193.936 221.065L193.936 218.835L132.27 153.386L132.27 155.616L193.936 221.065Z" fill="#585892"/>
<path d="M178.834 225.122L180.935 225.122L119.266 159.67L117.166 159.67L178.834 225.122Z" fill="#585892"/>
<path d="M159.904 225.122L162.005 225.122L100.338 159.67L98.2368 159.67L159.904 225.122Z" fill="#585892"/>
<path d="M140.976 225.122L143.077 225.122L81.4096 159.67L79.3086 159.67L140.976 225.122Z" fill="#585892"/>
<path d="M122.048 225.122L124.149 225.122L62.4801 159.67L60.3804 159.67L122.048 225.122Z" fill="#585892"/>
<path d="M103.119 225.122L105.22 225.122L43.5529 159.669L41.4519 159.669L103.119 225.122Z" fill="#585892"/>
<path d="M193.935 161.899L193.935 159.67L132.269 94.2195L132.269 96.4497L193.935 161.899Z" fill="#585892"/>
<path d="M85.2406 225.122L23.5732 159.671L23.5732 161.9L83.1396 225.122L85.2406 225.122Z" fill="#585892"/>
<path d="M132.263 312.523L132.263 310.293L70.5969 244.844L70.5969 247.074L132.263 312.523Z" fill="#585892"/>
<path d="M132.263 292.801L132.263 290.573L70.5969 225.122L70.5969 227.352L132.263 292.801Z" fill="#585892"/>
<path d="M132.263 56.9843L132.263 54.7556L70.5969 -10.6952L70.5969 -8.46505L132.263 56.9843Z" fill="#585892"/>
<path d="M132.263 76.7061L132.263 74.4759L70.5969 9.02661L70.5969 11.2567L132.263 76.7061Z" fill="#585892"/>
<path d="M132.264 96.4273L132.264 94.1986L70.5981 28.7478L70.5981 30.9779L132.264 96.4273Z" fill="#585892"/>
<path d="M117.162 100.484L119.263 100.484L57.5946 35.0336L55.4949 35.0336L117.162 100.484Z" fill="#585892"/>
<path d="M98.2328 100.484L100.334 100.484L38.6665 35.0336L36.5654 35.0336L98.2328 100.484Z" fill="#585892"/>
<path d="M79.3043 100.484L81.4054 100.484L19.738 35.0336L17.637 35.0336L79.3043 100.484Z" fill="#585892"/>
<path d="M60.3761 100.484L62.4772 100.484L0.808427 35.0336L-1.29126 35.0336L60.3761 100.484Z" fill="#585892"/>
<path d="M41.4467 100.484L43.5477 100.484L-18.1197 35.0336L-20.2207 35.0336L41.4467 100.484Z" fill="#585892"/>
<path d="M132.263 37.2619L132.263 35.0332L70.5969 -30.4176L70.5969 -28.1875L132.263 37.2619Z" fill="#585892"/>
<path d="M23.568 100.484L-38.0994 35.0336L-38.0994 37.2623L21.467 100.484L23.568 100.484Z" fill="#585892"/>
<path d="M23.5745 181.621L23.5745 179.391L-38.0916 113.941L-38.0916 116.171L23.5745 181.621Z" fill="#585892"/>
<path d="M23.5755 201.344L23.5755 199.114L-38.0906 133.664L-38.0906 135.895L23.5755 201.344Z" fill="#585892"/>
<path d="M23.5745 221.065L23.5745 218.836L-38.0916 153.386L-38.0916 155.616L23.5745 221.065Z" fill="#585892"/>
<path d="M8.47451 225.122L10.5756 225.122L-51.0932 159.671L-53.1929 159.671L8.47451 225.122Z" fill="#585892"/>
<path d="M23.5745 161.899L23.5745 159.67L-38.0916 94.2195L-38.0916 96.4497L23.5745 161.899Z" fill="#585892"/>
</g>
</svg>
