<svg xmlns="http://www.w3.org/2000/svg" width="23" height="25" viewBox="0 0 60.62 66.68"><path fill="#ffffff" d="M1.52,56.07H12.13v9.09a1.46,1.46,0,0,0,1.52,1.52h7.91a1.5,1.5,0,0,0,1.06-.43,1.44,1.44,0,0,0,.45-1.09V56.07H47a1.46,1.46,0,0,0,1.52-1.52V48.5A1.46,1.46,0,0,0,47,47H23.06V41.39H39.17q9.47,0,15.46-5.78t6-14.92q0-9.13-6-14.92T39.17,0H13.64a1.46,1.46,0,0,0-1.52,1.51V31.3H1.52a1.45,1.45,0,0,0-1.09.45A1.5,1.5,0,0,0,0,32.82v7.05a1.46,1.46,0,0,0,1.52,1.52H12.13V47H1.52a1.49,1.49,0,0,0-1.09.43A1.47,1.47,0,0,0,0,48.5v6.06a1.46,1.46,0,0,0,1.52,1.52Zm21.55-46H38.22A11.24,11.24,0,0,1,46.32,13a10.11,10.11,0,0,1,3.08,7.67,10.1,10.1,0,0,1-3.08,7.67,11.22,11.22,0,0,1-8.1,2.94H23.06Zm0,0"/></svg>