<svg xmlns="http://www.w3.org/2000/svg" width="87" height="92" viewBox="0 0 33.51 35.29"><defs><style>.cls-1,.cls-2{fill:none;stroke:#03a9f4;stroke-width:1.44px;}.cls-1{stroke-linecap:round;stroke-linejoin:round;}.cls-2{stroke-miterlimit:22.93;}</style></defs><title>main-pref-2</title><path class="cls-1" d="M25,14.4a9.39,9.39,0,0,1,3.65,7.24,9.61,9.61,0,0,1-4.45,7.84l.87,4.37a.6.6,0,0,1-.66.71l-3.83,0a1,1,0,0,1-.92-.72l-.48-2.24a18.43,18.43,0,0,1-6.61,0l-.48,2.24a1,1,0,0,1-.92.72l-3.83,0a.6.6,0,0,1-.66-.71l.87-4.06a6.07,6.07,0,0,1-3.8-3.64H1.88c-.53,0-1.16,0-1.16-.78V21a1.1,1.1,0,0,1,1.13-1.24H3.3a9.35,9.35,0,0,1,2.14-4.12c-.16-2.05-1.13-3-2-4.74,3.23-.38,5.43.32,6.81,1.47a14.35,14.35,0,0,1,2.85-.75"/><path class="cls-1" d="M32.79,19.33c-.35.62-1.75,2.43-4.11.71"/><path class="cls-2" d="M20.7.72a5.81,5.81,0,1,1-5.81,5.81A5.81,5.81,0,0,1,20.7.72Z"/><path class="cls-1" d="M19.18,9a3.19,3.19,0,0,0,1.56.29c1.92-.06,2-2.67-.18-2.68S18.34,4,20.42,3.94a2.89,2.89,0,0,1,1.47.3"/><path class="cls-1" d="M7.56,18.83a4.69,4.69,0,0,0-.78,1"/></svg>