<svg xmlns="http://www.w3.org/2000/svg" width="28" height="31" viewBox="0 0 458.86 512"><path fill="#ffffff" d="M166.89,492a20,20,0,0,1-20,20H80A80.09,80.09,0,0,1,0,432V80A80.09,80.09,0,0,1,80,0H325.89a80.09,80.09,0,0,1,80,80V203a20,20,0,0,1-40,0V80a40,40,0,0,0-40-40H80A40,40,0,0,0,40,80V432a40,40,0,0,0,40,40h66.89A20,20,0,0,1,166.89,492Zm139-372h-206a20,20,0,0,0,0,40h206a20,20,0,0,0,0-40Zm20,100a20,20,0,0,0-20-20h-206a20,20,0,0,0,0,40h206A20,20,0,0,0,325.89,220Zm-226,60a20,20,0,0,0,0,40H225a20,20,0,0,0,0-40Zm341.43,94.43L331.74,483.79a20,20,0,0,1-8.79,5.12l-80.73,22.36a20,20,0,0,1-24.48-25.09l23.91-78.73a20,20,0,0,1,5-8.35l109.8-109.56a60,60,0,0,1,84.84,84.87Zm-60.46,3.83L352.57,350l-74.09,73.92L266.59,463l40.61-11.25ZM413,317.86a20,20,0,0,0-28.28,0l-3.86,3.85L409.17,350l3.88-3.87A20,20,0,0,0,413,317.86Z"/></svg>