<svg width="37" height="168" viewBox="0 0 37 168" fill="none" xmlns="http://www.w3.org/2000/svg">
<rect y="56" width="21" height="56" fill="white"/>
<path d="M16 84L7.85714e-07 112L3.23355e-06 56L16 84Z" fill="#585892"/>
<path d="M37 84L21 112L21 56L37 84Z" fill="white"/>
<rect y="112" width="21" height="56" fill="white"/>
<path d="M16 140L7.85714e-07 168L3.23355e-06 112L16 140Z" fill="#37AE35"/>
<path d="M37 140L21 168L21 112L37 140Z" fill="white"/>
<path d="M37 28L21 56L21 -6.99382e-07L37 28Z" fill="white"/>
<rect width="21" height="56" fill="white"/>
<path d="M16 28L7.85714e-07 56L3.23355e-06 -6.99382e-07L16 28Z" fill="#F8F8FC"/>
</svg>
