<svg xmlns="http://www.w3.org/2000/svg" width="36" height="36" viewBox="0 0 35.2 35.2"><path fill="#ee1313" d="M17.6,0A17.6,17.6,0,1,0,35.2,17.6,17.55,17.55,0,0,0,17.6,0Zm2.56,17.92,6,6a.77.77,0,0,1,0,1.12L25,26.16a.86.86,0,0,1-.56.24.71.71,0,0,1-.56-.24l-6-6a.39.39,0,0,0-.56,0l-6,6a.86.86,0,0,1-.56.24.73.73,0,0,1-.56-.24L9.12,25a.77.77,0,0,1,0-1.12l6-6a.39.39,0,0,0,0-.56l-6-6a.86.86,0,0,1-.24-.56.87.87,0,0,1,.24-.56l1.12-1.12a.87.87,0,0,1,.56-.24.86.86,0,0,1,.56.24l6,6a.39.39,0,0,0,.56,0l6-6a.85.85,0,0,1,.56-.24.73.73,0,0,1,.56.24l1.12,1.12a.87.87,0,0,1,.24.56.86.86,0,0,1-.24.56l-6,6c-.16.08-.16.4,0,.56Zm0,0"/></svg>