<svg xmlns="http://www.w3.org/2000/svg" width="58" height="42" viewBox="0 0 480 344.03"><circle fill="#005fb6" cx="311.99" cy="295.99" r="8"/><path fill="#005fb6" d="M299.06,128.53a8.06,8.06,0,0,0-9.42,2.65,7.87,7.87,0,0,0-1.19,2.26,8.07,8.07,0,0,0,2.61,8.8h0a8.17,8.17,0,0,0,.74.53,9.25,9.25,0,0,0,1.29.66,8.2,8.2,0,0,0,3,.61,8.32,8.32,0,0,0,1.72-.18,8.06,8.06,0,0,0,4.7-3,7.2,7.2,0,0,0,.65-1l.11-.22a8.09,8.09,0,0,0-2.18-9.88A8.26,8.26,0,0,0,299.06,128.53Z"/><path fill="#005fb6" d="M61.08,216.5a8.08,8.08,0,0,0-4.64,10,8.39,8.39,0,0,0,.43,1,8.08,8.08,0,0,0,7.2,4.45,7.89,7.89,0,0,0,2.52-.42,8.07,8.07,0,0,0,5.41-9,8.34,8.34,0,0,0-.74-2.26A8.1,8.1,0,0,0,61.08,216.5Z"/><path fill="#005fb6" d="M472,104a8,8,0,0,0,0-16H408a8,8,0,0,0-8,8v88H344V152a64.63,64.63,0,0,0-54.68-63.89A8.09,8.09,0,0,0,288,88H267.34L181.69,2.37A8,8,0,0,0,168,8v96a8,8,0,0,0,8,8,23.94,23.94,0,0,1,1.68,47.83,22.34,22.34,0,0,0-18.26-8.2L137.24,90.73A8,8,0,0,0,127,85.93L58.1,110.78,21.69,74.37A8,8,0,0,0,16,72H8A8,8,0,0,0,8,88h4.72L50.4,125.69a8,8,0,0,0,8.37,1.86L125,103.69l19.16,52.65-15,5.48a8,8,0,0,0-4.8,10.24h0l8.18,22.5-25.3,9a47.56,47.56,0,0,0-59.58-24.65,48.06,48.06,0,0,0-28.69,61.53h0a48,48,0,0,0,92.8-21.5l33.74-12h.06l25-9.12a21.74,21.74,0,0,0,13.27-22.59,40,40,0,0,0,.14-78.4V27.34l72,72V184H216a8,8,0,0,0-8,8v64.85A23.64,23.64,0,0,0,192,280a22.81,22.81,0,0,0,21.33,24h51.39a47.83,47.83,0,0,0,11.6,24H8a8,8,0,0,0,0,16H472a8,8,0,0,0,0-16H347.71a47.83,47.83,0,0,0,11.6-24H472a8,8,0,0,0,0-16H359.31a47.94,47.94,0,0,0-94.56,0H248V264a8,8,0,0,0-8-8H224V200H472a8,8,0,0,0,0-16H416V104ZM75,254.09A32.08,32.08,0,0,1,34,235h0a32,32,0,1,1,41,19.13Zm90.1-71.34-17.54,6.4-5.47-15,15-5.48h0l2.5-.91c2.4-.86,6.14,1.26,7.75,5.7S167.46,181.89,165.09,182.76ZM312,264a32,32,0,1,1-32,32A32,32,0,0,1,312,264Zm-80,24H213.36c-2.52,0-5.33-3.29-5.33-8s2.81-8,5.33-8H232Zm40-184h15.34A48.52,48.52,0,0,1,328,152v32H272Z"/></svg>