<svg xmlns="http://www.w3.org/2000/svg" width="60" height="51" viewBox="0 0 512 435.12"><path fill="#005fb6" d="M499.82,250.11,485.07,261.8,365.93,105.37,434,61.66A7.51,7.51,0,0,0,425.93,49L351,97.12A7.59,7.59,0,0,0,349,108l13.64,17.91-9.7,7.43-38.52-12.72a7.66,7.66,0,0,0-2.36-.38H223.94a7.52,7.52,0,0,0-7.29,5.69l-5,19.85-12.52-5.27a7.52,7.52,0,0,0-3.79-.54L160.53,144l-11.84-6.87L160,117.67a7.59,7.59,0,0,0-2.75-10.27L11.27,23.15a7.51,7.51,0,1,0-7.51,13l114.37,66-98.71,171-8.15-4.7a7.51,7.51,0,1,0-7.51,13L43.47,304.4a7.59,7.59,0,0,0,10.27-2.75l5.75-10,16.21,8.65a31.56,31.56,0,0,0,37.78,44.52,30.82,30.82,0,0,0,6.21,18.55,31.8,31.8,0,0,0,34.85,11,31.52,31.52,0,0,0,26.54,30.7,32,32,0,0,0,5.07.41,31.24,31.24,0,0,0,9.56-1.5,31.56,31.56,0,0,0,26.56,30.66,31.84,31.84,0,0,0,5.07.4,31.32,31.32,0,0,0,18.43-6l17.53-12.69a31.43,31.43,0,0,0,9.06-10.17l30.84,16.81a31.56,31.56,0,0,0,46.47-31.23,31.53,31.53,0,0,0,37.08-34.56,31.56,31.56,0,0,0,37.11-34.54,31.16,31.16,0,0,0,5.69.53,31.7,31.7,0,0,0,9-1.3,31.56,31.56,0,0,0,21.36-39.19,31.88,31.88,0,0,0-2.23-5.57l13.18-9.36,7,9.14a7.59,7.59,0,0,0,10.65,1.33l20.74-16.45a7.52,7.52,0,0,0-9.34-11.78ZM44.48,287.63l-12-7,98.71-171,12,7Zm45.83,36.92A16.55,16.55,0,0,1,94,301.46L147.17,263a16.53,16.53,0,0,1,19.39,26.78L113.4,328.25A16.55,16.55,0,0,1,90.31,324.55Zm41.37,29.83c-5.57-7.4-3.42-18.33,3.95-23.66L175.37,302a27.12,27.12,0,0,1,4.4-2.67,16.43,16.43,0,0,1,19.51,5.19,16.68,16.68,0,0,1-3.42,23.46l-41.29,29.87A16.61,16.61,0,0,1,131.68,354.37Zm51.76,35.94a16.53,16.53,0,0,1-7.08-29.71l28.32-20.49,1.1-.8a16.45,16.45,0,0,1,22.8,3.32,16.69,16.69,0,0,1-3.42,23.46l-29.41,21.28A16.41,16.41,0,0,1,183.45,390.31Zm77.69,2.94a16.4,16.4,0,0,1-6.67,11l-17.53,12.69a16.53,16.53,0,0,1-19.38-26.79L234,378.28l1.11-.81a16.63,16.63,0,0,1,22.8,3.32A16.39,16.39,0,0,1,261.14,393.25Zm182.95-93.64a16.69,16.69,0,0,1-22.43,6.6l-86.88-47.36a7.52,7.52,0,0,0-7.19,13.2l72.81,39.68a16.53,16.53,0,1,1-15.82,29l-73.87-40.26a7.51,7.51,0,0,0-7.19,13.2l59.81,32.6a16.53,16.53,0,0,1-15.84,29L284.86,341.2a7.52,7.52,0,0,0-7.19,13.2l48.54,26.46a16.53,16.53,0,1,1-15.82,29l-34-18.56a31.65,31.65,0,0,0-30-32c.14-.67.27-1.34.37-2A31.65,31.65,0,0,0,217,321.12c.14-.67.27-1.34.37-2A31.65,31.65,0,0,0,187.73,283c.14-.67.27-1.34.37-2a31.31,31.31,0,0,0-6.2-23.78h0a31.4,31.4,0,0,0-43.53-6.35L85.92,288.77,67,278.67l74.18-128.49,14,8.11a7.53,7.53,0,0,0,4.65,1l35.36-4.14L208,160.53l-7.38,29.53a7.55,7.55,0,0,0-.22,1.82V256a39.58,39.58,0,0,0,79.15,0V194l1.37-2.19,156.57,85.34A16.69,16.69,0,0,1,444.09,299.61Zm3.58-33.76a32.09,32.09,0,0,0-3-1.86L288.89,179.08l5.78-9.25a7.52,7.52,0,0,0-12.75-8l-16.27,26a7.52,7.52,0,0,0-1.14,4V256a24.55,24.55,0,0,1-49.1,0V192.8l14.38-57.54h81.1L352,148.86a7.58,7.58,0,0,0,6.92-1.17l12.83-9.82,89.9,118Z"/><path fill="#005fb6" d="M462.39,42.05a7.48,7.48,0,0,0,4.05-1.19l42.1-27a7.51,7.51,0,0,0-8.12-12.65l-42.1,27a7.52,7.52,0,0,0,4.06,13.84Z"/></svg>