<svg xmlns="http://www.w3.org/2000/svg" width="38" height="38" viewBox="0 0 207.89 207.89"><path fill="#ff6200" d="M103.94,0A103.94,103.94,0,1,0,207.89,103.94,104,104,0,0,0,103.94,0Zm0,198.87a94.93,94.93,0,1,1,94.93-94.93A95,95,0,0,1,103.94,198.87Z"/><path fill="#ff6200" d="M158,81.4H126.49V49.84A4.49,4.49,0,0,0,122,45.33H85.91a4.49,4.49,0,0,0-4.51,4.51V81.4H49.84a4.49,4.49,0,0,0-4.51,4.51V122a4.49,4.49,0,0,0,4.51,4.51H81.4V158a4.49,4.49,0,0,0,4.51,4.51H122a4.49,4.49,0,0,0,4.51-4.51V126.49H158a4.49,4.49,0,0,0,4.51-4.51V85.91A4.84,4.84,0,0,0,158,81.4Zm-4.51,36.07H122a4.49,4.49,0,0,0-4.51,4.51v31.56H90.42V122a4.49,4.49,0,0,0-4.51-4.51H54.35V90.42H85.91a4.49,4.49,0,0,0,4.51-4.51V54.35h27.3V85.91a4.49,4.49,0,0,0,4.51,4.51h31.56v27.05Z"/></svg>