<svg xmlns="http://www.w3.org/2000/svg" width="39" height="41" viewBox="0 0 65.95 68.82"><path fill="#ff6200" d="M58.79,68.82H7.17a1.43,1.43,0,0,1-1.43-1.43V35.84a1.43,1.43,0,0,1,2.87,0V66H57.35V35.84a1.43,1.43,0,0,1,2.87,0V67.39A1.43,1.43,0,0,1,58.79,68.82Z"/><path fill="#ff6200" d="M64.52,34.41A1.43,1.43,0,0,1,63.09,33V30.74L33,3.37,2.87,30.74V33A1.43,1.43,0,1,1,0,33V30.11A1.44,1.44,0,0,1,.47,29L32,.37a1.44,1.44,0,0,1,1.93,0L65.49,29A1.44,1.44,0,0,1,66,30.11V33A1.43,1.43,0,0,1,64.52,34.41Z"/><path fill="#ff6200" d="M41.58,54.48H24.37A1.43,1.43,0,0,1,22.94,53V33a1.43,1.43,0,0,1,1.43-1.43H41.58A1.43,1.43,0,0,1,43,33V53A1.43,1.43,0,0,1,41.58,54.48ZM25.81,51.62H40.15V34.41H25.81Z"/></svg>