<svg xmlns="http://www.w3.org/2000/svg" width="49" height="32" viewBox="0 0 279.11 183.63"><path fill="#ff6200" d="M277.92,94.82a7.58,7.58,0,0,0-6.43-3.53H236.93a11.19,11.19,0,0,0-11.17,11.17,3,3,0,0,1,0,.36V76.47a6.87,6.87,0,0,0-6.87-6.87H188.94V39a5.29,5.29,0,0,0-5.29-5.29H112.46A5.29,5.29,0,0,0,107.17,39v66.45H94.51V81.27a5.4,5.4,0,0,0,5.39-5.4v-10a5.41,5.41,0,0,0-5.4-5.4H82.32V30.37a6.12,6.12,0,0,0-6.11-6.11H58.63V4.14a4.14,4.14,0,0,0-8.28,0V24.25H32.78a6.12,6.12,0,0,0-6.11,6.11v30.1H14.49a5.41,5.41,0,0,0-5.4,5.4v10a5.4,5.4,0,0,0,5.39,5.4v24.17H7.09A7.08,7.08,0,0,0,.15,114c3,14.08,10.18,27.81,20.83,39.71a4.53,4.53,0,0,1,1.07,2.2,4.61,4.61,0,0,1,.07.65s0,0,0,.07a4.61,4.61,0,0,1,0,.61s0,.08,0,.12a4.54,4.54,0,0,1-.12.56s0,.1,0,.15a4.59,4.59,0,0,1-.26.67l-6.68,14a7.63,7.63,0,0,0,6.89,10.92H235.26a7.64,7.64,0,0,0,6.89-4.38l36.23-77.13A7.58,7.58,0,0,0,277.92,94.82Zm-89-17h28.6v27.65h-28.6Zm-36.79-35.9h28.6V69.6h-28.6Zm0,35.9h28.6v27.65h-28.6Zm-36.79-35.9H144V69.6h-28.6Zm0,35.9H144v27.65h-28.6ZM34.86,32.44H74.13v28H34.86ZM17.28,68.66H91.7v4.42H45.39a4.1,4.1,0,1,0,0,8.19H86.32v24.17H22.67V81.27h3.46a4.1,4.1,0,1,0,0-8.19H17.28Zm-8.82,45,213.17.06c.23,0,.92,0,1.14-.06h0a11.19,11.19,0,0,0,11.17-11.17,3,3,0,0,1,3-3h33.65L246.38,151H205.79a4.1,4.1,0,0,0,0,8.19h36.75l-7.64,16.27H22.78l6.3-13.19c.13-.27.25-.55.36-.83l.1-.26c.07-.19.14-.38.2-.58l.1-.32q.07-.26.14-.52l.09-.38,0-.18H186.53a4.1,4.1,0,0,0,0-8.19H29a12.75,12.75,0,0,0-1.88-2.76c-9.5-10.61-15.76-22.24-18.63-34.6"/></svg>