<svg xmlns="http://www.w3.org/2000/svg" width="34" height="34" viewBox="0 0 496 495.76"><path fill="#ff6200" d="M360,463.76a24,24,0,1,0-24-24,24,24,0,0,0,24,24Zm0-32a8,8,0,1,1-8,8,8,8,0,0,1,8-8Zm0,0" transform="translate(0 0)"/><path fill="#ff6200" d="M424,239.76a8,8,0,0,0-5.66,2.34L366.43,294l-34.75-17.37,27-40.46a8,8,0,0,0,.15-8.65,7.9,7.9,0,0,0-7.8-3.73l-55,6.88V191.76a8,8,0,0,0-13.66-5.66L248,220.45,213.66,186.1A8,8,0,0,0,200,191.76V230.7l-55-6.87a7.92,7.92,0,0,0-7.8,3.73,8,8,0,0,0,.15,8.65l27,40.46L129.57,294,77.66,242.11A7.94,7.94,0,0,0,72,239.76H0v16H68.69l93.66,93.66a8,8,0,0,0,5.66,2.34h24v40a8,8,0,0,0,8,8h24v32H191.36a55.92,55.92,0,0,0-110.72,0H0v16H80.64a55.92,55.92,0,0,0,110.72,0H232a8,8,0,0,0,8-8v-80a24,24,0,0,0-24-24H203.31l18.34-18.34a8,8,0,0,0,2.18-7.22l-4.46-22.27,24.5,14.7a8,8,0,0,0,8.23,0l24.5-14.7-4.46,22.27a8,8,0,0,0,2.18,7.22l18.35,18.34H280a24,24,0,0,0-24,24v80a8,8,0,0,0,8,8h40.64a55.92,55.92,0,0,0,110.72,0H496v-16H415.36a55.92,55.92,0,0,0-110.72,0H272v-32h24a8,8,0,0,0,8-8v-40h24a8,8,0,0,0,5.66-2.34l93.66-93.66H496v-16Zm-288,240a40,40,0,1,1,40-40,40,40,0,0,1-40,40Zm224-80a40,40,0,1,1-40,40,40,40,0,0,1,40-40Zm-136-40v24H208v-32h8a8,8,0,0,1,8,8Zm64,24H272v-24a8,8,0,0,1,8-8h8Zm36.69-48h-9.38l-26.62-26.63,7.16-35.8a8,8,0,0,0-12-8.43L248,286.43l-35.88-21.53a8,8,0,0,0-12,8.43l7.16,35.8-26.63,26.63h-9.38L141.5,306l38.07-19a8,8,0,0,0,3.08-11.6l-22.3-33.45L207,247.69a8,8,0,0,0,9-7.93V211.07l26.34,26.34a8,8,0,0,0,11.31,0L280,211.07v28.69a8,8,0,0,0,9,7.95l46.66-5.83-22.3,33.45a8,8,0,0,0,3.08,11.6l38.07,19Zm0,0" transform="translate(0 0)"/><g class="cls-2"><path fill="#ff6200" d="M434.34,274.1l-40,40a8,8,0,0,0-2.34,5.66v24a8,8,0,0,0,8,8h96v-16H408V323.07l35.31-35.31H496v-16H440a8,8,0,0,0-5.66,2.34Zm0,0" transform="translate(0 0)"/><rect x="464" y="367.76" width="32" height="16"/></g><path fill="#ff6200" d="M136,415.76a24,24,0,1,0,24,24,24,24,0,0,0-24-24Zm0,32a8,8,0,1,1,8-8,8,8,0,0,1-8,8Zm0,0" transform="translate(0 0)"/><path fill="#ff6200" d="M104,343.76v-24a8,8,0,0,0-2.34-5.66l-40-40A8,8,0,0,0,56,271.76H0v16H52.69L88,323.07v12.69H0v16H96a8,8,0,0,0,8-8Zm0,0" transform="translate(0 0)"/><g class="cls-2"><rect y="367.76" width="32" height="16"/><path fill="#ff6200" d="M144,175.76H352a8,8,0,0,0,6.71-12.36l-104-160c-2.95-4.54-10.47-4.54-13.42,0l-104,160A8,8,0,0,0,144,175.76ZM248,22.44l89.26,137.32H158.74Zm0,0" transform="translate(0 0)"/></g><rect fill="#ff6200" x="240" y="127.76" width="16" height="16"/><rect fill="#ff6200" x="240" y="63.76" width="16" height="48"/></svg>