<svg xmlns="http://www.w3.org/2000/svg" width="41" height="37" viewBox="0 0 227.49 204.69"><path fill="#ff6200" d="M208.73,30.39H156.65l-4-16.18A18.73,18.73,0,0,0,134.41,0H93.08a18.74,18.74,0,0,0-18.2,14.21l-4,16.18H18.76A18.78,18.78,0,0,0,0,49.15V185.93a18.78,18.78,0,0,0,18.76,18.76h190a18.78,18.78,0,0,0,18.76-18.76V49.15A18.78,18.78,0,0,0,208.73,30.39ZM81.79,15.94A11.62,11.62,0,0,1,93.08,7.12h41.33a11.62,11.62,0,0,1,11.29,8.81l3.61,14.46H141l-3.12-12.5a3.56,3.56,0,0,0-3.46-2.7H93.08a3.56,3.56,0,0,0-3.46,2.7L86.5,30.39H78.18Zm51.85,14.46H93.84l2-8.07h35.76ZM18.76,37.52h190a11.61,11.61,0,0,1,8.88,4.13L194.48,111a15.42,15.42,0,0,1-14.64,10.55H128.7v-7.84a7.37,7.37,0,0,0-7.36-7.36h-15.2a7.37,7.37,0,0,0-7.36,7.36v7.84H47.65A15.42,15.42,0,0,1,33,111L9.88,41.65A11.61,11.61,0,0,1,18.76,37.52Zm102.82,91.66H105.91V113.74a.24.24,0,0,1,.24-.24h15.2a.24.24,0,0,1,.24.24Zm-15.67,7.12h15.67v7.84a.24.24,0,0,1-.24.24h-15.2a.24.24,0,0,1-.24-.24Zm102.82,61.26h-190A11.65,11.65,0,0,1,7.12,185.93v-130l19.12,57.37a22.53,22.53,0,0,0,21.4,15.42H98.78v15.43a7.37,7.37,0,0,0,7.36,7.36h15.2a7.37,7.37,0,0,0,7.36-7.36V128.7h51.13a22.53,22.53,0,0,0,21.4-15.42l19.12-57.37v130A11.65,11.65,0,0,1,208.73,197.57Z"/></svg>