<svg xmlns="http://www.w3.org/2000/svg" width="45" height="45" viewBox="0 0 207.93 207.89"><path fill="#ff6200" d="M104,27.72a79.71,79.71,0,1,0,79.71,79.71A79.8,79.8,0,0,0,104,27.72Zm0,152.48a72.78,72.78,0,1,1,72.78-72.78A72.86,72.86,0,0,1,104,180.21Z"/><path fill="#ff6200" d="M137.41,35.09a3.5,3.5,0,0,0-1-.29l-.8-.11A3.43,3.43,0,0,0,132.4,36a3.47,3.47,0,0,0-.45,3.44c2.38,5.69,5.22,17.19,1.59,19.83l-8,3.21a18,18,0,0,0-11.12,14.6l-.05.4a2.15,2.15,0,0,1-1.79,1.85,2.46,2.46,0,0,1-2.66-1.14l-3.44-5.74a6.61,6.61,0,0,0-11.67.58c-3.09,6.61-7,16.15-7.92,24a12.65,12.65,0,0,0,1.26,7.16l4,8a17.46,17.46,0,0,0,6.29,6.93c2.49,1.57,7.1,4.74,10,8.29a20.85,20.85,0,0,0,12.69,7.44c-.19,6.49.23,17.16,4.65,21.87a8,8,0,0,0,5.63,2.62,15,15,0,0,0,2,.12,16.89,16.89,0,0,0,10.79-3.83c5.47-4.52,8.27-12.47,8.33-23.63l5-22.34,1.89,3.14a10.55,10.55,0,0,0,15.38,3l7.58-5.68a3.46,3.46,0,0,0,1.39-2.77A80,80,0,0,0,137.41,35.09Zm33.14,75.25a3.62,3.62,0,0,1-5.28-1l-3.59-6A5.61,5.61,0,0,0,151.4,105l-5.77,26a3.42,3.42,0,0,0-.08.75c0,9-2,15.43-5.73,18.6a9.87,9.87,0,0,1-7.47,2.25c-.45-.08-.79.28-1.51-.5-2.16-2.3-3.25-10.35-2.65-19.57a4,4,0,0,0-4-4.26,13.62,13.62,0,0,1-10.39-5.16,51,51,0,0,0-11.68-9.73,10.49,10.49,0,0,1-3.79-4.17l-4-8a5.73,5.73,0,0,1-.58-3.24c.85-7.09,4.68-16.23,7.07-21.38l3.14,5.24a9.34,9.34,0,0,0,10,4.36,9.06,9.06,0,0,0,7.27-7.7l.07-.55a11,11,0,0,1,6.81-9l8.36-3.34a3.67,3.67,0,0,0,.51-.25c6.58-4,5.73-13.57,4-20.58a73.1,73.1,0,0,1,35.76,60.95Z"/><path fill="#ff6200" d="M87.63,155.5l-2.1-2.1a28.05,28.05,0,0,0-8.83-6L66,142.84a11.69,11.69,0,0,1-7.09-10.76v-5.22a9.73,9.73,0,0,0-13.15-9.11L29.12,124A3.47,3.47,0,0,0,27,128.14,80.16,80.16,0,0,0,88.36,185.6a3.52,3.52,0,0,0,.68.07,3.47,3.47,0,0,0,3.33-2.51l1.27-4.44A23.65,23.65,0,0,0,87.63,155.5ZM87,176.81l-.37,1.3a73.25,73.25,0,0,1-52-48.75l13.63-5.11A2.8,2.8,0,0,1,52,126.87v5.22a18.61,18.61,0,0,0,11.29,17.13L74,153.79a21.23,21.23,0,0,1,6.66,4.51l2.1,2.1A16.72,16.72,0,0,1,87,176.81Z"/><path fill="#ff6200" d="M67.64,39.75A3.46,3.46,0,0,0,63.17,39a79.59,79.59,0,0,0-38.79,64.2,3.46,3.46,0,0,0,3.46,3.65,3.54,3.54,0,0,0,1.25-.23l21.5-8.48A10.5,10.5,0,0,0,56.64,85a3.55,3.55,0,0,1,.86-3.64l10-10a17.92,17.92,0,0,0,5.29-12.76V54.14A22.93,22.93,0,0,0,67.64,39.75Zm-1.79,18.9a11,11,0,0,1-3.26,7.86l-10,10a10.43,10.43,0,0,0-2.53,10.73A3.56,3.56,0,0,1,48,91.65L31.79,98.08A72.65,72.65,0,0,1,63.94,46.65a15.82,15.82,0,0,1,1.9,7.49v4.51Z"/><path fill="#ff6200" d="M104,0A105.64,105.64,0,0,0,93.22.55a3.47,3.47,0,0,0,.35,6.91l.36,0a99.67,99.67,0,0,1,10-.51A3.47,3.47,0,0,0,104,0Z"/><path fill="#ff6200" d="M8.3,120.27A98.13,98.13,0,0,1,6.93,104q0-1.74.06-3.47a3.47,3.47,0,0,0-6.93-.24Q0,102.11,0,104a105.32,105.32,0,0,0,1.46,17.47,3.47,3.47,0,0,0,3.41,2.89,3.38,3.38,0,0,0,.59,0A3.47,3.47,0,0,0,8.3,120.27Z"/><path fill="#ff6200" d="M13.59,139.36a3.47,3.47,0,0,0-6.45,2.53,104,104,0,0,0,9.73,18.86A3.47,3.47,0,1,0,22.67,157,96.93,96.93,0,0,1,13.59,139.36Z"/><path fill="#ff6200" d="M5.5,83.43a3.57,3.57,0,0,0,.82.1,3.47,3.47,0,0,0,3.37-2.64,96.49,96.49,0,0,1,6.65-18.66,3.47,3.47,0,0,0-6.26-3A103.35,103.35,0,0,0,3,79.24,3.46,3.46,0,0,0,5.5,83.43Z"/><path fill="#ff6200" d="M40.19,30.84a3.47,3.47,0,0,0-4.56-5.22A104.93,104.93,0,0,0,21.14,41.12a3.46,3.46,0,1,0,5.52,4.19A97.67,97.67,0,0,1,40.19,30.84Z"/><path fill="#ff6200" d="M87.06,199.54A96.75,96.75,0,0,1,68,194.12a3.47,3.47,0,1,0-2.57,6.44,103.42,103.42,0,0,0,20.42,5.8,3.56,3.56,0,0,0,.6.05,3.46,3.46,0,0,0,.6-6.88Z"/><path fill="#ff6200" d="M130.64,201a3.47,3.47,0,0,0-4.17-2.57A97.25,97.25,0,0,1,106.82,201a3.46,3.46,0,0,0,.1,6.93h.1a104.27,104.27,0,0,0,21-2.76A3.47,3.47,0,0,0,130.64,201Z"/><path fill="#ff6200" d="M76.77,7.12a3.47,3.47,0,0,0-4.35-2.25A103.59,103.59,0,0,0,53,13.36a3.47,3.47,0,0,0,3.41,6,96.44,96.44,0,0,1,18.16-7.92A3.47,3.47,0,0,0,76.77,7.12Z"/><path fill="#ff6200" d="M50.46,184.92a97.64,97.64,0,0,1-15.32-12.56,3.47,3.47,0,1,0-4.91,4.89,104.89,104.89,0,0,0,16.41,13.46,3.47,3.47,0,0,0,3.83-5.78Z"/><path fill="#ff6200" d="M158.91,188.19a3.47,3.47,0,0,0-4.76-1.17,97.38,97.38,0,0,1-8.84,4.74,3.47,3.47,0,1,0,3,6.27,103.64,103.64,0,0,0,9.47-5.08A3.47,3.47,0,0,0,158.91,188.19Z"/><path fill="#ff6200" d="M207.2,153.82a3.46,3.46,0,0,0-4.86-.61l-31.19,24.26a3.48,3.48,0,0,0-1.34,2.74v10.4a3.47,3.47,0,0,0,6.93,0v-8.7l29.85-23.22A3.46,3.46,0,0,0,207.2,153.82Z"/><path fill="#ff6200" d="M174.37,176.92,164,173.45a3.47,3.47,0,0,0-2.19,6.57l10.4,3.47a3.47,3.47,0,0,0,2.19-6.57Z"/><path fill="#ff6200" d="M200.75,182.38l-6.93-17.33a3.46,3.46,0,0,0-1.43-1.68L175.06,153a3.47,3.47,0,1,0-3.57,5.94l16.33,9.8,6.5,16.25a3.47,3.47,0,0,0,3.22,2.18,3.36,3.36,0,0,0,1.29-.25A3.46,3.46,0,0,0,200.75,182.38Z"/></svg>