<svg xmlns="http://www.w3.org/2000/svg" width="36" height="34" viewBox="0 0 512 480"><path fill="#ff6200" d="M396,220a10,10,0,1,0,10,10A10,10,0,0,0,396,220Z"/><path fill="#ff6200" d="M116,220a10,10,0,1,0,10,10A10,10,0,0,0,116,220Z"/><path fill="#ff6200" d="M346,260H296V210a10,10,0,0,0-10-10H226a10,10,0,0,0-10,10v50H166a10,10,0,0,0-10,10v60a10,10,0,0,0,10,10h50v50a10,10,0,0,0,10,10h60a10,10,0,0,0,10-10V340h50a10,10,0,0,0,10-10V270A10,10,0,0,0,346,260Zm-10,60H286a10,10,0,0,0-10,10v50H236V330a10,10,0,0,0-10-10H176V280h50a10,10,0,0,0,10-10V220h40v50a10,10,0,0,0,10,10h50Z"/><path fill="#ff6200" d="M462,120H386V60A60.07,60.07,0,0,0,326,0H186a60.07,60.07,0,0,0-60,60v60H50A50.06,50.06,0,0,0,0,170V430a50.06,50.06,0,0,0,50,50H462a50.06,50.06,0,0,0,50-50V170A50.06,50.06,0,0,0,462,120ZM396,260a10,10,0,0,0-10,10V460H126V270a10,10,0,0,0-20,0V460H86V140h20v50a10,10,0,0,0,20,0V140H386v50a10,10,0,0,0,20,0V140h20V460H406V270A10,10,0,0,0,396,260ZM326,120H186V70a10,10,0,0,1,10-10H316a10,10,0,0,1,10,10ZM146,60a40,40,0,0,1,40-40H326a40,40,0,0,1,40,40v60H346V70a30,30,0,0,0-30-30H196a30,30,0,0,0-30,30v50H146ZM20,430V170a30,30,0,0,1,30-30H66V460H50A30,30,0,0,1,20,430Zm472,0a30,30,0,0,1-30,30H446V140h16a30,30,0,0,1,30,30Z"/></svg>