<svg xmlns="http://www.w3.org/2000/svg" width="39" height="44" viewBox="0 0 169.36 191.57"><path fill="#ff6200" d="M160.65,87.5a3.47,3.47,0,0,1-.75-.08,3.39,3.39,0,0,1-2.57-4.06,213.41,213.41,0,0,0,5.23-43L84.68,7.09,6.79,40.41a200.39,200.39,0,0,0,2,25.36,3.39,3.39,0,1,1-6.72.95A189.1,189.1,0,0,1,0,38.07a3.39,3.39,0,0,1,2.06-3L83.35.28A3.37,3.37,0,0,1,86,.28L167.29,35a3.39,3.39,0,0,1,2.06,3c0,.83.48,20.68-5.39,46.78A3.39,3.39,0,0,1,160.65,87.5Z"/><path fill="#ff6200" d="M84.68,191.57a3.39,3.39,0,0,1-1.43-.32c-22.82-10.64-41.45-27.38-55.38-49.76a3.39,3.39,0,0,1,5.76-3.59c12.93,20.77,30.1,36.42,51.05,46.52,19.85-9.57,36.33-24.14,49-43.32a3.39,3.39,0,1,1,5.66,3.74c-13.67,20.7-31.58,36.32-53.23,46.41A3.39,3.39,0,0,1,84.68,191.57Z"/><path fill="#ff6200" d="M7.58,82.15a3.4,3.4,0,0,1-3.33-2.73C3.42,75.26,2.7,71,2.1,66.72a3.39,3.39,0,1,1,6.72-.95c.58,4.14,1.29,8.29,2.09,12.33a3.39,3.39,0,0,1-3.33,4.05Z"/><path fill="#ff6200" d="M135.44,135.18h-.11a16.35,16.35,0,0,1,.11-32.69h.12a16.35,16.35,0,0,1-.11,32.69Zm0-25.9a9.56,9.56,0,0,0-.06,19.12h.07a9.56,9.56,0,0,0,.07-19.12h-.07Z"/><path fill="#ff6200" d="M39.25,134.52h-.11a16.35,16.35,0,0,1,.11-32.69h.11a16.35,16.35,0,0,1-.11,32.69Zm0-25.9a9.56,9.56,0,0,0-.07,19.12h.07a9.56,9.56,0,0,0,.07-19.12Z"/><path fill="#ff6200" d="M159.91,124.06h0l-11.5-.06a3.39,3.39,0,0,1,0-6.79h0l10.31.06.09-11.5c0-2.69-1.79-5.89-4.83-8.57s-6.44-4.2-9-4.22l-17.41-.13a3.39,3.39,0,0,1-2-.67C111,81.38,99.3,73.29,97,72.5c-.63-.22-3.15-.59-13-.65-10.61-.07-24.42.24-29.61.36l-1.81,0c-1.83,1-9,6.7-21.26,17A3.43,3.43,0,0,1,29,90c-1.18,0-3.43-.11-5.72-.12-2.13,0-3.81,0-5,.1-1.92.12-4.47,1-4.51,6.77l-.13,17.12a2.39,2.39,0,0,0,2.38,2.41l10.23.05a3.39,3.39,0,0,1,0,6.79h0L16,123.06a9.18,9.18,0,0,1-9.13-9.24L7,96.69c.08-11.89,8.34-13.34,10.86-13.49,1.33-.08,3.17-.13,5.46-.11,1.68,0,3.35.05,4.61.09,21.24-17.73,22-17.75,24.3-17.71l1.91,0c5.28-.12,19.16-.44,29.87-.36,11.43.08,13.73.55,15.11,1,4.17,1.42,19.9,12.84,29.52,20l16.3.12c4.25,0,9.29,2.24,13.47,5.91,4.57,4,7.17,9,7.14,13.72l-.1,12.69A5.6,5.6,0,0,1,159.91,124.06ZM52.32,72.25h0Z"/><path fill="#ff6200" d="M122.49,123.8h0l-70.41-.48a3.39,3.39,0,1,1,0-6.79l70.41.48a3.39,3.39,0,0,1,0,6.79Z"/><path fill="#ff6200" d="M114.61,92.85h0l-36.82-.23a5.31,5.31,0,0,1-5.28-4.54l-1.64-8.68a3.39,3.39,0,0,1,6.67-1.25L79,85.83l35.65.23a3.39,3.39,0,0,1,0,6.79Z"/><path fill="#ff6200" d="M46.86,92.68a5.34,5.34,0,0,1-5-3.29,5.16,5.16,0,0,1,1.47-5.9,3.39,3.39,0,0,1,5.58,2.4l28.85-.06h0a3.39,3.39,0,0,1,0,6.79Z"/><path fill="#ff6200" d="M145.14,63.91h-.27a3.39,3.39,0,0,1-3.11-3.65c.36-4.56.48-7.15.51-8.57l-19.14-8.19a3.39,3.39,0,1,1,2.67-6.24l21.12,9a3.39,3.39,0,0,1,1.59,1.39c.53.89.94,1.59,0,13.12A3.39,3.39,0,0,1,145.14,63.91ZM142.25,50Z"/></svg>