<svg xmlns="http://www.w3.org/2000/svg" width="46" height="24" viewBox="0 0 240.72 127.65"><path fill="#ff6200" d="M45,105.52h0a3.53,3.53,0,1,0,3.56,3.53A3.51,3.51,0,0,0,45,105.52Z"/><path fill="#ff6200" d="M75.17,105.52h0a3.53,3.53,0,1,0,3.56,3.53A3.51,3.51,0,0,0,75.13,105.52Z"/><path fill="#ff6200" d="M199.54,105.52h0a3.53,3.53,0,1,0,3.56,3.53A3.51,3.51,0,0,0,199.5,105.52Z"/><path fill="#ff6200" d="M237.48,62.89l-4.74-4.74L223.19,29.5a3.53,3.53,0,0,0-1.07-6.89H188V7.29A7.3,7.3,0,0,0,180.66,0H7.29A7.3,7.3,0,0,0,0,7.29V90.21A7.3,7.3,0,0,0,7.29,97.5h4v7.78a7.3,7.3,0,0,0,7.29,7.29h8.12a18.59,18.59,0,0,0,33.34,7.35,18.59,18.59,0,0,0,33.34-7.35h87.85a18.6,18.6,0,0,0,36.86-3.53c0-.08,0-.16,0-.24h15.32a7.3,7.3,0,0,0,7.29-7.29V70.72A11,11,0,0,0,237.48,62.89ZM26.72,105.52H18.6a.24.24,0,0,1-.24-.24V97.5H30.42A18.53,18.53,0,0,0,26.72,105.52ZM45,120.6a11.55,11.55,0,0,1-.07-23.1h.14A11.55,11.55,0,0,1,45,120.6Zm30.15,0a11.55,11.55,0,0,1-.07-23.1h.14a11.55,11.55,0,0,1-.07,23.1Zm106.11-15.08H93.4a18.53,18.53,0,0,0-3.69-8H158a3.53,3.53,0,1,0,0-7.05H7.29a.24.24,0,0,1-.24-.24V7.29a.24.24,0,0,1,.24-.24H180.66a.24.24,0,0,1,.24.24V90.45h-7.78a3.53,3.53,0,1,0,0,7.05h11.81A18.52,18.52,0,0,0,181.24,105.52ZM226,60.3H203.27a.24.24,0,0,1-.24-.24V44.74h17.8ZM199.5,120.6a11.55,11.55,0,0,1-.07-23.1h.1a11.55,11.55,0,0,1,0,23.1Zm34.16-41.45h-4a3.53,3.53,0,1,0,0,7.05h4v15.32a.24.24,0,0,1-.24.24H216.61A18.63,18.63,0,0,0,199.5,90.45H188V29.91h0a.24.24,0,0,1,.24-.24h27.61l2.67,8h-19A3.53,3.53,0,0,0,196,41.21V60.06a7.3,7.3,0,0,0,7.29,7.29H232l.53.53a4,4,0,0,1,1.17,2.84v8.43Z"/><path fill="#ff6200" d="M18.6,82.43H169.35a3.53,3.53,0,1,0,0-7.05H18.6a3.53,3.53,0,0,0,0,7.05Z"/></svg>