<svg xmlns="http://www.w3.org/2000/svg" width="43" height="23" viewBox="0 0 224.8 122.29"><path fill="#ff6200" d="M3.62,100.34H21.23a25.59,25.59,0,0,0,50.65,0h79.84a25.59,25.59,0,0,0,50.65,0h18.81a3.71,3.71,0,0,0,3.62-3.62v-35a16.45,16.45,0,0,0-5.55-12.54c-9.41-8.44-28.94-8.2-35.7-7.72C164.5,12.54,136.76.72,135.56.24A3.06,3.06,0,0,0,134.11,0H28.7C4.1,0,.24,48.72,0,54.51V96.72A3.55,3.55,0,0,0,3.62,100.34Zm42.69,15A18.57,18.57,0,1,1,64.88,96.72,18.58,18.58,0,0,1,46.31,115.29Zm130.73,0a18.57,18.57,0,0,1,0-37.15,18.32,18.32,0,0,1,18.33,18.33h0A18.43,18.43,0,0,1,177,115.29Zm37.63-60.54a8.69,8.69,0,0,1,3.14,7V93.1h-15.2a25.59,25.59,0,0,0-50.65,0H71.88a25.59,25.59,0,0,0-50.65,0h-14V54.75c0-1.69.24-3.62.48-6H182.35C188.62,48.24,207.19,48,214.67,54.75Zm-164.74-13V7.24h55.48V41.73H49.93Zm125.18,0H112.64V7.24h20.74A113.29,113.29,0,0,1,175.11,41.73ZM28.7,7.24H42.93V41.73H8.68C11.58,26.77,17.37,7.24,28.7,7.24Z"/></svg>