<svg xmlns="http://www.w3.org/2000/svg" width="33" height="37" viewBox="0 0 61.2 67.71"><path fill="#ff6200" d="M57.49,24.38l-9.33-.89V4.1A4.09,4.09,0,0,0,42.39.36L.67,19.12h0a1.13,1.13,0,0,0-.3.2,1.14,1.14,0,0,0-.37.84V61.25a1.14,1.14,0,0,0,1,1.14l55.68,5.3.39,0a4.09,4.09,0,0,0,4.1-4.1V28.46a4.08,4.08,0,0,0-3.71-4.08ZM29.88,21.75l16-7.19v8.71Zm12.36-8.06-17,7.63-8.8-.84L41,9.46a.9.9,0,0,1,1.27.82ZM43.33,2.45A1.81,1.81,0,0,1,45.88,4.1v8l-1.34.61V10.28A3.18,3.18,0,0,0,40,7.38L11.89,20l-6.34-.6ZM58.92,63.62a1.81,1.81,0,0,1-2,1.8L2.29,60.21V21.42l55,5.24a1.8,1.8,0,0,1,1.64,1.8Zm0,0"/><path fill="#ff6200" d="M52,41.3a4.46,4.46,0,1,0,4.12,4.44A4.29,4.29,0,0,0,52,41.3Zm0,6.6a2.19,2.19,0,1,1,1.83-2.16A2,2,0,0,1,52,47.9Zm0,0"/></svg>