<svg xmlns="http://www.w3.org/2000/svg" width="41" height="39" viewBox="0 0 244.54 228.24"><path fill="#ff6200" d="M61.13,220.09H4.08a4.08,4.08,0,1,0,0,8.15H61.13a4.08,4.08,0,1,0,0-8.15Zm0,0"/><path fill="#ff6200" d="M126.34,220.09H85.59a4.08,4.08,0,0,0,0,8.15h40.76a4.08,4.08,0,1,0,0-8.15Zm0,0"/><path fill="#ff6200" d="M27.24,146.51a4,4,0,0,0,1.29.21H216a4.05,4.05,0,0,0,1.29-.21c1.11-.37,27.24-9.72,27.24-65s-26.13-64.63-27.24-65A4,4,0,0,0,216,16.3H154.87V12.23A12.24,12.24,0,0,0,142.65,0H101.89A12.24,12.24,0,0,0,89.66,12.23V126.34a4.08,4.08,0,1,0,8.15,0V24.45h36.68a4.08,4.08,0,0,0,0-8.15H97.82V12.23a4.08,4.08,0,0,1,4.08-4.08h40.76a4.08,4.08,0,0,1,4.07,4.08v8.15a4.08,4.08,0,0,0,4.08,4.08h64.38c3.26,1.6,21.21,12.45,21.21,57.06s-18.05,55.52-21.2,57.06H29.37C26.1,137,8.15,126.12,8.15,81.51S26.2,26,29.35,24.45h11.4V126.34a4.08,4.08,0,1,0,8.15,0v-4.07H77.44a4.08,4.08,0,0,0,0-8.15H48.91V97.82H77.44a4.08,4.08,0,0,0,0-8.15H48.91V73.36H77.44a4.08,4.08,0,0,0,0-8.15H48.91V48.91H77.44a4.08,4.08,0,0,0,0-8.15H48.91V24.45H77.44a4.08,4.08,0,0,0,0-8.15H28.53a4,4,0,0,0-1.29.21C26.13,16.88,0,26.23,0,81.51s26.13,64.63,27.24,65Zm0,0"/><path fill="#ff6200" d="M183.4,40.76a4.08,4.08,0,1,0,0-8.15h-8.15a4.08,4.08,0,1,0,0,8.15Zm0,0"/><path fill="#ff6200" d="M210,40.76a32.12,32.12,0,0,1,6,13,4.08,4.08,0,0,0,4,3.26,4.14,4.14,0,0,0,.82-.08,4.07,4.07,0,0,0,3.18-4.81,39.24,39.24,0,0,0-9.24-18.34,4.06,4.06,0,0,0-2.91-1.22H199.71a4.08,4.08,0,1,0,0,8.15Zm0,0"/><path fill="#ff6200" d="M240.46,220.09H175.25a4.08,4.08,0,1,0,0,8.15h65.21a4.08,4.08,0,0,0,0-8.15Zm0,0"/><path fill="#ff6200" d="M240.46,154.87H4.08a4.08,4.08,0,1,0,0,8.15H24.9a28.53,28.53,0,1,0,39.86,0h24.9V183.4a4.08,4.08,0,0,0,4.07,4.08H150.8a4.08,4.08,0,0,0,4.08-4.08v-8.15a4.08,4.08,0,1,0-8.15,0v4.07H97.82V163h82a28.53,28.53,0,1,0,39.86,0h20.83a4.08,4.08,0,0,0,0-8.15ZM65.21,183.4A20.38,20.38,0,1,1,44.83,163,20.4,20.4,0,0,1,65.21,183.4Zm154.87,0A20.38,20.38,0,1,1,199.71,163a20.4,20.4,0,0,1,20.38,20.38Zm0,0"/><path fill="#ff6200" d="M199.71,171.18a12.23,12.23,0,1,0,12.23,12.23,12.24,12.24,0,0,0-12.23-12.23Zm0,16.3a4.08,4.08,0,1,1,4.07-4.08,4.08,4.08,0,0,1-4.07,4.08Zm0,0"/><path fill="#ff6200" d="M158.95,220.09H150.8a4.08,4.08,0,0,0,0,8.15h8.15a4.08,4.08,0,1,0,0-8.15Zm0,0"/><path fill="#ff6200" d="M44.83,171.18A12.23,12.23,0,1,0,57.06,183.4a12.24,12.24,0,0,0-12.23-12.23Zm0,16.3a4.08,4.08,0,1,1,4.08-4.08,4.08,4.08,0,0,1-4.08,4.08Zm0,0"/></svg>