<svg xmlns="http://www.w3.org/2000/svg" width="49" height="42" viewBox="0 0 261.31 222.07"><path fill="#ff6200" d="M255.09,127.65l-7.52,6L186.76,53.78l34.76-22.31A3.84,3.84,0,0,0,217.38,25L179.12,49.57a3.87,3.87,0,0,0-1,5.55l7,9.14-5,3.79-19.66-6.49a3.91,3.91,0,0,0-1.2-.19h-45a3.84,3.84,0,0,0-3.72,2.91L108,74.4l-6.39-2.69a3.84,3.84,0,0,0-1.93-.27L81.93,73.51l-6-3.51,5.75-10a3.87,3.87,0,0,0-1.4-5.24l-74.48-43a3.84,3.84,0,1,0-3.84,6.64l58.37,33.7L9.91,139.41,5.75,137a3.84,3.84,0,1,0-3.84,6.64l20.27,11.7a3.87,3.87,0,0,0,5.24-1.4l2.93-5.08,8.27,4.41A16.11,16.11,0,0,0,57.91,176a15.73,15.73,0,0,0,3.17,9.47,16.23,16.23,0,0,0,17.79,5.64,16.08,16.08,0,0,0,13.54,15.67A16.31,16.31,0,0,0,95,207a15.94,15.94,0,0,0,4.88-.76,16.11,16.11,0,0,0,13.55,15.65,16.25,16.25,0,0,0,2.59.21,16,16,0,0,0,9.41-3.06l8.95-6.47a16,16,0,0,0,4.63-5.19l15.74,8.58A16.11,16.11,0,0,0,178.45,200a16.09,16.09,0,0,0,18.92-17.64,16.11,16.11,0,0,0,18.94-17.63,15.9,15.9,0,0,0,2.9.27,16.18,16.18,0,0,0,4.57-.66,16.11,16.11,0,0,0,10.9-20,16.27,16.27,0,0,0-1.14-2.84l6.73-4.78,3.55,4.67a3.87,3.87,0,0,0,5.43.68l10.59-8.4a3.84,3.84,0,0,0-4.77-6ZM22.7,146.8l-6.15-3.55L66.93,56l6.15,3.55Zm23.39,18.84A8.45,8.45,0,0,1,48,153.86l27.13-19.63A8.44,8.44,0,0,1,85,147.89L57.87,167.53A8.45,8.45,0,0,1,46.09,165.64Zm21.12,15.22a8.72,8.72,0,0,1,2-12.08L89.5,154.11a13.84,13.84,0,0,1,2.25-1.36,8.39,8.39,0,0,1,10,2.65,8.52,8.52,0,0,1-1.74,12L78.89,182.62A8.48,8.48,0,0,1,67.21,180.86ZM93.63,199.2A8.44,8.44,0,0,1,90,184l14.45-10.46.56-.41a8.4,8.4,0,0,1,11.64,1.7,8.52,8.52,0,0,1-1.75,12l-15,10.86A8.37,8.37,0,0,1,93.63,199.2Zm39.65,1.5a8.37,8.37,0,0,1-3.4,5.62l-8.95,6.47A8.44,8.44,0,0,1,111,199.13l8.38-6.06.57-.41a8.49,8.49,0,0,1,11.64,1.7A8.37,8.37,0,0,1,133.28,200.7Zm93.37-47.79a8.52,8.52,0,0,1-11.45,3.37l-44.34-24.17a3.84,3.84,0,0,0-3.67,6.74l37.16,20.25a8.44,8.44,0,1,1-8.08,14.82l-37.7-20.55a3.84,3.84,0,0,0-3.67,6.74l30.52,16.64a8.44,8.44,0,0,1-8.08,14.81l-32-17.42a3.84,3.84,0,0,0-3.67,6.74l24.77,13.5a8.44,8.44,0,1,1-8.08,14.82L141,199.72a16.16,16.16,0,0,0-15.31-16.35c.07-.34.14-.68.19-1a16.15,16.15,0,0,0-15.14-18.44c.07-.34.14-.68.19-1a16.15,16.15,0,0,0-15.14-18.44c.07-.34.14-.68.19-1a16,16,0,0,0-3.16-12.14h0A16,16,0,0,0,70.62,128L43.85,147.38l-9.66-5.15L72.05,76.65l7.13,4.14a3.84,3.84,0,0,0,2.37.49l18-2.11,6.55,2.76L102.39,97a3.85,3.85,0,0,0-.11.93v32.73a20.2,20.2,0,0,0,40.4,0V99l.7-1.12,79.91,43.55A8.52,8.52,0,0,1,226.65,152.91Zm1.83-17.23a16.38,16.38,0,0,0-1.53-.95L147.44,91.39l3-4.72a3.84,3.84,0,0,0-6.51-4.07l-8.3,13.28a3.84,3.84,0,0,0-.58,2v32.73a12.53,12.53,0,1,1-25.06,0V98.4L117.28,69h41.39l21,6.94a3.87,3.87,0,0,0,3.53-.6l6.55-5,45.88,60.24Z"/><path fill="#ff6200" d="M236,21.46a3.82,3.82,0,0,0,2.07-.61L259.54,7.06A3.84,3.84,0,0,0,255.4.61L233.91,14.4A3.84,3.84,0,0,0,236,21.46Z"/></svg>