<svg xmlns="http://www.w3.org/2000/svg" width="34" height="34" viewBox="0 0 511.99 512"><path fill="#ff6200" d="M393.92,424.79a10,10,0,0,0-9.47-6.79H383V273a127,127,0,0,0-254,0V418h-1.45a10,10,0,0,0-9.47,6.79L93,498.79A10,10,0,0,0,102.47,512H409.53A10,10,0,0,0,419,498.79ZM149,273a107,107,0,0,1,214,0V418H149V273ZM116.42,492l18.3-54H377.28l18.3,54Z" transform="translate(-0.01)"/><path fill="#ff6200" d="M256,80a10,10,0,0,0,10-10V10a10,10,0,1,0-20,0V70A10,10,0,0,0,256,80Z" transform="translate(-0.01)"/><path fill="#ff6200" d="M256,119a10,10,0,1,0-7.07-2.92A10.07,10.07,0,0,0,256,119Z" transform="translate(-0.01)"/><path fill="#ff6200" d="M105.5,277.66a10,10,0,0,0-10-10H49.59a10,10,0,1,0,0,20H95.5A10,10,0,0,0,105.5,277.66Z" transform="translate(-0.01)"/><path fill="#ff6200" d="M10,267.66a10,10,0,1,0,7.07,17.07A10,10,0,0,0,10,267.66Z" transform="translate(-0.01)"/><path fill="#ff6200" d="M170.2,96.64A10,10,0,1,0,188.67,89L175.12,56.27a10,10,0,0,0-18.48,7.65Z" transform="translate(-0.01)"/><path fill="#ff6200" d="M71.15,211.1A10,10,0,0,0,75,191.85L42.26,178.3a10,10,0,1,0-7.65,18.48l32.72,13.55A10,10,0,0,0,71.15,211.1Z" transform="translate(-0.01)"/><path fill="#ff6200" d="M466.58,267.66H420.66a10,10,0,0,0,0,20h45.92a10,10,0,0,0,0-20Z" transform="translate(-0.01)"/><path fill="#ff6200" d="M509.06,270.59a10,10,0,1,0,2.93,7.07A10.07,10.07,0,0,0,509.06,270.59Z" transform="translate(-0.01)"/><path fill="#ff6200" d="M397.47,146.18a10,10,0,0,0,7.07-2.93l49.2-49.2a10,10,0,0,0-14.14-14.14l-49.2,49.2a10,10,0,0,0,7.07,17.07Z" transform="translate(-0.01)"/><path fill="#ff6200" d="M107.45,143.26a10,10,0,0,0,14.14-14.14l-49.2-49.2A10,10,0,0,0,58.25,94.05Z" transform="translate(-0.01)"/><path fill="#ff6200" d="M328.74,102.05a10,10,0,0,0,13.07-5.41l13.55-32.72a10,10,0,1,0-18.48-7.65L323.33,89A10,10,0,0,0,328.74,102.05Z" transform="translate(-0.01)"/><path fill="#ff6200" d="M469.74,178.3,437,191.85a10,10,0,1,0,7.65,18.48l32.72-13.55a10,10,0,1,0-7.65-18.48Z" transform="translate(-0.01)"/><path fill="#ff6200" d="M256,209a30,30,0,0,0-30,30v48a30,30,0,1,0,60,0V239A30,30,0,0,0,256,209Zm10,78a10,10,0,1,1-20,0V239a10,10,0,0,1,20,0Z" transform="translate(-0.01)"/><path fill="#ff6200" d="M256,337a30,30,0,1,0,30,30A30,30,0,0,0,256,337Zm0,40a10,10,0,1,1,10-10A10,10,0,0,1,256,377Z" transform="translate(-0.01)"/></svg>