<svg xmlns="http://www.w3.org/2000/svg" width="49" height="51" viewBox="0 0 220.48 228.99"><path fill="#ff6200" d="M28.05,190.94a13.23,13.23,0,1,0,13.18,13.23A13.22,13.22,0,0,0,28.05,190.94Zm0,19.74a6.52,6.52,0,1,1,6.47-6.52A6.5,6.5,0,0,1,28.05,210.68Z"/><path fill="#ff6200" d="M176.66,217.39a13.23,13.23,0,1,0-13.18-13.23A13.22,13.22,0,0,0,176.66,217.39Zm0-19.74a6.52,6.52,0,1,1-6.47,6.52A6.5,6.5,0,0,1,176.66,197.65Z"/><path fill="#ff6200" d="M43.65,196a3.35,3.35,0,0,0-.5,3,17.54,17.54,0,0,1,0,10.31,3.35,3.35,0,0,0,3.2,4.35h112a3.35,3.35,0,0,0,3.2-4.35,17.54,17.54,0,0,1,0-10.31,3.35,3.35,0,0,0-3.2-4.35h-112A3.36,3.36,0,0,0,43.65,196Zm6.82,5.35H154.24a24.39,24.39,0,0,0,0,5.58H50.47a24.39,24.39,0,0,0,0-5.58Z"/><path fill="#ff6200" d="M94.16,142.81a3.35,3.35,0,1,0,0,6.71h8.21a3.35,3.35,0,1,0,0-6.71Z"/><path fill="#ff6200" d="M19.91,155.08a3.36,3.36,0,0,0,3-1.89l8.33-17.12a3.35,3.35,0,1,0-6-2.93l-8.33,17.12a3.36,3.36,0,0,0,3,4.82Z"/><path fill="#ff6200" d="M36.59,155.08a3.36,3.36,0,0,0,3-1.89l8.33-17.12a3.35,3.35,0,1,0-6-2.93l-8.33,17.12a3.36,3.36,0,0,0,3,4.82Z"/><path fill="#ff6200" d="M53.28,155.08a3.36,3.36,0,0,0,3-1.89l8.33-17.12a3.35,3.35,0,1,0-6-2.93l-8.33,17.12a3.36,3.36,0,0,0,3,4.82Z"/><path fill="#ff6200" d="M219.23,71.5a5.55,5.55,0,0,0-3.65-2L182.12,37.89a3.35,3.35,0,0,0-4.61,4.88l28.25,26.67H194.43l-53-43.08h0l-9.23-7.51a7,7,0,0,1-.59-.57l-.15-.18c-.13-.15-.26-.31-.38-.47l-.13-.18a6.77,6.77,0,0,1-.37-.6l0-.08a6.93,6.93,0,0,1-.35-.79l0-.05a7,7,0,0,1-.4-2,6.84,6.84,0,0,1,11.64-5.2l.06.06,26.24,24.77a3.35,3.35,0,0,0,4.61-4.88L146.12,3.9a13.55,13.55,0,0,0-22.86,12L25.45,93.44a9,9,0,0,0-8.89,9v15.31H8a8,8,0,0,0-8,8v10.58a3.35,3.35,0,1,0,6.71,0V125.75A1.29,1.29,0,0,1,8,124.45H76a8,8,0,0,0,8-8V96.33A1.29,1.29,0,0,1,85.27,95h50.65a3.15,3.15,0,0,1,2.82,1.77l10.45,21.49a3.21,3.21,0,0,1,.32,1.39v41.66a3.15,3.15,0,0,1-3.14,3.16H8a1.29,1.29,0,0,1-1.28-1.3V150A3.35,3.35,0,1,0,0,150v13.26a8,8,0,0,0,8,8H65.83v8.11H24.78A24.8,24.8,0,0,0,0,204.12v.09A24.8,24.8,0,0,0,24.78,229H179.93a24.8,24.8,0,0,0,24.78-24.78v-.09a24.8,24.8,0,0,0-24.78-24.78H138.87v-8.11h7.49a9.87,9.87,0,0,0,9.85-9.87V119.7a10,10,0,0,0-1-4.33L144.76,93.87a9.9,9.9,0,0,0-8.85-5.55H85.27a8,8,0,0,0-8,8v20.12a1.29,1.29,0,0,1-1.28,1.3H59.49v-4.56a19.72,19.72,0,0,0-1.13-6.58l81.08-73.23,48.18,39.17a5.57,5.57,0,0,0-.46,3.63l3.71,17.63a5.61,5.61,0,0,0,5.46,4.44h4.07v38.17a3.35,3.35,0,0,0,3.35,3.35,5.9,5.9,0,1,1-5.86,5.9,3.35,3.35,0,0,0-6.71,0,12.57,12.57,0,1,0,15.92-12.15V98.25h4.07a5.61,5.61,0,0,0,5.46-4.44l3.71-17.63A5.58,5.58,0,0,0,219.23,71.5ZM198,204.12v.09a18.09,18.09,0,0,1-18.07,18.07H24.78A18.09,18.09,0,0,1,6.71,204.21v-.09a18.09,18.09,0,0,1,18.07-18.07H179.93A18.09,18.09,0,0,1,198,204.12Zm-65.83-24.77H72.54v-8.11h59.63v8.11Zm-108.9-61.6V102.43a2.28,2.28,0,0,1,2.26-2.29H39.81l.81,0,.24,0,.59.06.25,0,.74.13.29.07.44.11.39.11.28.09a12.85,12.85,0,0,1,1.57.63h0a13.07,13.07,0,0,1,4.67,3.83l.16.21.25.35c.12.17.23.35.34.53l.11.19q.17.3.33.6a13,13,0,0,1,1.48,6v4.56ZM134.17,29.09,55,100.61a19.55,19.55,0,0,0-9.3-6.28l-.07,0-.8-.23L44.59,94l-.69-.16-.38-.07-.6-.11-.5-.07-.51-.07-.65-.05-.39,0-1.06,0H36.25L126.1,22.16l.09.1c.24.28.48.56.74.83l.1.1c.28.28.57.55.87.81h0l0,0Zm76.1,62.45h-13L194,76.15h19.5Z"/><path fill="#ff6200" d="M138.8,137.72a4.37,4.37,0,0,0,4.37-4.37V121.11a4.39,4.39,0,0,0-.44-1.91l-8.15-16.77a4.39,4.39,0,0,0-3.93-2.46h-36a4.37,4.37,0,0,0-4.37,4.37V121a4.4,4.4,0,0,0,1.29,3.1L104,136.45a4.34,4.34,0,0,0,3.07,1.27ZM97,120V106.68h32.23l7.28,15V131H108Z"/></svg>