<svg xmlns="http://www.w3.org/2000/svg" width="37" height="41" viewBox="0 0 213.33 236.22"><path fill="#ff6200" d="M203.4,99.34a4.61,4.61,0,0,0-4.08-2.47H122.72V88.55h76.59a4.62,4.62,0,0,0,4.08-2.47l9.41-17.87a4.61,4.61,0,0,0,0-4.3L203.4,46a4.62,4.62,0,0,0-4.08-2.47H122.72V19.91a4.62,4.62,0,0,0-.92-2.76L110.36,1.85a4.61,4.61,0,0,0-7.39,0L91.53,17.15a4.62,4.62,0,0,0-.92,2.76V70.23H14a4.62,4.62,0,0,0-4.08,2.47L.53,90.57a4.61,4.61,0,0,0,0,4.3l9.4,17.87A4.61,4.61,0,0,0,14,115.2H90.61v51.63a4.61,4.61,0,1,0,9.23,0V21.45l6.83-9.13,6.83,9.13V227H99.84V203.74a4.61,4.61,0,0,0-9.23,0V227H58.93a4.61,4.61,0,0,0,0,9.23H154.4a4.61,4.61,0,0,0,0-9.23H122.72V141.85h76.59a4.61,4.61,0,0,0,4.08-2.47l9.41-17.87a4.61,4.61,0,0,0,0-4.3ZM16.8,106l-7-13.26,7-13.26h73.8V106H16.8ZM196.53,52.81l7,13.26-7,13.26h-73.8V52.81Zm0,79.81h-73.8V106.11h73.8l7,13.26Zm0,0"/><path fill="#ff6200" d="M95.22,189.9a4.61,4.61,0,1,0-4.61-4.61,4.62,4.62,0,0,0,4.61,4.61Zm0,0"/></svg>