<svg xmlns="http://www.w3.org/2000/svg" width="39" height="46" viewBox="0 0 189.83 221.63"><path fill="#ff6200" d="M89.21,20.41h2.46v2.46a3.24,3.24,0,0,0,6.47,0V20.41h2.46a3.24,3.24,0,1,0,0-6.47H98.15V11.47a3.24,3.24,0,1,0-6.47,0v2.46H89.21a3.24,3.24,0,0,0,0,6.47Z"/><path fill="#ff6200" d="M189.69,210.56l-9.46-55.37a15.87,15.87,0,0,0-11.12-12.59l-42.46-12.81a7.05,7.05,0,0,0-5.43.56,8.19,8.19,0,0,1-2.61-5.77V114l.33-.28.52-.45h4.16a20.68,20.68,0,0,0,20.64-22l-1.15-18.21v-.27a9.76,9.76,0,0,0-.11-1.46l-1.29-20.39a3.24,3.24,0,1,0-6.46.41L136,63.41a9.73,9.73,0,0,0-2.65-.37h-.18a5.85,5.85,0,0,0-4.38-2.61C95.2,57.41,85.53,47.38,78.46,40c-1.47-1.52-3.88-1.64-7.16-.35C65.61,42,55.9,49.21,55.69,62.18v.89a9.71,9.71,0,0,0-1.87.34l1-15.77A27.19,27.19,0,0,1,66.31,27l.25.64a11.11,11.11,0,0,0,10.32,7.1h36.94a11.11,11.11,0,0,0,10.32-7.1l.06-.15a27.29,27.29,0,0,1,8.22,10,3.24,3.24,0,0,0,5.84-2.79,33.73,33.73,0,0,0-11.66-13.5l2.23-5.82a8,8,0,0,0-5.91-10.76L104.31.91a44.82,44.82,0,0,0-17.94,0L67.79,4.68a8,8,0,0,0-5.91,10.76l2.06,5.38A33.61,33.61,0,0,0,48.36,47.23L46.82,71.45a9.73,9.73,0,0,0-.1,1.33v.27L45.57,91.27a20.68,20.68,0,0,0,20.64,22h4.16l.52.45.33.28v10.6a8.19,8.19,0,0,1-2.61,5.77,7.05,7.05,0,0,0-5.43-.56L20.71,142.6A15.87,15.87,0,0,0,9.59,155.19L6,176a3.24,3.24,0,0,0,6.38,1.09L16,156.28a9.43,9.43,0,0,1,6.61-7.48L65,136a.6.6,0,0,1,.7.3h0l20.27,40a9.93,9.93,0,0,0,8.9,5.47h0a9.92,9.92,0,0,0,8.9-5.47l20.27-40.05a.59.59,0,0,1,.71-.3l42.46,12.81a9.43,9.43,0,0,1,6.61,7.48l9.46,55.37a3,3,0,0,1-3,3.51h-20l-5.29-31a3.24,3.24,0,1,0-6.38,1.09l5.1,29.87H36.09l5.1-29.87a3.24,3.24,0,0,0-6.38-1.09l-5.29,31h-20a3,3,0,0,1-3-3.51l3.29-19.28a3.24,3.24,0,0,0-6.38-1.09L.14,210.56a9.48,9.48,0,0,0,9.34,11.07H180.35a9.47,9.47,0,0,0,9.34-11.07ZM68,11.81A1.56,1.56,0,0,1,69.08,11L87.65,7.25a38.42,38.42,0,0,1,15.37,0L121.59,11h0a1.57,1.57,0,0,1,1.16,2.1l-4.67,12.21a4.6,4.6,0,0,1-4.27,2.94H76.87a4.6,4.6,0,0,1-4.27-2.94L67.92,13.13A1.55,1.55,0,0,1,68,11.81ZM137.8,91.68a14.22,14.22,0,0,1-12,14.94c3.56-4.4,7.05-10.23,8-16.87a9.67,9.67,0,0,0,3.76-1Zm-82,10.62A14.07,14.07,0,0,1,52,91.68l.18-2.91a9.67,9.67,0,0,0,3.76,1c1,6.64,4.48,12.47,8,16.87A14.05,14.05,0,0,1,55.85,102.3Zm42.59,70.32-.41.8a3.69,3.69,0,0,1-.19.32l-.06.1-.13.17a3.47,3.47,0,0,1-.51.54l-.13.09a3.5,3.5,0,0,1-5.22-1.23L78.35,146.86h33.12Zm16.31-32.22H75.08l-2.5-4.94a14.61,14.61,0,0,0,5.11-10.87V119a31,31,0,0,0,17.2,4.92H95a31,31,0,0,0,17.2-4.92v5.58a14.61,14.61,0,0,0,5.11,10.87Zm0-31.59c-6,5.15-10.6,8.54-19.81,8.65-9.21-.11-13.82-3.5-19.81-8.65C67.16,102,62.32,93.6,62.17,86.45a3.24,3.24,0,0,0-3.24-3.17H56.47A3.28,3.28,0,0,1,53.19,80V72.79a3.27,3.27,0,0,1,0-.44l0-.15a3.28,3.28,0,0,1,3.22-2.68h2.45a3.24,3.24,0,0,0,3.24-3.24v-4c.19-11,9.52-16.07,12.47-16.87,9.49,9.68,21.16,18.49,53.08,21.44a3.24,3.24,0,0,0,3.19,2.68h2.45a3.28,3.28,0,0,1,3.22,2.68c0,.05,0,.1,0,.15a3.26,3.26,0,0,1,0,.44V80a3.28,3.28,0,0,1-3.28,3.28h-2.46a3.24,3.24,0,0,0-3.24,3.17C127.5,93.6,122.67,102,114.72,108.8Z"/></svg>