<svg xmlns="http://www.w3.org/2000/svg" width="34" height="34" viewBox="0 0 599 599"><path fill="#ff6200" d="M395.63,258.86a10,10,0,0,0,10.76-2.22,157.87,157.87,0,0,1,135-44.22l46.06,7.09a10,10,0,0,0,6.78-18.35L309.48,24.4V0h-20V24.4L4.72,201.16a10,10,0,0,0,6.78,18.35l46.06-7.09a157.88,157.88,0,0,1,135,44.22,10,10,0,0,0,10.76,2.21,259.7,259.7,0,0,1,66.18-16.78v297H239.6a30,30,0,0,0,0,59.9H359.4a30,30,0,0,0,0-59.9h-30v-297a259.54,259.54,0,0,1,66.18,16.79Zm-15-26.16a271.65,271.65,0,0,0-162.39,0L299.5,54.08Zm22,.24L322.21,55.8l220,136.57a177.9,177.9,0,0,0-139.5,40.57ZM56.77,192.37l220-136.57L196.26,232.94a177.9,177.9,0,0,0-139.5-40.57ZM369.38,569.05a10,10,0,0,1-10,10H239.6a10,10,0,1,1,0-20H359.4a10,10,0,0,1,10,10Zm-59.9-29.95h-20V240.49q10-.39,20,0Zm0,0"/><path fill="#ff6200" d="M189.68,479.2h-30V399.33a10,10,0,0,0-10-10H49.92a10,10,0,0,0-10,10V479.2H10a10,10,0,0,0-10,10v59.9a10,10,0,0,0,10,10H20v30a10,10,0,0,0,10,10H169.71a10,10,0,0,0,10-10v-30h10a10,10,0,0,0,10-10v-59.9a10,10,0,0,0-10-10ZM59.9,539.1v-10h79.87v10Zm0-129.79h79.87v99.84H59.9ZM20,499.17h20V539.1H20ZM159.73,579H39.93v-20h119.8Zm20-39.93h-20V499.17h20Zm0,0"/><path fill="#ff6200" d="M589,479.2h-30V399.33a10,10,0,0,0-10-10H449.25a10,10,0,0,0-10,10V479.2H409.32a10,10,0,0,0-10,10v59.9a10,10,0,0,0,10,10h10v30a10,10,0,0,0,10,10H569.05a10,10,0,0,0,10-10v-30h10a10,10,0,0,0,10-10v-59.9a10,10,0,0,0-10-10ZM459.23,539.1v-10H539.1v10Zm0-129.79H539.1v99.84H459.23ZM419.3,499.17h20V539.1h-20ZM559.07,579H439.27v-20h119.8Zm20-39.93h-20V499.17h20Zm0,0"/></svg>