<svg xmlns="http://www.w3.org/2000/svg" width="40" height="44" viewBox="0 0 201.35 221.23"><path fill="#ff6200" d="M197.62,213.78h-6.21V18.64a3.73,3.73,0,0,0-3.73-3.73h-69.6a3.73,3.73,0,0,0-3.73,3.73V34.8h-7.46V18.64a3.73,3.73,0,0,0-3.73-3.73H87V3.73a3.73,3.73,0,1,0-7.46,0V14.91H63.39a3.73,3.73,0,0,0-3.73,3.73V34.8H48.47a3.73,3.73,0,0,0-3.73,3.73V69.6H13.67a3.73,3.73,0,0,0-3.73,3.73V213.78H3.73a3.73,3.73,0,0,0,0,7.46H197.62a3.73,3.73,0,1,0,0-7.46ZM121.8,22.37h62.14V213.78H156.6V113.1a3.73,3.73,0,1,0-7.46,0v1.24h-7.46V113.1a3.73,3.73,0,1,0-7.46,0v1.24H121.8v-92Zm-54.69,0H99.43V34.8H67.12ZM52.2,42.26h62.14v72.09H87V101.92H98.19a3.73,3.73,0,1,0,0-7.46H87V82H98.19a3.73,3.73,0,1,0,0-7.46H87V73.33a3.73,3.73,0,0,0-3.73-3.73H52.2ZM17.4,77.06H79.55V213.78H62.14V197.62a3.73,3.73,0,0,0-3.73-3.73H38.53a3.73,3.73,0,0,0-3.73,3.73v16.16H17.4ZM52.2,213.78v-6.21a3.73,3.73,0,0,0-7.46,0v6.21H42.26V201.35H54.69v12.43Zm34.8,0v-92h62.14v92Z"/><path fill="#ff6200" d="M103.16,129.26A3.73,3.73,0,0,0,99.43,133v69.6a3.73,3.73,0,0,0,7.46,0V133A3.73,3.73,0,0,0,103.16,129.26Z"/><path fill="#ff6200" d="M118.07,129.26a3.73,3.73,0,0,0-3.73,3.73v69.6a3.73,3.73,0,0,0,7.46,0V133A3.73,3.73,0,0,0,118.07,129.26Z"/><path fill="#ff6200" d="M133,129.26a3.73,3.73,0,0,0-3.73,3.73v69.6a3.73,3.73,0,0,0,7.46,0V133A3.73,3.73,0,0,0,133,129.26Z"/><path fill="#ff6200" d="M138,47.23a3.73,3.73,0,0,0,3.73-3.73v-5a3.73,3.73,0,0,0-7.46,0v5A3.73,3.73,0,0,0,138,47.23Z"/><path fill="#ff6200" d="M152.88,47.23a3.73,3.73,0,0,0,3.73-3.73v-5a3.73,3.73,0,0,0-7.46,0v5A3.73,3.73,0,0,0,152.88,47.23Z"/><path fill="#ff6200" d="M167.79,47.23a3.73,3.73,0,0,0,3.73-3.73v-5a3.73,3.73,0,1,0-7.46,0v5A3.73,3.73,0,0,0,167.79,47.23Z"/><path fill="#ff6200" d="M138,72.09a3.73,3.73,0,0,0,3.73-3.73v-5a3.73,3.73,0,0,0-7.46,0v5A3.73,3.73,0,0,0,138,72.09Z"/><path fill="#ff6200" d="M152.88,72.09a3.73,3.73,0,0,0,3.73-3.73v-5a3.73,3.73,0,0,0-7.46,0v5A3.73,3.73,0,0,0,152.88,72.09Z"/><path fill="#ff6200" d="M167.79,72.09a3.73,3.73,0,0,0,3.73-3.73v-5a3.73,3.73,0,1,0-7.46,0v5A3.73,3.73,0,0,0,167.79,72.09Z"/><path fill="#ff6200" d="M138,96.95a3.73,3.73,0,0,0,3.73-3.73v-5a3.73,3.73,0,0,0-7.46,0v5A3.73,3.73,0,0,0,138,96.95Z"/><path fill="#ff6200" d="M152.88,96.95a3.73,3.73,0,0,0,3.73-3.73v-5a3.73,3.73,0,0,0-7.46,0v5A3.73,3.73,0,0,0,152.88,96.95Z"/><path fill="#ff6200" d="M167.79,96.95a3.73,3.73,0,0,0,3.73-3.73v-5a3.73,3.73,0,1,0-7.46,0v5A3.73,3.73,0,0,0,167.79,96.95Z"/><path fill="#ff6200" d="M33.56,106.89a3.73,3.73,0,0,0,3.73-3.73v-5a3.73,3.73,0,0,0-7.46,0v5A3.73,3.73,0,0,0,33.56,106.89Z"/><path fill="#ff6200" d="M48.47,106.89a3.73,3.73,0,0,0,3.73-3.73v-5a3.73,3.73,0,0,0-7.46,0v5A3.73,3.73,0,0,0,48.47,106.89Z"/><path fill="#ff6200" d="M63.39,106.89a3.73,3.73,0,0,0,3.73-3.73v-5a3.73,3.73,0,0,0-7.46,0v5A3.73,3.73,0,0,0,63.39,106.89Z"/><path fill="#ff6200" d="M33.56,131.75A3.73,3.73,0,0,0,37.29,128v-5a3.73,3.73,0,0,0-7.46,0v5A3.73,3.73,0,0,0,33.56,131.75Z"/><path fill="#ff6200" d="M48.47,131.75A3.73,3.73,0,0,0,52.2,128v-5a3.73,3.73,0,0,0-7.46,0v5A3.73,3.73,0,0,0,48.47,131.75Z"/><path fill="#ff6200" d="M63.39,131.75A3.73,3.73,0,0,0,67.12,128v-5a3.73,3.73,0,0,0-7.46,0v5A3.73,3.73,0,0,0,63.39,131.75Z"/><path fill="#ff6200" d="M33.56,156.6a3.73,3.73,0,0,0,3.73-3.73v-5a3.73,3.73,0,0,0-7.46,0v5A3.73,3.73,0,0,0,33.56,156.6Z"/><path fill="#ff6200" d="M48.47,156.6a3.73,3.73,0,0,0,3.73-3.73v-5a3.73,3.73,0,0,0-7.46,0v5A3.73,3.73,0,0,0,48.47,156.6Z"/><path fill="#ff6200" d="M63.39,156.6a3.73,3.73,0,0,0,3.73-3.73v-5a3.73,3.73,0,0,0-7.46,0v5A3.73,3.73,0,0,0,63.39,156.6Z"/><path fill="#ff6200" d="M37.29,177.73v-5a3.73,3.73,0,1,0-7.46,0v5a3.73,3.73,0,1,0,7.46,0Z"/><path fill="#ff6200" d="M48.47,181.46a3.73,3.73,0,0,0,3.73-3.73v-5a3.73,3.73,0,1,0-7.46,0v5A3.73,3.73,0,0,0,48.47,181.46Z"/><path fill="#ff6200" d="M63.39,181.46a3.73,3.73,0,0,0,3.73-3.73v-5a3.73,3.73,0,1,0-7.46,0v5A3.73,3.73,0,0,0,63.39,181.46Z"/><path fill="#ff6200" d="M167.79,121.8a3.73,3.73,0,0,0,3.73-3.73v-5a3.73,3.73,0,1,0-7.46,0v5A3.73,3.73,0,0,0,167.79,121.8Z"/><path fill="#ff6200" d="M167.79,146.66a3.73,3.73,0,0,0,3.73-3.73v-5a3.73,3.73,0,1,0-7.46,0v5A3.73,3.73,0,0,0,167.79,146.66Z"/><path fill="#ff6200" d="M167.79,171.52a3.73,3.73,0,0,0,3.73-3.73v-5a3.73,3.73,0,1,0-7.46,0v5A3.73,3.73,0,0,0,167.79,171.52Z"/><path fill="#ff6200" d="M167.79,196.38a3.73,3.73,0,0,0,3.73-3.73v-5a3.73,3.73,0,0,0-7.46,0v5A3.73,3.73,0,0,0,167.79,196.38Z"/><path fill="#ff6200" d="M101.92,58.42a3.73,3.73,0,0,0-3.73-3.73H68.36a3.73,3.73,0,1,0,0,7.46H98.19A3.73,3.73,0,0,0,101.92,58.42Z"/></svg>