<svg xmlns="http://www.w3.org/2000/svg" width="39" height="34" viewBox="0 0 512 442.18"><path fill="#ff6200" d="M488.73,244.36c-7,0-11.64,4.65-11.64,11.64V407.27c0,7-4.65,11.64-11.64,11.64H46.55c-7,0-11.64-4.65-11.64-11.64V256c0-7-4.65-11.64-11.64-11.64S11.64,249,11.64,256V407.27c0,19.78,15.13,34.91,34.91,34.91H465.45c19.78,0,34.91-15.13,34.91-34.91V256C500.36,249,495.71,244.36,488.73,244.36Z"/><path fill="#ff6200" d="M477.09,81.45H34.91C15.13,81.45,0,96.58,0,116.36v74.47a34.93,34.93,0,0,0,26.76,33.75l182.69,40.73v37.24c0,7,4.65,11.64,11.64,11.64h69.82c7,0,11.64-4.65,11.64-11.64V265.31l182.69-40.73A34.93,34.93,0,0,0,512,190.84V116.36C512,96.58,496.87,81.45,477.09,81.45ZM279.27,290.91H232.73V244.36h46.55ZM488.73,190.84c0,5.82-3.49,10.47-9.31,11.64L302.55,242v-9.31c0-7-4.65-11.64-11.64-11.64H221.09c-7,0-11.64,4.65-11.64,11.64V242L32.58,202.47c-5.82-1.16-9.31-5.82-9.31-11.64V116.36c0-7,4.65-11.64,11.64-11.64H477.09c7,0,11.64,4.65,11.64,11.64Z"/><path fill="#ff6200" d="M174.55,58.18c7,0,11.64-4.65,11.64-11.64V34.91c0-7,4.65-11.64,11.64-11.64H314.18c7,0,11.64,4.65,11.64,11.64V46.55c0,7,4.65,11.64,11.64,11.64s11.64-4.65,11.64-11.64V34.91C349.09,15.13,334,0,314.18,0H197.82C178,0,162.91,15.13,162.91,34.91V46.55C162.91,53.53,167.56,58.18,174.55,58.18Z"/></svg>