<svg xmlns="http://www.w3.org/2000/svg" width="38" height="34" viewBox="0 0 68.85 63.09"><path fill="#ff6200" d="M30.11,63.09h-8.6a1.44,1.44,0,0,1-1.4-1.74l5.35-24.06H6.73a4.29,4.29,0,0,1-4.24-3.59L0,18.87a1.43,1.43,0,0,1,1.41-1.67H8a4.29,4.29,0,0,1,4.08,2.94l1.89,5.66h43A12.82,12.82,0,0,1,66,29.59l1.82,1.82a3.44,3.44,0,0,1-2.43,5.87H45.29L31.36,62.35A1.43,1.43,0,0,1,30.11,63.09ZM23.3,60.22h6L43.19,35.15a1.43,1.43,0,0,1,1.25-.74h21a.57.57,0,0,0,.4-1L64,31.61a10,10,0,0,0-7.1-2.94h-44a1.43,1.43,0,0,1-1.36-1L9.33,21.05a1.43,1.43,0,0,0-1.36-1H3.13L5.32,33.21a1.43,1.43,0,0,0,1.41,1.2H27.24a1.44,1.44,0,0,1,1.4,1.74Z"/><path fill="#ff6200" d="M46.88,28.68H26.09L19.72,0h8.7a4.3,4.3,0,0,1,3.76,2.21ZM28.39,25.81H42L29.68,3.6a1.43,1.43,0,0,0-1.25-.74H23.3Z"/></svg>