<svg xmlns="http://www.w3.org/2000/svg" width="46" height="44" viewBox="0 0 79 90"><path fill="#ff6200" d="M51.84,38.57a1.54,1.54,0,1,0-1.54,1.54A1.54,1.54,0,0,0,51.84,38.57Z"/><path fill="#ff6200" d="M64.19,61.72H62.34l-5-28.16a10.8,10.8,0,0,0-10.63-8.87H32.31a10.79,10.79,0,0,0-10.63,8.87l-5,28.16H14.81a4.63,4.63,0,0,0-4.63,4.63v6.17a1.54,1.54,0,0,0,1.54,1.54H67.27a1.54,1.54,0,0,0,1.54-1.54V66.35A4.63,4.63,0,0,0,64.19,61.72ZM24.72,34.11a7.71,7.71,0,0,1,7.59-6.33H46.69a7.71,7.71,0,0,1,7.59,6.33l4.93,27.61H19.79ZM65.73,71H13.27V66.35a1.54,1.54,0,0,1,1.54-1.54H64.19a1.54,1.54,0,0,1,1.54,1.54Z"/><path fill="#ff6200" d="M55.27,56.81,53,44.35a1.54,1.54,0,1,0-3,.55l2.26,12.46a1.54,1.54,0,0,0,3-.55Z"/><path fill="#ff6200" d="M77.45,37H64.19a1.54,1.54,0,1,0,0,3.09H77.45a1.54,1.54,0,0,0,0-3.09Z"/><path fill="#ff6200" d="M0,38.57a1.54,1.54,0,0,0,1.54,1.54H14.81a1.54,1.54,0,0,0,0-3.09H1.54A1.54,1.54,0,0,0,0,38.57Z"/><path fill="#ff6200" d="M66.77,11.3a1.54,1.54,0,0,0-2.18,0L55.86,20A1.54,1.54,0,0,0,58,22.21l8.73-8.73A1.54,1.54,0,0,0,66.77,11.3Z"/><path fill="#ff6200" d="M12.22,11.3a1.54,1.54,0,0,0,0,2.18L21,22.21A1.54,1.54,0,0,0,23.13,20L14.41,11.3A1.54,1.54,0,0,0,12.22,11.3Z"/><path fill="#ff6200" d="M41,13.89V1.54a1.54,1.54,0,1,0-3.09,0V13.89a1.54,1.54,0,1,0,3.09,0Z"/></svg>