<svg version="1.1" xmlns="http://www.w3.org/2000/svg" xmlns:xlink="http://www.w3.org/1999/xlink">

    <symbol viewBox="0 0 24 24" id="nav-add-link">
        <path d="M4 6H20" stroke-width="2" stroke-linecap="round" stroke-linejoin="round" />
        <path d="M4 12H20" stroke-width="2" stroke-linecap="round" stroke-linejoin="round" />
        <path d="M4 18H20" stroke-width="2" stroke-linecap="round" stroke-linejoin="round" />
    </symbol>

    <symbol viewBox="0 0 16 17" id="header-user-link">
        <path d="M13.3334 14.5V13.1667C13.3334 12.4594 13.0524 11.7811 12.5523 11.281C12.0522 10.781 11.3739 10.5 10.6667 10.5H5.33335C4.62611 10.5 3.94783 10.781 3.44774 11.281C2.94764 11.7811 2.66669 12.4594 2.66669 13.1667V14.5" stroke-width="1.33333" stroke-linecap="round" stroke-linejoin="round" />
        <path d="M7.99998 7.83333C9.47274 7.83333 10.6666 6.63943 10.6666 5.16667C10.6666 3.69391 9.47274 2.5 7.99998 2.5C6.52722 2.5 5.33331 3.69391 5.33331 5.16667C5.33331 6.63943 6.52722 7.83333 7.99998 7.83333Z" stroke-width="1.33333" stroke-linecap="round" stroke-linejoin="round" />
    </symbol>

    <symbol viewBox="0 0 16 17" id="header-view-link">
        <path d="M0.666656 8.50008C0.666656 8.50008 3.33332 3.16675 7.99999 3.16675C12.6667 3.16675 15.3333 8.50008 15.3333 8.50008C15.3333 8.50008 12.6667 13.8334 7.99999 13.8334C3.33332 13.8334 0.666656 8.50008 0.666656 8.50008Z" stroke-width="1.33333" stroke-linecap="round" stroke-linejoin="round" />
        <path d="M8 10.5C9.10457 10.5 10 9.60457 10 8.5C10 7.39543 9.10457 6.5 8 6.5C6.89543 6.5 6 7.39543 6 8.5C6 9.60457 6.89543 10.5 8 10.5Z" stroke-width="1.33333" stroke-linecap="round" stroke-linejoin="round" />
    </symbol>

    <symbol viewBox="0 0 16 17" id="header-search-link">
        <path d="M7.33333 13.1667C10.2789 13.1667 12.6667 10.7789 12.6667 7.83333C12.6667 4.88781 10.2789 2.5 7.33333 2.5C4.38781 2.5 2 4.88781 2 7.83333C2 10.7789 4.38781 13.1667 7.33333 13.1667Z" stroke-width="1.33333" stroke-linecap="round" stroke-linejoin="round" />
        <path d="M14.0003 14.5003L11.1003 11.6003" stroke-width="1.33333" stroke-linecap="round" stroke-linejoin="round" />
    </symbol>

    <symbol viewBox="0 0 16 16" id="nav-btn-activation">
        <path d="M7.99999 14.6666C11.6819 14.6666 14.6667 11.6818 14.6667 7.99992C14.6667 4.31802 11.6819 1.33325 7.99999 1.33325C4.3181 1.33325 1.33333 4.31802 1.33333 7.99992C1.33333 11.6818 4.3181 14.6666 7.99999 14.6666Z" stroke-linecap="round" stroke-linejoin="round" />
        <path d="M8 5.33325V10.6666" stroke-linecap="round" stroke-linejoin="round" />
        <path d="M5.33333 8H10.6667" stroke-linecap="round" stroke-linejoin="round" />
    </symbol>

    <symbol viewBox="0 0 16 19" id="breadcrumbs">
        <path fill-rule="evenodd" clip-rule="evenodd" d="M11.795 10.9714C12.0683 10.7111 12.0683 10.2889 11.795 10.0286L6.19498 4.69526C5.92161 4.43491 5.47839 4.43491 5.20503 4.69526C4.93166 4.95561 4.93166 5.37772 5.20503 5.63807L10.3101 10.5L5.20503 15.3619C4.93166 15.6223 4.93166 16.0444 5.20503 16.3047C5.47839 16.5651 5.92161 16.5651 6.19497 16.3047L11.795 10.9714Z" />
    </symbol>

    <symbol viewBox="0 0 16 16" id="gallery-prev">
        <path fill-rule="evenodd" clip-rule="evenodd" d="M4.20503 8.4714C3.93166 8.21105 3.93166 7.78895 4.20503 7.5286L9.80502 2.19526C10.0784 1.93491 10.5216 1.93491 10.795 2.19526C11.0683 2.45561 11.0683 2.87772 10.795 3.13807L5.68995 8L10.795 12.8619C11.0683 13.1223 11.0683 13.5444 10.795 13.8047C10.5216 14.0651 10.0784 14.0651 9.80503 13.8047L4.20503 8.4714Z" />
    </symbol>

    <symbol viewBox="0 0 16 16" id="gallery-next">
        <path fill-rule="evenodd" clip-rule="evenodd" d="M11.795 8.4714C12.0683 8.21105 12.0683 7.78895 11.795 7.5286L6.19498 2.19526C5.92161 1.93491 5.47839 1.93491 5.20503 2.19526C4.93166 2.45561 4.93166 2.87772 5.20503 3.13807L10.3101 8L5.20503 12.8619C4.93166 13.1223 4.93166 13.5444 5.20503 13.8047C5.47839 14.0651 5.92161 14.0651 6.19497 13.8047L11.795 8.4714Z" />
    </symbol>

    <symbol viewBox="0 0 32 32" id="footer-social-vk">
        <path fill-rule="evenodd" clip-rule="evenodd" d="M0 16C0 7.16344 7.16344 0 16 0C24.8366 0 32 7.16344 32 16C32 24.8366 24.8366 32 16 32C7.16344 32 0 24.8366 0 16ZM16.837 21.2507C16.837 21.2507 17.145 21.2171 17.3028 21.0508C17.4472 20.8984 17.4422 20.6108 17.4422 20.6108C17.4422 20.6108 17.423 19.2678 18.0582 19.0696C18.6842 18.8745 19.4881 20.3683 20.3412 20.9426C20.9856 21.3769 21.4747 21.2819 21.4747 21.2819L23.7544 21.2507C23.7544 21.2507 24.9464 21.1786 24.3813 20.2585C24.3345 20.1831 24.0516 19.5776 22.6868 18.3338C21.2569 17.0318 21.4489 17.2424 23.1701 14.9899C24.2185 13.6183 24.6375 12.7809 24.5065 12.4228C24.3821 12.0803 23.6108 12.1713 23.6108 12.1713L21.0449 12.1869C21.0449 12.1869 20.8545 12.1615 20.7135 12.2442C20.5757 12.3253 20.4864 12.5146 20.4864 12.5146C20.4864 12.5146 20.0807 13.5757 19.539 14.4786C18.3963 16.3828 17.9397 16.4836 17.7527 16.3656C17.3178 16.0895 17.4263 15.2579 17.4263 14.6671C17.4263 12.821 17.7118 12.0517 16.8712 11.8526C16.5924 11.7862 16.3871 11.7428 15.6734 11.7354C14.7577 11.7264 13.983 11.7387 13.544 11.9492C13.2518 12.0894 13.0264 12.4024 13.1642 12.4204C13.3336 12.4425 13.7176 12.522 13.9213 12.794C14.1842 13.1455 14.175 13.9338 14.175 13.9338C14.175 13.9338 14.3261 16.1067 13.8219 16.3763C13.4763 16.5615 13.0022 16.1837 11.983 14.4557C11.4613 13.5708 11.0673 12.5924 11.0673 12.5924C11.0673 12.5924 10.9914 12.4097 10.8553 12.3114C10.6908 12.1926 10.4613 12.1557 10.4613 12.1557L8.02305 12.1713C8.02305 12.1713 7.6566 12.1811 7.52221 12.3376C7.40284 12.4761 7.51303 12.7637 7.51303 12.7637C7.51303 12.7637 9.42206 17.1481 11.584 19.358C13.5665 21.3835 15.8169 21.2507 15.8169 21.2507H16.837Z" />
    </symbol>

    <symbol viewBox="0 0 33 32" id="footer-social-dzen">
        <path fill-rule="evenodd" clip-rule="evenodd" d="M1.44434 16.0689C7.63858 15.9968 11.1044 15.5837 13.4125 13.2353C15.7189 10.8853 16.1246 7.35487 16.197 1.048C8.12006 1.21126 1.60467 7.84659 1.44434 16.0689ZM17.096 1.05664C17.1671 7.3581 17.5735 10.8864 19.8805 13.2353C22.1508 15.5469 25.5459 15.984 31.5594 16.0657C31.3993 7.94328 25.0362 1.37029 17.096 1.05664ZM31.5508 16.9891C25.5426 17.0711 22.1497 17.5088 19.8805 19.8193C17.6096 22.1314 17.1797 25.5861 17.0992 31.7019C24.9413 31.3905 31.2442 24.9749 31.5508 16.9891ZM16.1923 31.7106C16.112 25.5893 15.6828 22.1325 13.4125 19.8193C11.1055 17.472 7.64177 17.0582 1.45287 16.9859C1.76156 25.0707 8.21466 31.5468 16.1923 31.7106Z" />
    </symbol>

    <symbol viewBox="0 0 16 16" id="footer-hotline">
        <path d="M14.6665 11.2802V13.2802C14.6672 13.4659 14.6292 13.6497 14.5548 13.8198C14.4804 13.9899 14.3713 14.1426 14.2345 14.2681C14.0977 14.3937 13.9362 14.4892 13.7603 14.5487C13.5844 14.6082 13.398 14.6303 13.2131 14.6136C11.1617 14.3907 9.19113 13.6897 7.45979 12.5669C5.84901 11.5433 4.48335 10.1777 3.45979 8.56689C2.33311 6.8277 1.63195 4.84756 1.41313 2.78689C1.39647 2.60254 1.41838 2.41673 1.47746 2.24131C1.53654 2.06589 1.63151 1.90469 1.7563 1.76797C1.8811 1.63126 2.033 1.52203 2.20232 1.44724C2.37164 1.37245 2.55469 1.33374 2.73979 1.33356H4.73979C5.06333 1.33038 5.37699 1.44495 5.6223 1.65592C5.86761 1.86689 6.02784 2.15986 6.07313 2.48023C6.15754 3.12027 6.31409 3.74871 6.53979 4.35356C6.62949 4.59218 6.6489 4.8515 6.59573 5.10081C6.54256 5.35012 6.41903 5.57897 6.23979 5.76023L5.39313 6.60689C6.34216 8.27592 7.7241 9.65786 9.39313 10.6069L10.2398 9.76023C10.4211 9.58099 10.6499 9.45746 10.8992 9.40429C11.1485 9.35112 11.4078 9.37053 11.6465 9.46023C12.2513 9.68593 12.8797 9.84248 13.5198 9.92689C13.8436 9.97258 14.1394 10.1357 14.3508 10.3852C14.5622 10.6348 14.6746 10.9533 14.6665 11.2802Z" stroke-linecap="round" stroke-linejoin="round" />
    </symbol>

</svg>