<svg width="160" height="160" viewBox="0 0 160 160" fill="none" xmlns="http://www.w3.org/2000/svg">
<mask id="mask0_1384_3631" style="mask-type:alpha" maskUnits="userSpaceOnUse" x="0" y="0" width="160" height="160">
<rect width="160" height="160" fill="#D9D9D9"/>
</mask>
<g mask="url(#mask0_1384_3631)">
<path d="M70.3314 104.666L111.665 63.3324L108.331 59.999L70.3314 97.999L51.3314 78.999L47.998 82.3324L70.3314 104.666ZM80.0264 137.999C72.0075 137.999 64.4669 136.477 57.4047 133.434C50.3425 130.391 44.1997 126.26 38.9764 121.042C33.7519 115.825 29.6164 109.69 26.5697 102.637C23.5219 95.584 21.998 88.0474 21.998 80.0274C21.998 72.0085 23.5197 64.4679 26.563 57.4057C29.6064 50.3435 33.7369 44.2007 38.9547 38.9774C44.1725 33.7529 50.3075 29.6174 57.3597 26.5707C64.4131 23.5229 71.9497 21.999 79.9697 21.999C87.9886 21.999 95.5292 23.5207 102.591 26.564C109.654 29.6074 115.796 33.7379 121.02 38.9557C126.244 44.1735 130.38 50.3085 133.426 57.3607C136.474 64.414 137.998 71.9507 137.998 79.9707C137.998 87.9896 136.476 95.5301 133.433 102.592C130.39 109.655 126.259 115.797 121.041 121.021C115.824 126.245 109.689 130.381 102.636 133.427C95.5831 136.475 88.0464 137.999 80.0264 137.999ZM79.998 133.332C94.8869 133.332 107.498 128.166 117.831 117.832C128.165 107.499 133.331 94.8879 133.331 79.999C133.331 65.1101 128.165 52.499 117.831 42.1657C107.498 31.8324 94.8869 26.6657 79.998 26.6657C65.1092 26.6657 52.498 31.8324 42.1647 42.1657C31.8314 52.499 26.6647 65.1101 26.6647 79.999C26.6647 94.8879 31.8314 107.499 42.1647 117.832C52.498 128.166 65.1092 133.332 79.998 133.332Z" fill="#37AE35"/>
</g>
</svg>
